SplineFontDB: 3.2
FontName: linja_laso
FullName: linja laso
FamilyName: linja laso
Weight: Regular
Copyright: Copyright (c) 2025, mute ante
Version: 000.9.1
ItalicAngle: 0
UnderlinePosition: -96.875
UnderlineWidth: 46.875
Ascent: 900
Descent: 100
InvalidEm: 0
sfntRevision: 0x0000e666
LayerCount: 2
Layer: 0 0 "Back" 1
Layer: 1 0 "Fore" 0
XUID: [1021 412 1039766594 11549582]
StyleMap: 0x0040
FSType: 0
OS2Version: 4
OS2_WeightWidthSlopeOnly: 0
OS2_UseTypoMetrics: 1
CreationTime: 1759787008
ModificationTime: 1764875568
PfmFamily: 17
TTFWeight: 400
TTFWidth: 5
LineGap: 92
VLineGap: 0
Panose: 2 0 5 3 0 0 0 0 0 0
OS2TypoAscent: 900
OS2TypoAOffset: 0
OS2TypoDescent: -100
OS2TypoDOffset: 0
OS2TypoLinegap: 92
OS2WinAscent: 862
OS2WinAOffset: 0
OS2WinDescent: 61
OS2WinDOffset: 0
HheadAscent: 862
HheadAOffset: 0
HheadDescent: -61
HheadDOffset: 0
OS2SubXSize: 650
OS2SubYSize: 700
OS2SubXOff: 0
OS2SubYOff: 139
OS2SupXSize: 650
OS2SupYSize: 700
OS2SupXOff: 0
OS2SupYOff: 480
OS2StrikeYSize: 48
OS2StrikeYPos: 258
OS2Vendor: 'PfEd'
OS2CodePages: 00000001.00000000
OS2UnicodeRanges: 00000001.02000000.04000000.00000000
Lookup: 4 0 1 "LIGA basics" { "LIGA basics"  } ['liga' ('DFLT' <'dflt' > 'latn' <'dflt' > ) ]
Lookup: 6 0 0 "CALT cartouches" { "CALT cartouches"  } ['calt' ('DFLT' <'dflt' > 'latn' <'dflt' > ) ]
Lookup: 2 0 0 "CCMP cartouches" { "CCMP cartouches"  } ['stch' ('DFLT' <'dflt' > 'latn' <'dflt' > ) ]
MarkAttachClasses: 1
DEI: 91125
ChainSub2: class "CALT cartouches" 3 3 3 1

StartChar: .notdef
Encoding: 214 -1 0
GlifName: _notdef
Width: 1000
GlyphClass: 1
Flags: W
HStem: 0 21G<100 900> 780 20G<100 900> 780 20G<100 900>
VStem: 100 800<0 800>
LayerCount: 2
Fore
SplineSet
100 0 m 1xd0
 100 800 l 1
 900 800 l 1
 900 0 l 1
 100 0 l 1xd0
EndSplineSet
Validated: 1
EndChar

StartChar: t.a
Encoding: 68 989440 2
GlifName: t.a
Width: 1000
GlyphClass: 1
Flags: W
HStem: -13 101<402.527 524.6 701.442 763> 288 100<402.527 523.473> 780 20G<413 513> 780 20G<413 513>
VStem: 263 100<127.481 248.473> 413 100<475 800> 563 100<126.358 247.304>
CounterMasks: 1 0e
LayerCount: 2
Fore
SplineSet
463 388 m 0xce
 573 388 663 298 663 188 c 0
 663 133 708 88 763 88 c 1
 763 -13 l 1
 703 -13 650 13 613 55 c 1
 576 13 523 -13 463 -13 c 0
 353 -13 263 78 263 188 c 0
 263 298 353 388 463 388 c 0xce
463 288 m 0
 408 288 363 243 363 188 c 0
 363 133 408 88 463 88 c 0
 518 88 563 133 563 188 c 0
 563 243 518 288 463 288 c 0
413 475 m 1
 413 800 l 1
 513 800 l 1xee
 513 475 l 1
 413 475 l 1
EndSplineSet
Validated: 1
MultipleSubs2: "CCMP cartouches" t.a cart.body
Ligature2: "LIGA basics" a
EndChar

StartChar: t.akesi
Encoding: 69 989441 3
GlifName: t.akesi
Width: 1000
GlyphClass: 1
Flags: W
HStem: -12 99<439.527 560.473> 187 100<200 300 400 600 700 800> 387 100<200 300 400 600 700 800> 587 100<439.527 560.473> 687 125<290.293 385.137 615.293 710.137>
VStem: 275 125<702.293 797.137> 300 100<127.788 187 287 387 487 546.304> 600 125<702.293 797.137> 600 100<127.788 187 287 387 487 546.304>
LayerCount: 2
Fore
SplineSet
338 812 m 0xec
 373 812 400 785 400 750 c 0
 400 715 373 687 338 687 c 0
 303 687 275 715 275 750 c 0
 275 785 303 812 338 812 c 0xec
663 812 m 0
 698 812 725 785 725 750 c 0
 725 715 698 687 663 687 c 0
 628 687 600 715 600 750 c 0xe9
 600 785 628 812 663 812 c 0
500 687 m 0xf280
 610 687 700 597 700 487 c 1
 800 487 l 1
 800 387 l 1
 700 387 l 1
 700 287 l 1
 800 287 l 1
 800 187 l 1
 700 187 l 1
 700 77 610 -12 500 -12 c 0
 390 -12 300 77 300 187 c 1
 200 187 l 1
 200 287 l 1
 300 287 l 1
 300 387 l 1
 200 387 l 1
 200 487 l 1
 300 487 l 1
 300 597 390 687 500 687 c 0xf280
500 587 m 0
 445 587 400 542 400 487 c 1
 600 487 l 1
 600 542 555 587 500 587 c 0
400 387 m 1
 400 287 l 1
 600 287 l 1
 600 387 l 1
 400 387 l 1
400 187 m 1
 400 132 445 87 500 87 c 0
 555 87 600 132 600 187 c 1
 400 187 l 1
EndSplineSet
Validated: 1
MultipleSubs2: "CCMP cartouches" t.akesi cart.body
Ligature2: "LIGA basics" a k e s i
EndChar

StartChar: t.ala
Encoding: 70 989442 4
GlifName: t.ala
Width: 1000
GlyphClass: 1
Flags: W
LayerCount: 2
Fore
SplineSet
217 754 m 1
 500 471 l 1
 783 754 l 1
 854 683 l 1
 571 400 l 1
 854 117 l 1
 783 46 l 1
 500 329 l 1
 217 46 l 1
 146 117 l 1
 429 400 l 1
 146 683 l 1
 217 754 l 1
EndSplineSet
Validated: 1
MultipleSubs2: "CCMP cartouches" t.ala cart.body
Ligature2: "LIGA basics" a l a
EndChar

StartChar: t.alasa
Encoding: 71 989443 5
GlifName: t.alasa
Width: 1000
GlyphClass: 1
Flags: W
HStem: 0 21G<200 303.5> 353 95<50 200 300 457.6> 358 85<398.5 497 595.686 800>
VStem: 200 100<117 353 448 683> 497 101<285.578 358 443 514.422>
LayerCount: 2
Fore
SplineSet
200 800 m 1xd8
 407 800 578 643 598 441 c 1
 800 438 l 1
 638 575 l 1
 713 650 l 1
 963 400 l 1
 713 150 l 1
 638 225 l 1
 800 363 l 1
 598 359 l 1
 578 157 407 0 200 0 c 1
 200 353 l 1
 50 350 l 1
 50 450 l 1
 200 448 l 1
 200 800 l 1xd8
300 683 m 1
 300 446 l 1
 497 443 l 1xb8
 481 552 406 645 300 683 c 1
497 358 m 1
 300 354 l 1
 300 117 l 1
 406 155 481 249 497 358 c 1
EndSplineSet
Validated: 1
MultipleSubs2: "CCMP cartouches" t.alasa cart.body
Ligature2: "LIGA basics" a l a s a
EndChar

StartChar: t.ale
Encoding: 72 989444 6
GlifName: t.ale
Width: 1000
GlyphClass: 1
Flags: W
HStem: 200 100<214.527 335.95 662.416 785.473> 500 100<214.527 337.584 663.935 785.473>
VStem: 75 100<339.527 460.473> 825 100<339.527 460.473>
LayerCount: 2
Fore
SplineSet
275 600 m 0
 324 600 371 582 408 549 c 2
 500 467 l 1
 592 549 l 2
 629 582 676 600 725 600 c 0
 835 600 925 510 925 400 c 0
 925 290 835 200 725 200 c 0
 676 200 629 218 592 251 c 2
 500 333 l 1
 408 251 l 2
 371 218 324 200 275 200 c 0
 165 200 75 290 75 400 c 0
 75 510 165 600 275 600 c 0
275 500 m 1
 220 500 175 455 175 400 c 0
 175 345 220 300 275 300 c 0
 300 300 323 310 342 326 c 2
 425 400 l 1
 342 475 l 2
 324 491 300 500 275 500 c 1
725 500 m 1
 700 500 676 490 658 474 c 2
 575 400 l 1
 658 325 l 2
 676 309 700 300 725 300 c 0
 780 300 825 345 825 400 c 0
 825 455 780 500 725 500 c 1
EndSplineSet
Validated: 5
MultipleSubs2: "CCMP cartouches" t.ale cart.body
Ligature2: "LIGA basics" a l e
EndChar

StartChar: t.anpa
Encoding: 73 989445 7
GlifName: t.anpa
Width: 1000
GlyphClass: 1
Flags: W
HStem: 62 150<448.417 551.583> 300 300<200 300 700 800> 300 100<300 700>
VStem: 200 100<400 600> 425 150<85.4173 188.583> 700 100<400 600>
CounterMasks: 1 1c
LayerCount: 2
Fore
SplineSet
200 600 m 1xdc
 300 600 l 1xdc
 300 400 l 1
 700 400 l 1xbc
 700 600 l 1
 800 600 l 1
 800 300 l 1
 200 300 l 1
 200 600 l 1xdc
500 212 m 0
 541 212 575 178 575 137 c 0
 575 96 541 62 500 62 c 0
 459 62 425 96 425 137 c 0
 425 178 459 212 500 212 c 0
EndSplineSet
Validated: 1
MultipleSubs2: "CCMP cartouches" t.anpa cart.body
Ligature2: "LIGA basics" a n p a
EndChar

StartChar: t.ante
Encoding: 74 989446 8
GlifName: t.ante
Width: 1000
GlyphClass: 1
Flags: W
HStem: 0 21G<148.506 191.52 808.48 851.494> 780 20G<148.506 191.52 808.48 851.494> 780 20G<148.506 191.52 808.48 851.494>
LayerCount: 2
Fore
SplineSet
162 800 m 1xc0
 500 571 l 1
 838 800 l 1
 894 717 l 1
 500 450 l 1
 106 717 l 1
 162 800 l 1xc0
500 350 m 1
 894 83 l 1
 838 0 l 1
 500 229 l 1
 162 0 l 1
 106 83 l 1
 500 350 l 1
EndSplineSet
Validated: 1
MultipleSubs2: "CCMP cartouches" t.ante cart.body
Ligature2: "LIGA basics" a n t e
EndChar

StartChar: t.anu
Encoding: 75 989447 9
GlifName: t.anu
Width: 1000
GlyphClass: 1
Flags: W
VStem: 450 100<25 413>
LayerCount: 2
Fore
SplineSet
217 787 m 1
 500 505 l 1
 783 787 l 1
 854 717 l 1
 550 413 l 1
 550 25 l 1
 450 25 l 1
 450 413 l 1
 146 717 l 1
 217 787 l 1
EndSplineSet
Validated: 1
MultipleSubs2: "CCMP cartouches" t.anu cart.body
Ligature2: "LIGA basics" a n u
EndChar

StartChar: t.awen
Encoding: 76 989448 10
GlifName: t.awen
Width: 1000
GlyphClass: 1
Flags: W
HStem: -0 100<100 272 728 900> 780 20G<444.914 555.086> 780 20G<444.914 555.086>
LayerCount: 2
Fore
SplineSet
450 800 m 1xc0
 550 800 l 1
 728 100 l 1
 900 100 l 1
 900 -0 l 1
 650 -0 l 1
 500 591 l 1
 350 -0 l 1
 100 -0 l 1
 100 100 l 1
 272 100 l 1
 450 800 l 1xc0
EndSplineSet
Validated: 1
MultipleSubs2: "CCMP cartouches" t.awen cart.body
Ligature2: "LIGA basics" a w e n
EndChar

StartChar: t.e
Encoding: 77 989449 11
GlifName: t.e
Width: 1000
GlyphClass: 1
Flags: W
HStem: 0 21G<130 170 480 520> 780 20G<130 170 480 520> 780 20G<130 170 480 520>
LayerCount: 2
Fore
SplineSet
500 800 m 1xc0
 900 400 l 1
 500 0 l 1
 429 71 l 1
 759 400 l 1
 429 729 l 1
 500 800 l 1xc0
150 800 m 1
 550 400 l 1
 150 0 l 1
 79 71 l 1
 409 400 l 1
 79 729 l 1
 150 800 l 1
EndSplineSet
Validated: 1
MultipleSubs2: "CCMP cartouches" t.e cart.body
Ligature2: "LIGA basics" e
EndChar

StartChar: t.en
Encoding: 78 989450 12
GlifName: t.en
Width: 1000
GlyphClass: 1
Flags: W
HStem: 350 100<225 450 550 775>
VStem: 450 100<125 350 450 675>
LayerCount: 2
Fore
SplineSet
450 675 m 1
 550 675 l 1
 550 450 l 1
 775 450 l 1
 775 350 l 1
 550 350 l 1
 550 125 l 1
 450 125 l 1
 450 350 l 1
 225 350 l 1
 225 450 l 1
 450 450 l 1
 450 675 l 1
EndSplineSet
Validated: 1
MultipleSubs2: "CCMP cartouches" t.en cart.body
Ligature2: "LIGA basics" e n
EndChar

StartChar: t.esun
Encoding: 79 989451 13
GlifName: t.esun
Width: 1000
GlyphClass: 1
Flags: W
HStem: 0 100<239.527 361.935> 300 100<239.527 365.503> 400 100<634.497 760.473> 700 100<638.065 760.473>
VStem: 100 100<139.341 260.473> 800 100<539.527 660.659>
LayerCount: 2
Fore
SplineSet
414 251 m 1xdc
 348 288 l 2
 334 296 317 300 300 300 c 0
 245 300 200 255 200 200 c 0
 200 145 245 100 300 100 c 0
 349 100 389 135 398 181 c 2
 414 251 l 1xdc
586 549 m 1
 652 512 l 2
 666 504 683 500 700 500 c 0xbc
 755 500 800 545 800 600 c 0
 800 655 755 700 700 700 c 0
 651 700 611 665 602 619 c 2
 586 549 l 1
529 303 m 1
 900 100 l 1
 852 12 l 1
 505 202 l 1
 497 163 l 2
 480 70 398 0 300 0 c 0
 190 0 100 89 100 200 c 0
 100 310 190 400 300 400 c 0xdc
 335 400 368 391 396 376 c 2
 438 353 l 1
 471 497 l 1
 100 700 l 1
 148 788 l 1
 495 598 l 1
 503 637 l 2
 520 730 602 800 700 800 c 0
 810 800 900 711 900 600 c 0
 900 490 810 400 700 400 c 0
 665 400 632 408 604 424 c 2
 562 447 l 1
 529 303 l 1
EndSplineSet
Validated: 1
MultipleSubs2: "CCMP cartouches" t.esun cart.body
Ligature2: "LIGA basics" e s u n
EndChar

StartChar: t.ijo
Encoding: 80 989452 14
GlifName: t.ijo
Width: 1000
GlyphClass: 1
Flags: W
HStem: -12 100<386.387 613.722> 712 101<386.387 613.722>
VStem: 88 100<286.387 513.652> 813 100<286.387 513.652>
LayerCount: 2
Fore
SplineSet
500 813 m 0
 728 813 913 628 913 400 c 0
 913 172 728 -12 500 -12 c 0
 272 -12 88 172 88 400 c 0
 88 628 272 813 500 813 c 0
500 712 m 0
 328 712 188 572 188 400 c 0
 188 228 328 88 500 88 c 0
 672 88 813 228 813 400 c 0
 813 572 672 712 500 712 c 0
EndSplineSet
Validated: 1
MultipleSubs2: "CCMP cartouches" t.ijo cart.body
Ligature2: "LIGA basics" i j o
EndChar

StartChar: t.ike
Encoding: 81 989453 15
GlifName: t.ike
Width: 1000
GlyphClass: 1
Flags: W
HStem: 500 100<403.504 596.496>
VStem: 150 100<250 345.711> 750 100<250 345.711>
LayerCount: 2
Fore
SplineSet
500 600 m 0
 693 600 850 443 850 250 c 1
 750 250 l 1
 750 388 638 500 500 500 c 0
 362 500 250 388 250 250 c 1
 250 250 206 250 176 250 c 0
 161 250 150 250 150 250 c 1
 150 443 307 600 500 600 c 0
EndSplineSet
Validated: 1
MultipleSubs2: "CCMP cartouches" t.ike cart.body
Ligature2: "LIGA basics" i k e
EndChar

StartChar: t.ilo
Encoding: 82 989454 16
GlifName: t.ilo
Width: 1000
GlyphClass: 1
Flags: W
HStem: -0 21G<450 550> 400 100<200 450 550 800> 700 100<200 450 550 800>
VStem: 100 100<500 700> 450 100<0 400 500 700> 800 100<500 700>
CounterMasks: 1 1c
LayerCount: 2
Fore
SplineSet
100 800 m 1
 900 800 l 1
 900 400 l 1
 550 400 l 1
 550 -0 l 1
 450 -0 l 1
 450 400 l 1
 100 400 l 1
 100 800 l 1
200 700 m 1
 200 500 l 1
 450 500 l 1
 450 700 l 1
 200 700 l 1
550 700 m 1
 550 500 l 1
 800 500 l 1
 800 700 l 1
 550 700 l 1
EndSplineSet
Validated: 1
MultipleSubs2: "CCMP cartouches" t.ilo cart.body
Ligature2: "LIGA basics" i l o
EndChar

StartChar: t.insa
Encoding: 83 989455 17
GlifName: t.insa
Width: 1000
GlyphClass: 1
Flags: W
HStem: 200 100<300 700> 400 150<448.417 551.583>
VStem: 200 100<300 600> 425 150<423.417 526.583> 700 100<300 600>
CounterMasks: 1 38
LayerCount: 2
Fore
SplineSet
200 600 m 1
 300 600 l 1
 300 300 l 1
 700 300 l 1
 700 600 l 1
 800 600 l 1
 800 200 l 1
 200 200 l 1
 200 600 l 1
500 550 m 0
 541 550 575 516 575 475 c 0
 575 434 541 400 500 400 c 0
 459 400 425 434 425 475 c 0
 425 516 459 550 500 550 c 0
EndSplineSet
Validated: 1
MultipleSubs2: "CCMP cartouches" t.insa cart.body
Ligature2: "LIGA basics" i n s a
EndChar

StartChar: t.jaki
Encoding: 84 989456 18
GlifName: t.jaki
Width: 1000
VWidth: 1300
GlyphClass: 1
Flags: W
HStem: -25 100<367.153 429.409> 100 100<280.955 392 531 659.304> 700 100<414.846 493>
VStem: 175 100<203.469 271.051> 700 100<239.527 361.489>
LayerCount: 2
Fore
SplineSet
487 800 m 2
 725 800 l 1
 725 700 l 1
 356 524 l 2
 356 523 356 523 356 522 c 2
 574 503 l 1
 850 625 l 1
 890 534 l 1
 721 459 l 1
 769 422 800 364 800 300 c 0
 800 190 710 100 600 100 c 2
 531 100 l 1
 528 30 470 -25 400 -25 c 0
 367 -25 334 -13 310 10 c 1
 381 81 l 1
 386 77 393 75 400 75 c 0
 415 75 428 86 431 100 c 1
 312 100 l 2
 236 100 175 162 175 238 c 0
 175 292 207 341 257 363 c 2
 307 385 l 1
 288 428 l 1
 175 438 l 1
 132 528 l 1
 251 585 l 1
 262 706 363 800 487 800 c 2
487 700 m 0
 442 700 402 678 377 645 c 1
 493 700 l 1
 488 700 l 2
 487 700 l 0
591 401 m 1
 440 335 l 1
 502 200 l 1
 600 200 l 2
 655 200 700 245 700 300 c 0
 700 352 661 395 609 400 c 2
 591 401 l 1
349 294 m 1
 297 272 l 2
 283 266 275 253 275 238 c 0
 275 217 291 200 312 200 c 2
 392 200 l 1
 349 294 l 1
EndSplineSet
Validated: 1
MultipleSubs2: "CCMP cartouches" t.jaki cart.body
Ligature2: "LIGA basics" j a k i
EndChar

StartChar: t.jan
Encoding: 85 989457 19
GlifName: t.jan
Width: 1000
GlyphClass: 1
Flags: W
HStem: -0 21G<200 322 678 800> 212 100<416.661 583.339> 712 100<409.912 590.088>
VStem: 200 100<422.622 602.088> 700 100<422.622 602.088>
LayerCount: 2
Fore
SplineSet
500 812 m 0
 666 812 800 678 800 512 c 0
 800 409 748 318 668 264 c 1
 800 -0 l 1
 688 -0 l 1
 577 222 l 1
 552 215 527 212 500 212 c 0
 473 212 448 215 423 222 c 1
 312 -0 l 1
 200 -0 l 1
 332 264 l 1
 252 318 200 409 200 512 c 0
 200 678 334 812 500 812 c 0
500 712 m 0
 390 712 300 622 300 512 c 0
 300 402 390 312 500 312 c 0
 610 312 700 402 700 512 c 0
 700 622 610 712 500 712 c 0
EndSplineSet
Validated: 1
MultipleSubs2: "CCMP cartouches" t.jan cart.body
Ligature2: "LIGA basics" j a n
EndChar

StartChar: t.jelo
Encoding: 86 989458 20
GlifName: t.jelo
Width: 1000
GlyphClass: 1
Flags: W
HStem: -0 100<341 659> 450 100<150 312.045 687.955 850> 600 250<450.326 549.674>
VStem: 150 250<450.326 549.674> 450 100<687.955 850> 600 250<450.326 549.674>
CounterMasks: 1 1c
LayerCount: 2
Fore
SplineSet
450 850 m 1
 550 850 l 1
 550 694 l 1
 620 676 676 620 694 550 c 1
 850 550 l 1
 850 450 l 1
 694 450 l 1
 679 391 637 343 582 318 c 1
 900 -0 l 1
 100 -0 l 1
 418 318 l 1
 363 343 321 391 306 450 c 1
 150 450 l 1
 150 550 l 1
 306 550 l 1
 324 620 380 676 450 694 c 1
 450 850 l 1
500 600 m 0
 445 600 400 555 400 500 c 0
 400 445 445 400 500 400 c 0
 555 400 600 445 600 500 c 0
 600 555 555 600 500 600 c 0
500 259 m 1
 341 100 l 1
 659 100 l 1
 500 259 l 1
EndSplineSet
Validated: 1
MultipleSubs2: "CCMP cartouches" t.jelo cart.body
Ligature2: "LIGA basics" j e l o
EndChar

StartChar: t.jo
Encoding: 87 989459 21
GlifName: t.jo
Width: 1000
GlyphClass: 1
Flags: W
HStem: -13 100<409.912 587.1> 225 100<500 690> 412 100<438.054 560.473> 713 100<439.527 560.473>
VStem: 200 100<196.912 377.216> 300 100<550.535 672.711> 600 100<551.527 672.711>
LayerCount: 2
Fore
SplineSet
500 813 m 0xf6
 610 813 700 722 700 612 c 0
 700 502 610 412 500 412 c 0
 457 412 416 426 383 450 c 1
 331 413 300 352 300 287 c 0
 300 177 390 87 500 87 c 0
 586 87 663 143 690 225 c 1
 500 225 l 1
 500 325 l 1
 800 325 l 1
 800 275 l 1
 793 114 661 -13 500 -13 c 0
 334 -13 200 121 200 287 c 0xfa
 200 383 245 471 319 527 c 1
 307 553 300 581 300 612 c 0
 300 722 390 813 500 813 c 0xf6
500 713 m 0
 445 713 400 667 400 612 c 0xf6
 400 557 445 512 500 512 c 0
 555 512 600 557 600 612 c 0
 600 667 555 713 500 713 c 0
EndSplineSet
Validated: 5
MultipleSubs2: "CCMP cartouches" t.jo cart.body
Ligature2: "LIGA basics" j o
EndChar

StartChar: t.kala
Encoding: 88 989460 22
GlifName: t.kala
Width: 1000
GlyphClass: 1
Flags: W
HStem: 125 100<503.105 720.58> 575 100<503.105 720.58>
VStem: 88 100<125 260.949 539.051 675> 812 101<317.304 482.696>
LayerCount: 2
Fore
SplineSet
88 675 m 1
 188 675 l 1
 188 610 202 547 227 491 c 1
 328 604 475 675 638 675 c 0
 790 675 913 552 913 400 c 0
 913 248 790 125 638 125 c 0
 475 125 328 196 227 309 c 1
 202 253 188 190 188 125 c 1
 188 125 144 125 114 125 c 0
 99 125 88 125 88 125 c 1
 88 225 115 319 162 400 c 1
 115 481 88 575 88 675 c 1
638 575 m 0
 493 575 363 507 281 400 c 1
 363 293 493 225 638 225 c 0
 735 225 812 303 812 400 c 0
 812 497 735 575 638 575 c 0
EndSplineSet
Validated: 1
MultipleSubs2: "CCMP cartouches" t.kala cart.body
Ligature2: "LIGA basics" k a l a
EndChar

StartChar: t.kalama
Encoding: 89 989461 23
GlifName: t.kalama
Width: 1000
GlyphClass: 1
Flags: W
HStem: 25 100<409.912 590.088> 325 100<300 700> 780 20G<450 550> 780 20G<450 550>
VStem: 200 100<235.672 325> 450 100<575 800> 700 100<235.672 325>
CounterMasks: 1 0e
LayerCount: 2
Fore
SplineSet
450 800 m 1xee
 550 800 l 1
 550 575 l 1
 450 575 l 1
 450 800 l 1xee
711 760 m 1
 800 714 l 1
 695 514 l 1
 607 561 l 1
 711 760 l 1
289 759 m 1
 393 560 l 1
 305 513 l 1
 200 713 l 1
 289 759 l 1
200 425 m 1
 800 425 l 1
 800 325 l 2
 800 159 666 25 500 25 c 0
 334 25 200 159 200 325 c 2
 200 425 l 1
300 325 m 1
 300 215 390 125 500 125 c 0
 610 125 700 215 700 325 c 1
 300 325 l 1
EndSplineSet
Validated: 1
MultipleSubs2: "CCMP cartouches" t.kalama cart.body
Ligature2: "LIGA basics" k a l a m a
EndChar

StartChar: t.kama
Encoding: 90 989462 24
GlifName: t.kama
Width: 1000
GlyphClass: 1
Flags: W
HStem: -0 100<125 325> 780 20G<325 439.992> 780 20G<325 439.992>
VStem: 325 100<100 633>
LayerCount: 2
Fore
SplineSet
425 800 m 1xd0
 874 201 l 1
 600 -0 l 1
 541 81 l 1
 734 221 l 1
 425 633 l 1
 425 -0 l 1
 125 -0 l 1
 125 100 l 1
 325 100 l 1
 325 800 l 1
 425 800 l 1xd0
EndSplineSet
Validated: 1
MultipleSubs2: "CCMP cartouches" t.kama cart.body
Ligature2: "LIGA basics" k a m a
EndChar

StartChar: t.kasi
Encoding: 91 989463 25
GlifName: t.kasi
Width: 1000
GlyphClass: 1
Flags: W
HStem: 350 100<354.289 445 555 645.711> 650 100<205 300.711 699.289 795>
VStem: 450 100<50 350>
LayerCount: 2
Fore
SplineSet
100 700 m 2
 100 751 l 1
 200 750 l 2
 323 750 437 685 500 580 c 1
 563 685 677 750 800 750 c 2
 900 750 l 1
 900 700 l 2
 900 507 743 350 550 350 c 1
 550 50 l 1
 450 50 l 1
 450 350 l 1
 257 350 100 507 100 700 c 2
205 650 m 1
 228 535 328 452 445 450 c 1
 422 565 322 648 205 650 c 1
795 650 m 1
 678 648 578 565 555 450 c 1
 672 452 772 535 795 650 c 1
EndSplineSet
Validated: 1
LCarets2: 3 0 0 0
MultipleSubs2: "CCMP cartouches" t.kasi cart.body
Ligature2: "LIGA basics" k a s i
EndChar

StartChar: t.ken
Encoding: 92 989464 26
GlifName: t.ken
Width: 1000
GlyphClass: 1
Flags: W
HStem: 0 21G<200 300 700 800> 350 100<300 510.132> 780 20G<200 300 700 800> 780 20G<200 300 700 800>
VStem: 200 100<0 350 450 800> 700 100<0 156.438 639.868 800>
LayerCount: 2
Fore
SplineSet
700 800 m 1xec
 800 800 l 1
 800 800 800 767 800 750 c 0
 800 604 721 470 594 400 c 1
 721 330 800 196 800 50 c 0
 800 33 800 17 800 0 c 2
 700 0 l 2
 700 17 700 33 700 50 c 0
 700 215 566 349 401 350 c 2
 300 350 l 1
 300 0 l 1
 200 0 l 1
 200 800 l 1
 300 800 l 1
 300 450 l 1
 400 450 l 2
 566 450 700 584 700 750 c 0
 700 767 700 800 700 800 c 1xec
EndSplineSet
Validated: 1
LCarets2: 2 0 0
MultipleSubs2: "CCMP cartouches" t.ken cart.body
Ligature2: "LIGA basics" k e n
EndChar

StartChar: t.kepeken
Encoding: 93 989465 27
GlifName: t.kepeken
Width: 1000
GlyphClass: 1
Flags: W
HStem: 0 21G<260 375 675 775> 475 100<312 462 563 712> 725 100<312 462 563 712>
VStem: 212 100<575 725> 462 101<393.909 475 575 725> 675 100<0 227.85> 712 100<575 725>
LayerCount: 2
Fore
SplineSet
212 825 m 1xfc
 812 825 l 1
 812 475 l 1xfa
 563 475 l 1
 563 397 l 1
 683 379 775 275 775 150 c 2
 775 0 l 1
 675 0 l 1
 675 150 l 2
 675 233 608 300 525 300 c 0
 442 300 375 233 375 150 c 2
 375 0 l 1
 275 0 l 1
 125 200 l 1
 205 260 l 1
 275 165 l 1
 282 275 359 366 462 392 c 1
 462 475 l 1
 212 475 l 1
 212 825 l 1xfc
312 725 m 1
 312 575 l 1
 462 575 l 1
 462 725 l 1
 312 725 l 1
563 725 m 1
 563 575 l 1
 712 575 l 1
 712 725 l 1
 563 725 l 1
EndSplineSet
Validated: 1
MultipleSubs2: "CCMP cartouches" t.kepeken cart.body
Ligature2: "LIGA basics" k e p e k e n
EndChar

StartChar: t.kili
Encoding: 94 989466 28
GlifName: t.kili
Width: 1000
GlyphClass: 1
Flags: W
HStem: 25 100<390.166 609.834> 550 100<256.658 395.023 604.977 743.342>
VStem: 100 100<315.166 493.342> 450 100<425 494.873 612 775> 800 100<315.166 493.342>
CounterMasks: 1 38
LayerCount: 2
Fore
SplineSet
450 775 m 1
 550 775 l 1
 550 775 550 702 550 654 c 0
 550 630 550 612 550 612 c 1
 586 636 629 650 675 650 c 2
 799 650 900 549 900 425 c 0
 900 204 721 25 500 25 c 0
 279 25 100 204 100 425 c 0
 100 549 201 650 325 650 c 0
 371 650 414 636 450 612 c 1
 450 775 l 1
325 550 m 0
 256 550 200 494 200 425 c 0
 200 259 334 125 500 125 c 0
 666 125 800 259 800 425 c 0
 800 494 744 550 675 550 c 0
 606 550 550 494 550 425 c 1
 450 425 l 1
 450 494 394 550 325 550 c 0
EndSplineSet
Validated: 5
MultipleSubs2: "CCMP cartouches" t.kili cart.body
Ligature2: "LIGA basics" k i l i
EndChar

StartChar: t.kiwen
Encoding: 95 989467 29
GlifName: t.kiwen
Width: 1000
GlyphClass: 1
Flags: W
HStem: 650 100<354 646>
LayerCount: 2
Fore
SplineSet
300 750 m 1
 700 750 l 1
 900 450 l 1
 500 38 l 1
 100 450 l 1
 300 750 l 1
354 650 m 1
 228 462 l 1
 500 181 l 1
 772 462 l 1
 646 650 l 1
 354 650 l 1
EndSplineSet
Validated: 1
MultipleSubs2: "CCMP cartouches" t.kiwen cart.body
Ligature2: "LIGA basics" k i w e n
EndChar

StartChar: t.ko
Encoding: 96 989468 30
GlifName: t.ko
Width: 1000
VWidth: 1300
GlyphClass: 1
Flags: W
HStem: -0 100<275.684 386.486 613.525 739.583> 250 100<627.882 739.583> 362 100<223.417 297.118> 412 100<628.583 694.045> 712 100<465.553 617.447>
VStem: 100 100<175.684 335.954> 300 100<464.882 645.517> 525 100<351.54 407.246> 700 100<515.469 629.447> 763 100<123.124 226.876>
LayerCount: 2
Fore
SplineSet
375 -0 m 2xdf40
 350 -0 l 2
 212 0 100 112 100 250 c 2
 100 288 l 2
 100 385 178 462 275 462 c 0
 289 462 300 473 300 487 c 2
 300 575 l 2
 300 706 407 812 538 812 c 0
 683 812 800 695 800 550 c 0xef80
 800 474 739 412 663 412 c 0
 642 412 625 396 625 375 c 0
 625 361 636 350 650 350 c 2
 688 350 l 2
 785 350 863 272 863 175 c 0
 863 78 785 -0 688 -0 c 2
 625 -0 l 2
 563 0 513 50 513 112 c 0
 513 119 507 125 500 125 c 0
 493 125 488 119 488 112 c 0
 488 50 437 0 375 -0 c 2xdf40
375 100 m 2
 382 100 388 105 388 112 c 0
 388 174 438 225 500 225 c 0
 562 225 613 174 613 112 c 0
 613 105 618 100 625 100 c 2
 688 100 l 2
 729 100 763 134 763 175 c 0
 763 216 729 250 688 250 c 2
 650 250 l 2
 581 250 525 306 525 375 c 0
 525 451 587 512 663 512 c 0xdf40
 684 512 700 529 700 550 c 0
 700 640 628 712 538 712 c 0
 462 712 400 651 400 575 c 2
 400 487 l 2
 400 418 344 362 275 362 c 0
 234 362 200 328 200 287 c 2
 200 250 l 2
 200 167 267 100 350 100 c 2
 375 100 l 2
EndSplineSet
Validated: 1
MultipleSubs2: "CCMP cartouches" t.ko cart.body
Ligature2: "LIGA basics" k o
EndChar

StartChar: t.kon
Encoding: 97 989469 31
GlifName: t.kon
Width: 1000
GlyphClass: 1
Flags: W
HStem: -0 100<348.391 419 698.391 769> 700 100<231 301.609 581 651.609>
VStem: 181 100<164.746 311.03> 369 100<488.361 634.447> 531 100<164.746 311.03> 719 100<488.361 634.447>
LayerCount: 2
Fore
SplineSet
231 800 m 1
 362 800 469 693 469 562 c 0
 469 477 424 399 350 357 c 0
 307 332 281 286 281 237 c 0
 281 161 343 100 419 100 c 1
 419 -0 l 1
 288 0 181 106 181 237 c 0
 181 322 226 401 300 443 c 0
 343 468 369 513 369 562 c 0
 369 638 307 700 231 700 c 1
 231 800 l 1
581 800 m 1
 712 800 819 693 819 562 c 0
 819 477 774 399 700 357 c 0
 657 332 631 286 631 237 c 0
 631 161 693 100 769 100 c 1
 769 -0 l 1
 638 0 531 106 531 237 c 0
 531 322 576 401 650 443 c 0
 693 468 719 513 719 562 c 0
 719 638 657 700 581 700 c 1
 581 800 l 1
EndSplineSet
Validated: 1
MultipleSubs2: "CCMP cartouches" t.kon cart.body
Ligature2: "LIGA basics" k o n
EndChar

StartChar: t.kule
Encoding: 98 989470 32
GlifName: t.kule
Width: 1000
GlyphClass: 1
Flags: W
HStem: -0 100<262 738> 250 100<100 225 387 613 775 900> 780 20G<490 510> 780 20G<490 510>
LayerCount: 2
Fore
SplineSet
500 800 m 1xe0
 725 350 l 1
 900 350 l 1
 900 250 l 1
 775 250 l 1
 900 -0 l 1
 100 -0 l 1
 225 250 l 1
 100 250 l 1
 100 350 l 1
 275 350 l 1
 500 800 l 1xe0
500 576 m 1
 387 350 l 1
 613 350 l 1
 500 576 l 1
337 250 m 1
 262 100 l 1
 738 100 l 1
 663 250 l 1
 337 250 l 1
EndSplineSet
Validated: 1
MultipleSubs2: "CCMP cartouches" t.kule cart.body
Ligature2: "LIGA basics" k u l e
EndChar

StartChar: t.kulupu
Encoding: 99 989471 33
GlifName: t.kulupu
Width: 1000
GlyphClass: 1
Flags: W
HStem: -13 100<201.527 322.473 676.527 797.473> 288 100<201.527 322.473 676.527 797.473> 412 101<439.527 560.473> 713 100<439.527 560.473>
VStem: 62 100<127.289 248.473> 300 100<552.481 673.473> 362 100<127.289 248.473> 537 100<127.289 248.473> 600 100<552.481 673.473> 837 100<127.289 248.473>
LayerCount: 2
Fore
SplineSet
500 813 m 0xfcc0
 610 813 700 723 700 613 c 0
 700 503 610 412 500 412 c 0
 390 412 300 503 300 613 c 0
 300 723 390 813 500 813 c 0xfcc0
500 713 m 0
 445 713 400 668 400 613 c 0
 400 558 445 513 500 513 c 0
 555 513 600 558 600 613 c 0
 600 668 555 713 500 713 c 0
262 388 m 0
 372 388 462 298 462 188 c 0xfa40
 462 78 372 -13 262 -13 c 0
 152 -13 62 78 62 188 c 0
 62 298 152 388 262 388 c 0
262 288 m 0
 207 288 162 243 162 188 c 0
 162 133 207 87 262 87 c 0
 317 87 362 133 362 188 c 0
 362 243 317 288 262 288 c 0
737 388 m 0
 847 388 937 298 937 188 c 0
 937 78 847 -13 737 -13 c 0
 627 -13 537 78 537 188 c 0xf940
 537 298 627 388 737 388 c 0
737 288 m 0
 682 288 637 243 637 188 c 0
 637 133 682 87 737 87 c 0
 792 87 837 133 837 188 c 0
 837 243 792 288 737 288 c 0
EndSplineSet
Validated: 1
MultipleSubs2: "CCMP cartouches" t.kulupu cart.body
Ligature2: "LIGA basics" k u l u p u
EndChar

StartChar: t.kute
Encoding: 100 989472 34
GlifName: t.kute
Width: 1000
GlyphClass: 1
Flags: W
HStem: -0 100<350 459.535> 525 12<200 300> 713 99<392.304 557.696>
VStem: 200 100<525 537 538 619.729> 425 100<300 525> 650 100<290.465 619.729>
CounterMasks: 1 1c
LayerCount: 2
Fore
SplineSet
475 812 m 0
 627 812 750 690 750 538 c 2
 750 400 l 2
 750 179 571 0 350 -0 c 1
 350 100 l 1
 516 100 650 234 650 400 c 2
 650 538 l 2
 650 635 572 713 475 713 c 0
 378 713 300 635 300 538 c 1
 200 538 l 1
 200 690 323 812 475 812 c 0
200 537 m 1
 300 537 l 1
 300 525 l 1
 200 525 l 1
 200 537 l 1
425 525 m 1
 525 525 l 1
 525 300 l 1
 425 300 l 1
 425 525 l 1
EndSplineSet
Validated: 1
MultipleSubs2: "CCMP cartouches" t.kute cart.body
Ligature2: "LIGA basics" k u t e
EndChar

StartChar: t.la
Encoding: 101 989473 35
GlifName: t.la
Width: 1000
GlyphClass: 1
Flags: W
HStem: -0 100<300 409.535> 700 100<300 409.535>
VStem: 600 100<290.166 509.834>
LayerCount: 2
Fore
SplineSet
300 800 m 1
 521 800 700 621 700 400 c 0
 700 179 521 0 300 -0 c 1
 300 100 l 1
 466 100 600 234 600 400 c 0
 600 566 466 700 300 700 c 1
 300 800 l 1
EndSplineSet
Validated: 1
MultipleSubs2: "CCMP cartouches" t.la cart.body
Ligature2: "LIGA basics" l a
EndChar

StartChar: t.lape
Encoding: 102 989474 36
GlifName: t.lape
Width: 1000
GlyphClass: 1
Flags: W
HStem: 200 100<639.893 760.473> 350 100<100 512.179> 500 100<639.893 760.473>
VStem: 800 100<339.527 460.473>
CounterMasks: 1 e0
LayerCount: 2
Fore
SplineSet
700 600 m 0
 810 600 900 510 900 400 c 0
 900 290 810 200 700 200 c 0
 607 200 528 264 506 350 c 1
 100 350 l 1
 100 450 l 1
 506 450 l 1
 528 536 607 600 700 600 c 0
700 500 m 0
 645 500 600 455 600 400 c 0
 600 345 645 300 700 300 c 0
 755 300 800 345 800 400 c 0
 800 455 755 500 700 500 c 0
EndSplineSet
Validated: 1
MultipleSubs2: "CCMP cartouches" t.lape cart.body
Ligature2: "LIGA basics" l a p e
EndChar

StartChar: t.laso
Encoding: 103 989475 37
GlifName: t.laso
Width: 1000
GlyphClass: 1
Flags: W
HStem: 0 100<341 659> 400 100<354.289 445 555 645.711> 700 100<205 302.796 697.204 795>
VStem: 450 100<350 400>
LayerCount: 2
Fore
SplineSet
200 800 m 2
 327 800 439 732 500 630 c 1
 561 732 673 800 800 800 c 2
 900 800 l 1
 900 750 l 2
 900 557 743 400 550 400 c 1
 550 350 l 1
 900 0 l 1
 100 0 l 1
 450 350 l 1
 450 400 l 1
 257 400 100 557 100 750 c 2
 100 800 l 1
 100 800 111 799 126 799 c 0
 156 799 200 800 200 800 c 2
205 700 m 1
 228 585 328 502 445 500 c 1
 422 615 322 698 205 700 c 1
795 700 m 1
 678 698 578 615 555 500 c 1
 672 502 772 585 795 700 c 1
500 259 m 1
 341 100 l 1
 659 100 l 1
 500 259 l 1
EndSplineSet
Validated: 1
MultipleSubs2: "CCMP cartouches" t.laso cart.body
Ligature2: "LIGA basics" l a s o
EndChar

StartChar: t.lawa
Encoding: 104 989476 38
GlifName: t.lawa
Width: 1000
GlyphClass: 1
Flags: W
HStem: 62 100<317.102 507.024> 450 100<229 596 746 925> 637 100<317.445 508.244>
VStem: 75 100<304.102 445.582> 650 100<304.102 450>
LayerCount: 2
Fore
SplineSet
412 737 m 0
 544 737 659 661 714 550 c 1
 925 550 l 1
 925 450 l 1
 746 450 l 1
 749 433 750 416 750 399 c 0
 750 213 598 62 412 62 c 0
 226 62 75 213 75 399 c 0
 75 585 226 737 412 737 c 0
412 637 m 0
 338 637 273 603 229 550 c 1
 596 550 l 1
 552 603 486 637 412 637 c 0
180 450 m 1
 176 434 175 416 175 399 c 0
 175 268 281 162 412 162 c 0
 543 162 650 268 650 399 c 0
 650 416 649 434 645 450 c 1
 180 450 l 1
EndSplineSet
Validated: 1
MultipleSubs2: "CCMP cartouches" t.lawa cart.body
Ligature2: "LIGA basics" l a w a
EndChar

StartChar: t.len
Encoding: 105 989477 39
GlifName: t.len
Width: 1000
GlyphClass: 1
Flags: W
HStem: 250 100<300 450 550 700> 650 100<300 700>
VStem: 200 100<50 250 350 650> 450 100<50 250> 700 100<50 250 350 650>
CounterMasks: 1 38
LayerCount: 2
Fore
SplineSet
200 750 m 1
 300 750 l 1
 700 750 l 1
 800 750 l 1
 800 50 l 1
 700 50 l 1
 700 250 l 1
 550 250 l 1
 550 50 l 1
 450 50 l 1
 450 250 l 1
 300 250 l 1
 300 50 l 1
 200 50 l 1
 200 750 l 1
300 650 m 1
 300 350 l 1
 700 350 l 1
 700 650 l 1
 300 650 l 1
EndSplineSet
Validated: 1
MultipleSubs2: "CCMP cartouches" t.len cart.body
Ligature2: "LIGA basics" l e n
EndChar

StartChar: t.lete
Encoding: 106 989478 40
GlifName: t.lete
Width: 1000
GlyphClass: 1
Flags: W
HStem: 350 100<150 413 587 850>
LayerCount: 2
Fore
SplineSet
368 72 m 1
 282 122 l 1
 413 350 l 1
 150 350 l 1
 150 450 l 1
 413 450 l 1
 282 678 l 1
 368 728 l 1
 500 500 l 1
 632 728 l 1
 718 678 l 1
 587 450 l 1
 850 450 l 1
 850 350 l 1
 587 350 l 1
 718 122 l 1
 632 72 l 1
 500 300 l 1
 368 72 l 1
EndSplineSet
Validated: 1
MultipleSubs2: "CCMP cartouches" t.lete cart.body
Ligature2: "LIGA basics" l e t e
EndChar

StartChar: t.li
Encoding: 107 989479 41
GlifName: t.li
Width: 1000
GlyphClass: 1
Flags: W
LayerCount: 2
Fore
SplineSet
335 781 m 1
 811 400 l 1
 335 19 l 1
 275 93 l 1
 658 400 l 1
 275 707 l 1
 335 781 l 1
EndSplineSet
Validated: 1
MultipleSubs2: "CCMP cartouches" t.li cart.body
Ligature2: "LIGA basics" l i
EndChar

StartChar: t.lili
Encoding: 108 989480 42
GlifName: t.lili
Width: 1000
GlyphClass: 1
Flags: W
LayerCount: 2
Fore
SplineSet
355 560 m 1
 500 350 l 1
 645 560 l 1
 725 500 l 1
 500 200 l 1
 275 500 l 1
 355 560 l 1
EndSplineSet
Validated: 1
MultipleSubs2: "CCMP cartouches" t.lili cart.body
Ligature2: "LIGA basics" l i l i
EndChar

StartChar: t.linja
Encoding: 109 989481 43
GlifName: t.linja
Width: 1000
GlyphClass: 1
Flags: W
HStem: 256 100<265.553 411.639> 444 100<588.97 735.254>
VStem: 100 100<423.391 494> 800 100<306 376.609>
LayerCount: 2
Fore
SplineSet
100 494 m 1
 200 494 l 1
 200 418 262 356 338 356 c 0
 387 356 432 382 457 425 c 0
 499 499 578 544 663 544 c 0
 794 544 900 437 900 306 c 1
 800 306 l 1
 800 382 739 444 663 444 c 0
 614 444 568 418 543 375 c 0
 501 301 423 256 338 256 c 0
 207 256 100 363 100 494 c 1
EndSplineSet
Validated: 1
MultipleSubs2: "CCMP cartouches" t.linja cart.body
Ligature2: "LIGA basics" l i n j a
EndChar

StartChar: t.lipu
Encoding: 110 989482 44
GlifName: t.lipu
Width: 1000
GlyphClass: 1
Flags: W
HStem: 0 100<300 700> 700 100<300 700>
VStem: 200 100<100 700> 700 100<100 700>
LayerCount: 2
Fore
SplineSet
200 800 m 1
 800 800 l 1
 800 0 l 1
 200 0 l 1
 200 800 l 1
300 700 m 1
 300 100 l 1
 700 100 l 1
 700 700 l 1
 300 700 l 1
EndSplineSet
Validated: 1
MultipleSubs2: "CCMP cartouches" t.lipu cart.body
Ligature2: "LIGA basics" l i p u
EndChar

StartChar: t.loje
Encoding: 111 989483 45
GlifName: t.loje
Width: 1000
GlyphClass: 1
Flags: W
HStem: 0 100<377 623> 700 100<288 688>
VStem: 188 100<612.342 700> 688 100<610.795 700>
LayerCount: 2
Fore
SplineSet
188 800 m 1
 788 800 l 1
 788 700 l 2
 788 558 688 439 555 408 c 1
 800 0 l 1
 200 0 l 1
 442 403 l 1
 298 425 188 550 188 700 c 2
 188 800 l 1
288 700 m 1
 288 590 378 500 488 500 c 0
 598 500 688 590 688 700 c 1
 288 700 l 1
500 306 m 1
 377 100 l 1
 623 100 l 1
 500 306 l 1
EndSplineSet
Validated: 1
MultipleSubs2: "CCMP cartouches" t.loje cart.body
Ligature2: "LIGA basics" l o j e
EndChar

StartChar: t.lon
Encoding: 112 989484 46
GlifName: t.lon
Width: 1000
GlyphClass: 1
Flags: W
HStem: 200 100<150 850> 425 150<448.417 551.583>
VStem: 425 150<448.417 551.583>
LayerCount: 2
Fore
SplineSet
150 200 m 1
 150 300 l 1
 850 300 l 1
 850 200 l 1
 150 200 l 1
425 500 m 0
 425 541 459 575 500 575 c 0
 541 575 575 541 575 500 c 0
 575 459 541 425 500 425 c 0
 459 425 425 459 425 500 c 0
EndSplineSet
Validated: 1
MultipleSubs2: "CCMP cartouches" t.lon cart.body
Ligature2: "LIGA basics" l o n
EndChar

StartChar: t.luka
Encoding: 113 989485 47
GlifName: t.luka
Width: 1000
GlyphClass: 1
Flags: W
HStem: 0 21G<311 425 725 825> 713 99<498.917 651.083>
VStem: 325 100<174 636.316> 725 100<0 636.316>
LayerCount: 2
Fore
SplineSet
575 812 m 0
 713 812 825 700 825 562 c 2
 825 0 l 1
 725 0 l 1
 725 562 l 2
 725 645 658 713 575 713 c 0
 492 713 425 645 425 562 c 2
 425 0 l 1
 325 0 l 1
 150 250 l 1
 232 307 l 1
 325 174 l 1
 325 562 l 2
 325 700 437 812 575 812 c 0
EndSplineSet
Validated: 1
MultipleSubs2: "CCMP cartouches" t.luka cart.body
Ligature2: "LIGA basics" l u k a
EndChar

StartChar: t.lukin
Encoding: 114 989486 48
GlifName: t.lukin
Width: 1000
GlyphClass: 1
Flags: W
HStem: 169 100<378.105 621.895> 325 150<448.417 551.583> 531 100<378.105 621.895>
VStem: 425 150<348.417 451.583>
CounterMasks: 1 e0
LayerCount: 2
Fore
SplineSet
425 400 m 0
 425 441 459 475 500 475 c 0
 541 475 575 441 575 400 c 0
 575 359 541 325 500 325 c 0
 459 325 425 359 425 400 c 0
500 631 m 0
 631 631 749 576 833 489 c 0
 859 462 881 433 900 400 c 1
 881 367 859 338 833 311 c 0
 749 224 631 169 500 169 c 0
 369 169 251 224 167 311 c 0
 141 338 119 367 100 400 c 1
 119 433 141 462 167 489 c 0
 251 576 369 631 500 631 c 0
500 531 m 0
 388 531 288 480 222 400 c 1
 288 320 388 269 500 269 c 0
 612 269 712 320 778 400 c 1
 712 480 612 531 500 531 c 0
EndSplineSet
Validated: 1
MultipleSubs2: "CCMP cartouches" t.lukin cart.body
Ligature2: "LIGA basics" l u k i n
EndChar

StartChar: t.lupa
Encoding: 115 989487 49
GlifName: t.lupa
Width: 1000
GlyphClass: 1
Flags: W
HStem: -12 100<409.912 590.088> 780 20G<200 300 700 800> 780 20G<200 300 700 800>
VStem: 200 100<198.672 800> 700 100<198.672 800>
LayerCount: 2
Fore
SplineSet
500 -12 m 0xd8
 334 -12 200 122 200 288 c 2
 200 800 l 1
 300 800 l 1
 300 288 l 2
 300 178 390 88 500 88 c 0
 610 88 700 178 700 288 c 2
 700 800 l 1
 800 800 l 1
 800 288 l 2
 800 122 666 -12 500 -12 c 0xd8
EndSplineSet
Validated: 1
MultipleSubs2: "CCMP cartouches" t.lupa cart.body
Ligature2: "LIGA basics" l u p a
EndChar

StartChar: t.ma
Encoding: 116 989488 50
GlifName: t.ma
Width: 1000
GlyphClass: 1
Flags: W
HStem: -13 105<378.973 450 550 621.027> 350 100<192 450 550 808> 708 105<378.973 450 550 621.027>
VStem: 87 105<278.973 350 450 521.027> 450 100<92 350 450 708> 808 104<278.973 350 450 521.027>
CounterMasks: 1 e0
LayerCount: 2
Fore
SplineSet
500 813 m 0
 728 813 912 628 912 400 c 0
 912 172 728 -13 500 -13 c 0
 272 -13 87 172 87 400 c 0
 87 628 272 813 500 813 c 0
450 708 m 1
 318 687 213 582 192 450 c 1
 450 450 l 1
 450 708 l 1
550 708 m 1
 550 450 l 1
 550 450 664 450 741 450 c 0
 779 450 808 450 808 450 c 1
 787 582 682 687 550 708 c 1
192 350 m 1
 213 218 318 113 450 92 c 1
 450 350 l 1
 192 350 l 1
550 350 m 1
 550 350 550 236 550 159 c 0
 550 121 550 92 550 92 c 1
 682 113 787 218 808 350 c 1
 550 350 l 1
EndSplineSet
Validated: 1
MultipleSubs2: "CCMP cartouches" t.ma cart.body
Ligature2: "LIGA basics" m a
EndChar

StartChar: t.mama
Encoding: 117 989489 51
GlifName: t.mama
Width: 1000
GlyphClass: 1
Flags: W
HStem: -25 100<445.797 554.203> 238 87<445.432 554.568> 725 100<409.912 590.088>
VStem: 200 100<436.439 615.088> 319 100<101.797 211.29> 581 100<101.797 211.29> 700 100<436.439 615.088>
LayerCount: 2
Fore
SplineSet
500 825 m 1
 666 825 800 691 800 525 c 0
 800 412 738 314 646 263 c 1
 668 233 681 196 681 156 c 0
 681 56 600 -25 500 -25 c 0
 400 -25 319 56 319 156 c 0
 319 196 332 233 354 263 c 1
 262 314 200 412 200 525 c 0
 200 691 334 825 500 825 c 1
500 725 m 0
 390 725 300 635 300 525 c 0
 300 415 390 325 500 325 c 0
 610 325 700 415 700 525 c 0
 700 635 610 725 500 725 c 0
500 238 m 0
 455 238 419 201 419 156 c 0
 419 111 455 75 500 75 c 0
 545 75 581 111 581 156 c 0
 581 201 545 238 500 238 c 0
EndSplineSet
Validated: 5
MultipleSubs2: "CCMP cartouches" t.mama cart.body
Ligature2: "LIGA basics" m a m a
EndChar

StartChar: t.mani
Encoding: 118 989490 52
GlifName: t.mani
Width: 1000
GlyphClass: 1
Flags: W
HStem: 25 100<409.912 590.088> 525 100<410.117 589.883>
VStem: 150 100<600.795 700> 200 100<234.912 414.837> 700 100<234.912 414.837> 750 100<600.795 700>
LayerCount: 2
Fore
SplineSet
500 525 m 0xd8
 390 525 300 435 300 325 c 0
 300 215 390 125 500 125 c 0
 610 125 700 215 700 325 c 0
 700 435 610 525 500 525 c 0xd8
750 700 m 1xe4
 850 700 l 1xe4
 850 612 817 531 763 469 c 1
 787 426 800 377 800 325 c 0
 800 159 666 25 500 25 c 0
 334 25 200 159 200 325 c 0xd8
 200 377 213 426 237 469 c 1
 183 531 150 612 150 700 c 1
 150 700 194 700 224 700 c 0
 239 700 250 700 250 700 c 1
 250 643 269 591 301 549 c 1
 354 596 424 625 500 625 c 0
 576 625 646 596 699 549 c 1
 731 591 750 643 750 700 c 1xe4
EndSplineSet
Validated: 1
MultipleSubs2: "CCMP cartouches" t.mani cart.body
Ligature2: "LIGA basics" m a n i
EndChar

StartChar: t.meli
Encoding: 119 989491 53
GlifName: t.meli
Width: 1000
GlyphClass: 1
Flags: W
HStem: 88 100<300 450 550 700> 305 95<420.201 450 550 579.799> 750 100<417.304 582.696>
VStem: 225 100<491.371 657.696> 450 100<-50 88 188 308.955> 675 100<491.371 657.696>
CounterMasks: 1 1c
LayerCount: 2
Fore
SplineSet
500 850 m 0
 652 850 775 727 775 575 c 0
 775 442 680 329 550 305 c 1
 550 188 l 1
 700 188 l 1
 700 88 l 1
 550 88 l 1
 550 -50 l 1
 450 -50 l 1
 450 88 l 1
 300 88 l 1
 300 188 l 1
 450 188 l 1
 450 305 l 1
 320 329 225 442 225 575 c 0
 225 727 348 850 500 850 c 0
500 750 m 0
 403 750 325 672 325 575 c 0
 325 478 403 400 500 400 c 0
 597 400 675 478 675 575 c 0
 675 672 597 750 500 750 c 0
EndSplineSet
Validated: 1
MultipleSubs2: "CCMP cartouches" t.meli cart.body
Ligature2: "LIGA basics" m e l i
EndChar

StartChar: t.mi
Encoding: 120 989492 54
GlifName: t.mi
Width: 1000
GlyphClass: 1
Flags: W
HStem: -13 21G<450 550.378> 350 100<430.143 568.342> 700 100<431.658 568.342>
VStem: 275 100<508.845 643.342> 625 100<506.658 643.342>
LayerCount: 2
Fore
SplineSet
725 575 m 0
 725 451 624 350 500 350 c 0
 466 350 434 358 405 371 c 1
 441 253 508 146 600 61 c 1
 532 -13 l 1
 368 138 275 352 275 575 c 0
 275 699 376 800 500 800 c 0
 624 800 725 699 725 575 c 0
625 575 m 0
 625 644 569 700 500 700 c 0
 431 700 375 644 375 575 c 0
 375 506 431 450 500 450 c 0
 569 450 625 506 625 575 c 0
EndSplineSet
Validated: 1
MultipleSubs2: "CCMP cartouches" t.mi cart.body
Ligature2: "LIGA basics" m i
EndChar

StartChar: t.mije
Encoding: 121 989493 55
GlifName: t.mije
Width: 1000
GlyphClass: 1
Flags: W
HStem: 0 100<292.304 457.696> 450 100<292.304 458.889> 700 100<550 738>
VStem: 100 100<192.304 357.696> 550 100<192.304 358.889> 800 100<450 638>
LayerCount: 2
Fore
SplineSet
550 800 m 1
 900 800 l 1
 900 450 l 1
 800 450 l 1
 800 638 l 1
 602 431 l 1
 633 385 650 331 650 275 c 0
 650 123 527 0 375 0 c 0
 223 0 100 123 100 275 c 0
 100 427 223 550 375 550 c 0
 431 550 485 533 531 502 c 1
 738 700 l 1
 550 700 l 1
 550 800 l 1
375 450 m 0
 278 450 200 372 200 275 c 0
 200 178 278 100 375 100 c 0
 472 100 550 178 550 275 c 0
 550 372 472 450 375 450 c 0
EndSplineSet
Validated: 1
MultipleSubs2: "CCMP cartouches" t.mije cart.body
Ligature2: "LIGA basics" m i j e
EndChar

StartChar: t.moku
Encoding: 122 989494 56
GlifName: t.moku
Width: 1000
GlyphClass: 1
Flags: W
HStem: 0 21G<285 400 700 800> 350 150<472.344 627.656> 700 100<350 750>
VStem: 250 100<610.156 700> 300 100<167 277.85> 700 100<0 277.85> 750 100<610.156 700>
LayerCount: 2
Fore
SplineSet
250 800 m 1xf0
 850 800 l 1
 850 700 l 2xf2
 850 575 773 467 664 422 c 1
 745 381 800 297 800 200 c 2
 800 0 l 1
 700 0 l 1
 700 200 l 2
 700 283 633 350 550 350 c 0
 467 350 400 283 400 200 c 2
 400 0 l 1
 300 0 l 1
 150 200 l 1
 230 260 l 1
 300 167 l 1
 300 200 l 2xec
 300 297 355 381 436 422 c 1
 327 467 250 575 250 700 c 2
 250 800 l 1xf0
350 700 m 1
 350 590 440 500 550 500 c 0
 660 500 750 590 750 700 c 1
 350 700 l 1
EndSplineSet
Validated: 1
MultipleSubs2: "CCMP cartouches" t.moku cart.body
Ligature2: "LIGA basics" m o k u
EndChar

StartChar: t.moli
Encoding: 123 989495 57
GlifName: t.moli
Width: 1000
GlyphClass: 1
Flags: W
HStem: 119 95<291.863 349.771 650.229 708.137> 150 100<328.222 671.778>
LayerCount: 2
Fore
SplineSet
98 656 m 1x00
 169 727 l 1
 275 621 l 1
 381 727 l 1
 452 656 l 1
 346 550 l 1
 452 444 l 1
 381 373 l 1
 275 479 l 1
 169 373 l 1
 98 444 l 1
 204 550 l 1
 98 656 l 1x00
548 656 m 1
 619 727 l 1
 725 621 l 1
 831 727 l 1
 902 656 l 1
 796 550 l 1
 902 444 l 1
 831 373 l 1
 725 479 l 1
 619 373 l 1
 548 444 l 1
 654 550 l 1
 548 656 l 1
500 250 m 2x40
 582 250 661 237 735 214 c 1
 706 119 l 1x80
 641 139 572 150 500 150 c 0x40
 428 150 359 139 294 119 c 1
 265 214 l 1x80
 339 237 418 250 500 250 c 2x40
EndSplineSet
Validated: 5
MultipleSubs2: "CCMP cartouches" t.moli cart.body
Ligature2: "LIGA basics" m o l i
EndChar

StartChar: t.monsi
Encoding: 124 989496 58
GlifName: t.monsi
Width: 1000
GlyphClass: 1
Flags: W
HStem: 0 100<550 750> 325 150<248.417 351.583> 700 100<550 750>
VStem: 225 150<348.417 451.583> 450 300<0 100 700 800> 450 100<100 700>
CounterMasks: 1 e0
LayerCount: 2
Fore
SplineSet
750 800 m 1xf8
 750 700 l 1xf8
 550 700 l 1
 550 100 l 1xf4
 750 100 l 1
 750 0 l 1
 450 0 l 1
 450 800 l 1
 750 800 l 1xf8
225 400 m 0
 225 441 259 475 300 475 c 0
 341 475 375 441 375 400 c 0
 375 359 341 325 300 325 c 0
 259 325 225 359 225 400 c 0
EndSplineSet
Validated: 1
MultipleSubs2: "CCMP cartouches" t.monsi cart.body
Ligature2: "LIGA basics" m o n s i
EndChar

StartChar: t.mu
Encoding: 125 989497 59
GlifName: t.mu
Width: 1000
GlyphClass: 1
Flags: W
HStem: -25 100<404.976 595.024> 150 150<448.417 551.583> 550 100<475.08 524.92> 725 100<214.527 335.458 664.542 785.473>
VStem: 75 100<563.633 685.473> 162 100<217.976 410.939> 425 150<173.417 276.583> 738 100<217.976 410.939> 825 100<563.633 685.473>
LayerCount: 2
Fore
SplineSet
500 300 m 0xf2
 541 300 575 266 575 225 c 0
 575 184 541 150 500 150 c 0
 459 150 425 184 425 225 c 0
 425 266 459 300 500 300 c 0xf2
500 550 m 0
 369 550 262 444 262 313 c 0
 262 182 369 75 500 75 c 0
 631 75 738 182 738 313 c 0xf7
 738 444 631 550 500 550 c 0
725 725 m 0
 670 725 626 681 625 626 c 1
 677 605 722 572 758 530 c 1
 797 544 825 581 825 625 c 0xf280
 825 680 780 725 725 725 c 0
275 725 m 0
 220 725 175 680 175 625 c 0xfa
 175 581 203 544 242 530 c 1
 278 572 323 605 375 626 c 1
 374 681 330 725 275 725 c 0
275 825 m 0
 377 825 462 748 474 649 c 1
 483 650 491 650 500 650 c 0
 509 650 517 650 526 649 c 1
 538 748 623 825 725 825 c 0
 835 825 925 735 925 625 c 0xfa80
 925 545 879 476 811 444 c 1
 828 404 838 360 838 313 c 0
 838 127 686 -25 500 -25 c 0
 314 -25 162 127 162 313 c 0xf7
 162 360 172 404 189 444 c 1
 121 476 75 545 75 625 c 0
 75 735 165 825 275 825 c 0
EndSplineSet
Validated: 1
LCarets2: 1 0
MultipleSubs2: "CCMP cartouches" t.mu cart.body
Ligature2: "LIGA basics" m u
EndChar

StartChar: t.mun
Encoding: 126 989498 60
GlifName: t.mun
Width: 1000
GlyphClass: 1
Flags: W
HStem: -25 100<372.844 601.898> 725 100<372.844 601.898>
VStem: 438 100<309.813 490.187> 812 100<286.002 513.998>
LayerCount: 2
Fore
SplineSet
488 825 m 0
 723 825 912 635 912 400 c 0
 912 165 723 -25 488 -25 c 0
 368 -25 258 25 181 105 c 0
 135 152 101 211 81 275 c 1
 116 231 170 202 231 200 c 0
 233 200 236 200 238 200 c 0
 348 200 438 290 438 400 c 0
 438 510 348 600 238 600 c 0
 236 600 233 600 231 600 c 0
 170 598 116 569 81 525 c 1
 101 589 135 648 181 695 c 0
 258 775 368 825 488 825 c 0
488 725 m 0
 432 725 377 710 331 685 c 1
 451 646 538 533 538 400 c 0
 538 267 451 154 331 115 c 1
 377 90 432 75 488 75 c 0
 667 75 812 221 812 400 c 0
 812 579 667 725 488 725 c 0
EndSplineSet
Validated: 1
MultipleSubs2: "CCMP cartouches" t.mun cart.body
Ligature2: "LIGA basics" m u n
EndChar

StartChar: t.musi
Encoding: 127 989499 61
GlifName: t.musi
Width: 1000
GlyphClass: 1
Flags: W
HStem: -50 100<395.142 604.858> 450 100<247.429 308.491 691.509 752.571> 750 100<189.527 310.473 689.527 810.473>
VStem: 50 100<588.548 710.473> 125 100<220.142 432.336> 350 100<589.884 710.473> 550 100<589.841 710.473> 775 100<220.142 432.336> 850 100<588.548 710.473>
LayerCount: 2
Fore
SplineSet
250 850 m 2xf6
 360 850 450 760 450 650 c 0
 450 541 363 454 255 450 c 1
 236 413 225 370 225 325 c 0
 225 173 348 50 500 50 c 0
 652 50 775 173 775 325 c 0xef
 775 370 764 413 745 450 c 1
 637 453 550 541 550 650 c 0
 550 760 640 850 750 850 c 0
 860 850 950 760 950 650 c 0xe680
 950 574 907 508 844 474 c 1
 864 429 875 378 875 325 c 2
 875 118 707 -50 500 -50 c 0
 293 -50 125 118 125 325 c 0xef
 125 378 136 429 156 474 c 1
 93 508 50 574 50 650 c 0
 50 760 140 850 250 850 c 2xf6
250 750 m 0
 195 750 150 705 150 650 c 0xf6
 150 595 195 550 250 550 c 0
 305 550 350 595 350 650 c 0
 350 705 305 750 250 750 c 0
750 750 m 0
 695 750 650 705 650 650 c 0
 650 595 695 550 750 550 c 0
 805 550 850 595 850 650 c 0xe680
 850 705 805 750 750 750 c 0
EndSplineSet
Validated: 5
MultipleSubs2: "CCMP cartouches" t.musi cart.body
Ligature2: "LIGA basics" m u s i
EndChar

StartChar: t.mute
Encoding: 128 989500 62
GlifName: t.mute
Width: 1000
GlyphClass: 1
Flags: W
HStem: -0 21G<225 325 450 550 675 775> 780 20G<225 325 450 550 675 775> 780 20G<225 325 450 550 675 775>
VStem: 225 100<0 800> 450 100<0 800> 675 100<0 800>
CounterMasks: 1 1c
LayerCount: 2
Fore
SplineSet
450 -0 m 1xdc
 450 800 l 1
 550 800 l 1
 550 -0 l 1
 450 -0 l 1xdc
225 -0 m 1
 225 800 l 1
 325 800 l 1
 325 -0 l 1
 225 -0 l 1
675 0 m 1
 675 800 l 1
 775 800 l 1
 775 0 l 1
 675 0 l 1
EndSplineSet
Validated: 1
MultipleSubs2: "CCMP cartouches" t.mute cart.body
Ligature2: "LIGA basics" m u t e
EndChar

StartChar: t.nanpa
Encoding: 129 989501 63
GlifName: t.nanpa
Width: 1000
GlyphClass: 1
Flags: W
HStem: 0 21G<300 400 600 700> 200 100<100 300 400 600 700 900> 500 100<100 300 400 600 700 900> 780 20G<300 400 600 700> 780 20G<300 400 600 700>
VStem: 300 100<0 200 300 500 600 800> 600 100<0 200 300 500 600 800>
LayerCount: 2
Fore
SplineSet
600 500 m 1xe6
 400 500 l 1
 400 300 l 1
 600 300 l 1
 600 500 l 1xe6
700 600 m 1
 900 600 l 1
 900 500 l 1
 700 500 l 1
 700 300 l 1
 900 300 l 1
 900 200 l 1
 700 200 l 1
 700 0 l 1
 600 0 l 1
 600 200 l 1
 400 200 l 1
 400 0 l 1
 300 0 l 1
 300 200 l 1
 100 200 l 1
 100 300 l 1
 300 300 l 1
 300 500 l 1
 100 500 l 1
 100 600 l 1
 300 600 l 1
 300 800 l 1
 400 800 l 1
 400 600 l 1
 600 600 l 1
 600 800 l 1
 700 800 l 1xf6
 700 600 l 1
EndSplineSet
Validated: 1
MultipleSubs2: "CCMP cartouches" t.nanpa cart.body
Ligature2: "LIGA basics" n a n p a
EndChar

StartChar: t.nasa
Encoding: 130 989502 64
GlifName: t.nasa
Width: 1000
GlyphClass: 1
Flags: W
HStem: -0 21G<236.5 315> 100 100<509.912 690.088> 500 100<439.527 560.473> 700 100<390.166 609.834>
VStem: 100 100<272.681 509.834> 300 100<309.912 460.473> 600 100<337.428 460.473> 800 100<309.912 509.834>
LayerCount: 2
Fore
SplineSet
900 400 m 0
 900 234 766 100 600 100 c 0
 434 100 300 234 300 400 c 0
 300 510 390 600 500 600 c 0
 610 600 700 510 700 400 c 0
 700 347 679 297 641 259 c 1
 571 329 l 1
 590 348 600 373 600 400 c 0
 600 455 555 500 500 500 c 0
 445 500 400 455 400 400 c 0
 400 290 490 200 600 200 c 0
 710 200 800 290 800 400 c 0
 800 566 666 700 500 700 c 0
 334 700 200 566 200 400 c 0
 200 274 259 156 360 80 c 1
 300 -0 l 1
 173 95 100 244 100 400 c 0
 100 621 279 800 500 800 c 0
 721 800 900 621 900 400 c 0
EndSplineSet
Validated: 1
MultipleSubs2: "CCMP cartouches" t.nasa cart.body
Ligature2: "LIGA basics" n a s a
EndChar

StartChar: t.nasin
Encoding: 131 989503 65
GlifName: t.nasin
Width: 1000
GlyphClass: 1
Flags: W
HStem: 0 21G<450 550> 780 20G<450 550> 780 20G<450 550>
VStem: 450 100<0 463 600 800>
LayerCount: 2
Fore
SplineSet
450 800 m 1xd0
 550 800 l 1
 550 600 l 1
 825 325 l 1
 750 250 l 1
 550 463 l 1
 550 0 l 1
 450 0 l 1
 450 463 l 1
 250 250 l 1
 175 325 l 1
 450 600 l 1
 450 800 l 1xd0
EndSplineSet
Validated: 1
MultipleSubs2: "CCMP cartouches" t.nasin cart.body
Ligature2: "LIGA basics" n a s i n
EndChar

StartChar: t.nena
Encoding: 132 989504 66
GlifName: t.nena
Width: 1000
GlyphClass: 1
Flags: W
HStem: -0 21G<200 300 700 800> 700 100<409.912 590.088>
VStem: 200 100<0 589.328> 700 100<0 589.328>
LayerCount: 2
Fore
SplineSet
500 800 m 0
 666 800 800 666 800 500 c 2
 800 -0 l 1
 700 -0 l 1
 700 500 l 2
 700 610 610 700 500 700 c 0
 390 700 300 610 300 500 c 2
 300 -0 l 1
 200 -0 l 1
 200 500 l 2
 200 666 334 800 500 800 c 0
EndSplineSet
Validated: 1
MultipleSubs2: "CCMP cartouches" t.nena cart.body
Ligature2: "LIGA basics" n e n a
EndChar

StartChar: t.ni
Encoding: 133 989505 67
GlifName: t.ni
Width: 1000
GlyphClass: 1
Flags: W
HStem: -12 21G<480 520> 780 20G<450 550> 780 20G<450 550>
VStem: 450 100<175 800>
LayerCount: 2
Fore
SplineSet
450 800 m 1xd0
 550 800 l 1
 550 175 l 1
 750 388 l 1
 825 313 l 1
 500 -12 l 1
 175 313 l 1
 250 388 l 1
 450 175 l 1
 450 800 l 1xd0
EndSplineSet
Validated: 1
MultipleSubs2: "CCMP cartouches" t.ni cart.body
Ligature2: "LIGA basics" n i
EndChar

StartChar: t.nimi
Encoding: 134 989506 68
GlifName: t.nimi
Width: 1000
GlyphClass: 1
Flags: W
HStem: 200 100<208.88 791.12> 500 100<208.88 791.12>
VStem: 100 100<308.88 491.12> 800 100<308.88 491.12>
LayerCount: 2
Fore
SplineSet
250 600 m 2
 750 600 l 2
 833 600 900 533 900 450 c 2
 900 350 l 2
 900 267 833 200 750 200 c 2
 250 200 l 2
 167 200 100 267 100 350 c 2
 100 450 l 2
 100 533 167 600 250 600 c 2
250 500 m 2
 222 500 200 478 200 450 c 2
 200 350 l 2
 200 322 222 300 250 300 c 2
 750 300 l 2
 778 300 800 322 800 350 c 2
 800 450 l 2
 800 478 778 500 750 500 c 2
 250 500 l 2
EndSplineSet
Validated: 1
MultipleSubs2: "CCMP cartouches" t.nimi cart.body
Ligature2: "LIGA basics" n i m i
EndChar

StartChar: t.noka
Encoding: 135 989507 69
GlifName: t.noka
Width: 1000
GlyphClass: 1
Flags: W
HStem: -0 100<300 691.81> 350 100<550 691.81> 780 20G<200 300 450 550> 780 20G<200 300 450 550>
VStem: 200 100<100 800> 450 100<450 800> 750 100<156.658 293.342>
LayerCount: 2
Fore
SplineSet
200 800 m 1xee
 300 800 l 1
 300 100 l 1
 625 100 l 2
 694 100 750 156 750 225 c 0
 750 294 694 350 625 350 c 2
 450 350 l 1
 450 800 l 1
 550 800 l 1
 550 450 l 1
 625 450 l 2
 749 450 850 349 850 225 c 0
 850 101 749 0 625 -0 c 2
 200 -0 l 1
 200 800 l 1xee
EndSplineSet
Validated: 1
MultipleSubs2: "CCMP cartouches" t.noka cart.body
Ligature2: "LIGA basics" n o k a
EndChar

StartChar: t.o
Encoding: 136 989508 70
GlifName: t.o
Width: 1000
GlyphClass: 1
Flags: W
HStem: -12 100<439.527 560.473> 288 100<439.527 560.473> 780 20G<450 550> 780 20G<450 550>
VStem: 300 100<127.527 248.473> 450 100<475 800> 600 100<127.527 248.473>
CounterMasks: 1 0e
LayerCount: 2
Fore
SplineSet
450 475 m 1xee
 450 800 l 1
 550 800 l 1
 550 475 l 1
 450 475 l 1xee
500 388 m 0
 610 388 700 298 700 188 c 0
 700 78 610 -12 500 -12 c 0
 390 -12 300 78 300 188 c 0
 300 298 390 388 500 388 c 0
500 288 m 0
 445 288 400 243 400 188 c 0
 400 133 445 88 500 88 c 0
 555 88 600 133 600 188 c 0
 600 243 555 288 500 288 c 0
EndSplineSet
Validated: 1
MultipleSubs2: "CCMP cartouches" t.o cart.body
Ligature2: "LIGA basics" o
EndChar

StartChar: t.olin
Encoding: 137 989509 71
GlifName: t.olin
Width: 1000
GlyphClass: 1
Flags: W
HStem: 450 100<312.873 407.841 592.159 687.149> 762 100<289.341 407.841 591.025 710.659>
VStem: 150 100<287.978 411.483 599.791 722.659> 750 100<287.978 411.483 600.179 722.851>
LayerCount: 2
Fore
SplineSet
350 862 m 0
 409 862 464 817 500 775 c 1
 538 817 591 862 650 862 c 0
 761 862 850 773 850 662 c 0
 850 604 827 554 786 516 c 2
 775 506 l 1
 820 468 850 412 850 350 c 0
 850 292 825 241 786 203 c 2
 500 -62 l 1
 214 203 l 2
 175 241 150 292 150 350 c 0
 150 412 180 468 225 506 c 1
 214 516 l 2
 175 554 150 604 150 662 c 0
 150 773 239 862 350 862 c 0
350 762 m 0
 295 762 250 717 250 662 c 0
 250 632 262 608 281 589 c 2
 325 548 l 1
 334 550 342 550 350 550 c 0
 409 550 464 504 500 462 c 1
 536 504 591 550 650 550 c 0
 658 550 667 550 675 549 c 2
 675 548 l 1
 718 589 l 2
 738 607 750 634 750 662 c 0
 750 717 705 763 650 763 c 0
 595 763 525 688 500 638 c 1
 475 688 405 762 350 762 c 0
350 450 m 0
 295 450 250 405 250 350 c 0
 250 321 262 295 282 277 c 2
 500 74 l 1
 718 277 l 2
 738 295 750 321 750 350 c 0
 750 405 705 450 650 450 c 0
 595 450 525 375 500 325 c 1
 475 375 405 450 350 450 c 0
EndSplineSet
Validated: 1
MultipleSubs2: "CCMP cartouches" t.olin cart.body
LCarets2: 3 0 0 0
Ligature2: "LIGA basics" o l i n
EndChar

StartChar: t.ona
Encoding: 138 989510 72
GlifName: t.ona
Width: 1000
GlyphClass: 1
Flags: W
HStem: 175 100<620.857 755.5> 525 100<618.658 755.5>
VStem: 462 100<330.143 468.342> 813 99<331.658 468.342>
LayerCount: 2
Fore
SplineSet
687 625 m 0
 811 625 912 524 912 400 c 0
 912 276 811 175 687 175 c 0
 464 175 251 268 100 432 c 1
 173 500 l 1
 258 408 365 341 483 305 c 1
 470 334 462 366 462 400 c 0
 462 524 563 625 687 625 c 0
687 525 m 0
 618 525 562 469 562 400 c 0
 562 331 618 275 687 275 c 0
 756 275 813 331 813 400 c 0
 813 469 756 525 687 525 c 0
EndSplineSet
Validated: 1
MultipleSubs2: "CCMP cartouches" t.ona cart.body
Ligature2: "LIGA basics" o n a
EndChar

StartChar: t.open
Encoding: 139 989511 73
GlifName: t.open
Width: 1000
GlyphClass: 1
Flags: W
HStem: 0 100<300 700> 250 100<300 700> 780 20G<200 300 700 800> 780 20G<200 300 700 800>
VStem: 200 100<100 250 350 800> 700 100<100 250 350 800>
LayerCount: 2
Fore
SplineSet
300 250 m 1xcc
 300 100 l 1
 700 100 l 1
 700 250 l 1
 300 250 l 1xcc
200 800 m 1xec
 300 800 l 1
 300 350 l 1
 700 350 l 1
 700 800 l 1
 800 800 l 1
 800 0 l 1
 200 0 l 1
 200 800 l 1xec
EndSplineSet
Validated: 1
MultipleSubs2: "CCMP cartouches" t.open cart.body
Ligature2: "LIGA basics" o p e n
EndChar

StartChar: t.pakala
Encoding: 140 989512 74
GlifName: t.pakala
Width: 1000
GlyphClass: 1
Flags: W
HStem: -0 100<250 385 500 750> 350 100<472 528> 700 100<250 500 615 750>
VStem: 150 100<100 700> 750 100<100 700>
CounterMasks: 1 e0
LayerCount: 2
Fore
SplineSet
150 800 m 1
 850 800 l 1
 850 -0 l 1
 150 -0 l 1
 150 800 l 1
250 700 m 1
 250 100 l 1
 385 100 l 1
 528 350 l 1
 300 350 l 1
 500 700 l 1
 250 700 l 1
615 700 m 1
 472 450 l 1
 700 450 l 1
 500 100 l 1
 750 100 l 1
 750 700 l 1
 615 700 l 1
EndSplineSet
Validated: 1
MultipleSubs2: "CCMP cartouches" t.pakala cart.body
Ligature2: "LIGA basics" p a k a l a
EndChar

StartChar: t.pali
Encoding: 141 989513 75
GlifName: t.pali
Width: 1000
GlyphClass: 1
Flags: W
HStem: 0 21G<285 400 700 800> 350 125<481.643 618.357> 725 100<481.658 618.342>
VStem: 300 100<167 277.484> 325 100<530.679 668.342> 675 100<530.679 668.342> 700 100<0 277.484>
LayerCount: 2
Fore
SplineSet
550 825 m 0xe8
 674 825 775 724 775 600 c 0xec
 775 523 737 456 678 415 c 1
 751 371 800 291 800 200 c 2
 800 0 l 1
 700 0 l 1
 700 200 l 2
 700 283 633 350 550 350 c 0
 467 350 400 283 400 200 c 2
 400 0 l 1
 300 0 l 1
 150 200 l 1
 230 260 l 1
 300 167 l 1
 300 200 l 2xf2
 300 291 349 371 422 415 c 1
 363 456 325 523 325 600 c 0
 325 724 426 825 550 825 c 0xe8
550 725 m 0
 481 725 425 669 425 600 c 0
 425 531 481 475 550 475 c 0
 619 475 675 531 675 600 c 0
 675 669 619 725 550 725 c 0
EndSplineSet
Validated: 1
MultipleSubs2: "CCMP cartouches" t.pali cart.body
Ligature2: "LIGA basics" p a l i
EndChar

StartChar: t.palisa
Encoding: 142 989514 76
GlifName: t.palisa
Width: 1000
GlyphClass: 1
Flags: W
HStem: -12 100<458.659 541.341> 712 101<458.659 541.341>
VStem: 350 100<96.88 703.198> 550 100<96.88 703.198>
LayerCount: 2
Fore
SplineSet
500 813 m 0
 583 813 650 745 650 662 c 2
 650 138 l 2
 650 55 583 -12 500 -12 c 0
 417 -12 350 55 350 138 c 2
 350 662 l 2
 350 745 417 813 500 813 c 0
500 712 m 0
 472 712 450 690 450 662 c 2
 450 138 l 2
 450 110 472 88 500 88 c 0
 528 88 550 110 550 138 c 2
 550 662 l 2
 550 690 528 712 500 712 c 0
EndSplineSet
Validated: 1
MultipleSubs2: "CCMP cartouches" t.palisa cart.body
Ligature2: "LIGA basics" p a l i s a
EndChar

StartChar: t.pan
Encoding: 143 989515 77
GlifName: t.pan
Width: 1000
GlyphClass: 1
Flags: W
LayerCount: 2
Fore
SplineSet
355 322 m 1
 500 112 l 1
 645 322 l 1
 725 262 l 1
 500 -38 l 1
 275 262 l 1
 355 322 l 1
355 572 m 1
 500 363 l 1
 645 572 l 1
 725 513 l 1
 500 212 l 1
 275 513 l 1
 355 572 l 1
355 822 m 1
 500 613 l 1
 645 822 l 1
 725 762 l 1
 500 462 l 1
 275 762 l 1
 355 822 l 1
EndSplineSet
Validated: 1
MultipleSubs2: "CCMP cartouches" t.pan cart.body
Ligature2: "LIGA basics" p a n
EndChar

StartChar: t.pana
Encoding: 144 989516 78
GlifName: t.pana
Width: 1000
GlyphClass: 1
Flags: W
HStem: 0 21G<285 400 700 800> 400 100<473.917 626.083>
VStem: 300 100<167 324.316> 500 100<600 825> 700 100<0 324.316>
CounterMasks: 1 38
LayerCount: 2
Fore
SplineSet
500 825 m 1
 600 825 l 1
 600 600 l 1
 500 600 l 1
 500 825 l 1
761 785 m 1
 850 739 l 1
 745 540 l 1
 657 586 l 1
 761 785 l 1
339 785 m 1
 443 586 l 1
 355 540 l 1
 250 739 l 1
 339 785 l 1
550 500 m 0
 688 500 800 388 800 250 c 2
 800 0 l 1
 700 0 l 1
 700 250 l 2
 700 333 633 400 550 400 c 0
 467 400 400 333 400 250 c 2
 400 0 l 1
 300 0 l 1
 150 200 l 1
 230 260 l 1
 300 167 l 1
 300 250 l 2
 300 388 412 500 550 500 c 0
EndSplineSet
Validated: 1
MultipleSubs2: "CCMP cartouches" t.pana cart.body
Ligature2: "LIGA basics" p a n a
EndChar

StartChar: t.pi
Encoding: 145 989517 79
GlifName: t.pi
Width: 1000
GlyphClass: 1
Flags: W
HStem: 50 100<275 825>
VStem: 175 100<150 750>
LayerCount: 2
Fore
SplineSet
175 750 m 1
 275 750 l 1
 275 150 l 1
 825 150 l 1
 825 50 l 1
 175 50 l 1
 175 750 l 1
EndSplineSet
Validated: 1
MultipleSubs2: "CCMP cartouches" t.pi cart.body
Ligature2: "LIGA basics" p i
EndChar

StartChar: t.pilin
Encoding: 146 989518 80
GlifName: t.pilin
Width: 1000
GlyphClass: 1
Flags: W
HStem: -0 21G<483.853 516.147> 700 100<256.658 378.78 621.22 743.342>
VStem: 100 100<505.782 643.342> 800 100<505.782 643.342>
LayerCount: 2
Fore
SplineSet
325 800 m 0
 396 800 459 738 500 687 c 1
 541 738 604 800 675 800 c 0
 799 800 900 699 900 575 c 0
 900 525 883 476 852 436 c 2
 500 -0 l 1
 148 436 l 2
 117 476 100 525 100 575 c 0
 100 699 201 800 325 800 c 0
325 700 m 0
 256 700 200 644 200 575 c 0
 200 547 210 520 227 498 c 2
 500 149 l 1
 773 498 l 2
 790 520 800 547 800 575 c 0
 800 644 744 700 675 700 c 0
 606 700 525 575 500 525 c 1
 475 575 394 700 325 700 c 0
EndSplineSet
Validated: 1
MultipleSubs2: "CCMP cartouches" t.pilin cart.body
Ligature2: "LIGA basics" p i l i n
EndChar

StartChar: t.pimeja
Encoding: 147 989519 81
GlifName: t.pimeja
Width: 1000
GlyphClass: 1
Flags: W
HStem: -0 100<262 279 421 579 721 738> 780 20G<490 510> 780 20G<490 510>
LayerCount: 2
Fore
SplineSet
500 800 m 1xc0
 900 -0 l 1
 100 -0 l 1
 500 800 l 1xc0
500 576 m 1
 415 406 l 1
 500 321 l 1
 585 406 l 1
 500 576 l 1
632 312 m 1
 571 250 l 1
 721 100 l 1
 738 100 l 1
 632 312 l 1
368 312 m 1
 262 100 l 1
 279 100 l 1
 429 250 l 1
 368 312 l 1
500 179 m 1
 421 100 l 1
 579 100 l 1
 500 179 l 1
EndSplineSet
Validated: 1
MultipleSubs2: "CCMP cartouches" t.pimeja cart.body
Ligature2: "LIGA basics" p i m e j a
EndChar

StartChar: t.pini
Encoding: 148 989520 82
GlifName: t.pini
Width: 1000
GlyphClass: 1
Flags: W
HStem: 0 100<250 450 550 750> 700 100<250 450 550 750>
VStem: 450 100<100 700>
LayerCount: 2
Fore
SplineSet
250 800 m 1
 750 800 l 1
 750 700 l 1
 250 700 l 1
 250 800 l 1
450 700 m 1
 550 700 l 1
 550 100 l 1
 750 100 l 1
 750 0 l 1
 250 0 l 1
 250 100 l 1
 450 100 l 1
 450 700 l 1
EndSplineSet
Validated: 5
MultipleSubs2: "CCMP cartouches" t.pini cart.body
Ligature2: "LIGA basics" p i n i
EndChar

StartChar: t.pipi
Encoding: 149 989521 83
GlifName: t.pipi
Width: 1000
GlyphClass: 1
Flags: W
HStem: -0 21G<450 550> 100 100<250 450 550 750> 300 100<250 450 550 750> 500 100<250 450 550 750> 687 125<289.863 384.707 614.863 709.707>
VStem: 275 125<702.293 797.137> 450 100<0 100 200 300 400 500 600 700> 600 125<702.293 797.137>
CounterMasks: 1 07
LayerCount: 2
Fore
SplineSet
275 750 m 0
 275 785 302 812 337 812 c 0
 372 812 400 785 400 750 c 0
 400 715 372 687 337 687 c 0
 302 687 275 715 275 750 c 0
600 750 m 0
 600 785 627 812 662 812 c 0
 697 812 725 785 725 750 c 0
 725 715 697 687 662 687 c 0
 627 687 600 715 600 750 c 0
250 100 m 1
 250 200 l 1
 450 200 l 1
 450 300 l 1
 250 300 l 1
 250 400 l 1
 450 400 l 1
 450 500 l 1
 250 500 l 1
 250 600 l 1
 450 600 l 1
 450 700 l 1
 550 700 l 1
 550 600 l 1
 750 600 l 1
 750 500 l 1
 550 500 l 1
 550 400 l 1
 750 400 l 1
 750 300 l 1
 550 300 l 1
 550 200 l 1
 750 200 l 1
 750 100 l 1
 550 100 l 1
 550 -0 l 1
 450 -0 l 1
 450 100 l 1
 250 100 l 1
EndSplineSet
Validated: 1
MultipleSubs2: "CCMP cartouches" t.pipi cart.body
Ligature2: "LIGA basics" p i p i
EndChar

StartChar: t.poka
Encoding: 150 989522 84
GlifName: t.poka
Width: 1000
GlyphClass: 1
Flags: W
HStem: 200 100<200 600> 325 150<798.417 901.583>
VStem: 100 100<300 600> 600 100<300 600> 775 150<348.417 451.583>
LayerCount: 2
Fore
SplineSet
100 600 m 1
 200 600 l 1
 200 300 l 1
 600 300 l 1
 600 600 l 1
 700 600 l 1
 700 200 l 1
 100 200 l 1
 100 600 l 1
775 400 m 0
 775 441 809 475 850 475 c 0
 891 475 925 441 925 400 c 0
 925 359 891 325 850 325 c 0
 809 325 775 359 775 400 c 0
EndSplineSet
Validated: 1
MultipleSubs2: "CCMP cartouches" t.poka cart.body
Ligature2: "LIGA basics" p o k a
EndChar

StartChar: t.poki
Encoding: 151 989523 85
GlifName: t.poki
Width: 1000
GlyphClass: 1
Flags: W
HStem: 0 100<300 700> 780 20G<200 300 700 800> 780 20G<200 300 700 800>
VStem: 200 100<100 800> 700 100<100 800>
LayerCount: 2
Fore
SplineSet
200 800 m 1xd8
 300 800 l 1
 300 100 l 1
 700 100 l 1
 700 800 l 1
 800 800 l 1
 800 0 l 1
 200 0 l 1
 200 800 l 1xd8
EndSplineSet
Validated: 1
MultipleSubs2: "CCMP cartouches" t.poki cart.body
Ligature2: "LIGA basics" p o k i
EndChar

StartChar: t.pona
Encoding: 152 989524 86
GlifName: t.pona
Width: 1000
GlyphClass: 1
Flags: W
HStem: 200 100<403.504 596.496>
VStem: 150 100<454.289 550> 750 100<454.289 550>
LayerCount: 2
Fore
SplineSet
500 200 m 0
 307 200 150 357 150 550 c 1
 150 550 161 550 176 550 c 0
 206 550 250 550 250 550 c 1
 250 412 362 300 500 300 c 0
 638 300 750 412 750 550 c 1
 750 550 761 550 776 550 c 0
 806 550 850 550 850 550 c 1
 850 357 693 200 500 200 c 0
EndSplineSet
Validated: 1
LCarets2: 3 0 0 0
MultipleSubs2: "CCMP cartouches" t.pona cart.body
Ligature2: "LIGA basics" p o n a
EndChar

StartChar: t.pu
Encoding: 153 989525 87
GlifName: t.pu
Width: 1000
GlyphClass: 1
Flags: W
HStem: 0 100<300 700> 175 75<448.39 551.61> 400 75<448.39 551.61> 538 124<462 537> 700 100<300 700>
VStem: 200 100<100 531 582 700> 350 75<273.39 376.61> 462 75<538 662> 575 75<273.39 376.61> 700 100<100 531 582 700>
LayerCount: 2
Fore
SplineSet
200 800 m 1
 800 800 l 1
 800 0 l 1
 200 0 l 1
 200 800 l 1
500 475 m 0
 583 475 650 408 650 325 c 0
 650 242 583 175 500 175 c 0
 417 175 350 242 350 325 c 0
 350 408 417 475 500 475 c 0
500 400 m 0
 459 400 425 366 425 325 c 0
 425 284 459 250 500 250 c 0
 541 250 575 284 575 325 c 0
 575 366 541 400 500 400 c 0
462 538 m 1
 462 662 l 1
 537 662 l 1
 537 538 l 1
 462 538 l 1
415 519 m 1
 361 467 l 1
 300 531 l 1
 300 100 l 1
 700 100 l 1
 700 531 l 1
 639 467 l 1
 585 519 l 1
 671 609 l 1
 700 582 l 1
 700 700 l 1
 300 700 l 1
 300 582 l 1
 329 609 l 1
 415 519 l 1
EndSplineSet
Validated: 1
MultipleSubs2: "CCMP cartouches" t.pu cart.body
Ligature2: "LIGA basics" p u
EndChar

StartChar: t.sama
Encoding: 154 989526 88
GlifName: t.sama
Width: 1000
GlyphClass: 1
Flags: W
HStem: 200 100<200 800> 500 100<200 800>
LayerCount: 2
Fore
SplineSet
200 600 m 1
 800 600 l 1
 800 500 l 1
 200 500 l 1
 200 600 l 1
200 300 m 1
 800 300 l 1
 800 200 l 1
 200 200 l 1
 200 300 l 1
EndSplineSet
Validated: 1
MultipleSubs2: "CCMP cartouches" t.sama cart.body
Ligature2: "LIGA basics" s a m a
EndChar

StartChar: t.seli
Encoding: 155 989527 89
GlifName: t.seli
Width: 1000
GlyphClass: 1
Flags: W
HStem: 75 150<448.417 551.583>
VStem: 425 150<98.4173 201.583> 450 100<325 700>
LayerCount: 2
Fore
SplineSet
425 150 m 0xc0
 425 191 459 225 500 225 c 0
 541 225 575 191 575 150 c 0
 575 109 541 75 500 75 c 0
 459 75 425 109 425 150 c 0xc0
450 325 m 1xa0
 450 700 l 1
 550 700 l 1
 550 325 l 1
 450 325 l 1xa0
597 314 m 1
 760 652 l 1
 850 608 l 1
 687 271 l 1
 597 314 l 1
403 314 m 1
 313 271 l 1
 150 608 l 1
 240 652 l 1
 403 314 l 1
EndSplineSet
Validated: 1
MultipleSubs2: "CCMP cartouches" t.seli cart.body
Ligature2: "LIGA basics" s e l i
EndChar

StartChar: t.selo
Encoding: 156 989528 90
GlifName: t.selo
Width: 1000
GlyphClass: 1
Flags: W
HStem: 250 300<100 200 275 375 625 725 800 900> 450 100<200 275 375 625 725 800>
VStem: 100 100<250 450> 275 100<250 450> 625 100<250 450> 800 100<250 450>
LayerCount: 2
Fore
SplineSet
100 550 m 1xbc
 900 550 l 1
 900 250 l 1
 800 250 l 1xbc
 800 450 l 1
 725 450 l 1x7c
 725 250 l 1
 625 250 l 1xbc
 625 450 l 1
 375 450 l 1x7c
 375 250 l 1
 275 250 l 1xbc
 275 450 l 1
 200 450 l 1x7c
 200 250 l 1
 100 250 l 1
 100 550 l 1xbc
EndSplineSet
Validated: 1
MultipleSubs2: "CCMP cartouches" t.selo cart.body
Ligature2: "LIGA basics" s e l o
EndChar

StartChar: t.seme
Encoding: 157 989529 91
GlifName: t.seme
Width: 1000
GlyphClass: 1
Flags: W
HStem: -12 150<448.417 551.583> 325 100<551.514 632.609> 700 100<366.126 632.609>
VStem: 201 99<583.939 633.947> 425 150<11.4173 114.583> 450 100<238 323.486> 700 100<491.483 632.609>
LayerCount: 2
Fore
SplineSet
438 800 m 2xf6
 562 800 l 2
 693 800 800 693 800 562 c 0
 800 431 693 325 562 325 c 0
 555 325 550 319 550 312 c 2
 550 238 l 1
 450 238 l 1
 450 312 l 2
 450 374 501 425 563 425 c 0
 639 425 700 486 700 562 c 2
 700 563 l 2
 700 639 639 700 563 700 c 2
 438 700 l 2
 365 700 304 642 300 570 c 1
 201 585 l 1
 212 705 315 800 438 800 c 2xf6
500 138 m 0
 541 138 575 104 575 63 c 0
 575 22 541 -12 500 -12 c 0
 459 -12 425 22 425 63 c 0xfa
 425 104 459 138 500 138 c 0
EndSplineSet
Validated: 1
MultipleSubs2: "CCMP cartouches" t.seme cart.body
Ligature2: "LIGA basics" s e m e
EndChar

StartChar: t.sewi
Encoding: 158 989530 92
GlifName: t.sewi
Width: 1000
GlyphClass: 1
Flags: W
HStem: -13 101<158.659 241.392 358.608 441.392 558.608 641.341> 0 21G<850 950> 780 20G<850 950> 780 20G<850 950>
VStem: 50 100<96.8016 200> 250 100<96.4375 450> 450 100<96.4375 600> 650 100<96.8016 700> 850 100<0 800>
LayerCount: 2
Fore
SplineSet
850 800 m 1x6f80
 950 800 l 1
 950 0 l 1
 850 0 l 1
 850 800 l 1x6f80
650 700 m 1
 750 700 l 1
 750 138 l 2
 750 55 683 -13 600 -13 c 0
 562 -13 527 2 500 26 c 1
 473 2 438 -13 400 -13 c 0
 362 -13 327 2 300 26 c 1
 273 2 238 -13 200 -13 c 0
 117 -13 50 55 50 138 c 2
 50 200 l 1
 150 200 l 1
 150 138 l 2
 150 110 172 88 200 88 c 0
 228 88 250 110 250 138 c 2
 250 450 l 1
 350 450 l 1
 350 138 l 2
 350 110 372 88 400 88 c 0
 428 88 450 110 450 138 c 2
 450 600 l 1
 550 600 l 1
 550 138 l 2
 550 110 572 88 600 88 c 0x8f80
 628 88 650 110 650 138 c 2
 650 700 l 1
EndSplineSet
Validated: 1
MultipleSubs2: "CCMP cartouches" t.sewi cart.body
Ligature2: "LIGA basics" s e w i
EndChar

StartChar: t.sijelo
Encoding: 159 989531 93
GlifName: t.sijelo
Width: 1000
GlyphClass: 1
Flags: W
HStem: 600 100<250 450 550 750>
VStem: 150 100<100 600> 450 100<100 600> 750 100<100 600>
CounterMasks: 1 70
LayerCount: 2
Fore
SplineSet
150 700 m 1
 850 700 l 1
 850 100 l 1
 750 100 l 1
 750 600 l 1
 550 600 l 1
 550 100 l 1
 450 100 l 1
 450 600 l 1
 250 600 l 1
 250 100 l 1
 150 100 l 1
 150 700 l 1
EndSplineSet
Validated: 1
MultipleSubs2: "CCMP cartouches" t.sijelo cart.body
Ligature2: "LIGA basics" s i j e l o
EndChar

StartChar: t.sike
Encoding: 160 989532 94
GlifName: t.sike
Width: 1000
GlyphClass: 1
Flags: W
HStem: -25 100<386.002 613.998> 200 100<439.527 560.473> 500 100<439.527 560.473> 725 100<386.002 613.998>
VStem: 75 100<286.002 513.998> 300 100<339.527 460.473> 600 100<339.527 460.473> 825 100<286.002 513.998>
LayerCount: 2
Fore
SplineSet
500 825 m 0
 735 825 925 635 925 400 c 0
 925 165 735 -25 500 -25 c 0
 265 -25 75 165 75 400 c 0
 75 635 265 825 500 825 c 0
500 725 m 0
 321 725 175 579 175 400 c 0
 175 221 321 75 500 75 c 0
 679 75 825 221 825 400 c 0
 825 579 679 725 500 725 c 0
500 600 m 0
 610 600 700 510 700 400 c 0
 700 290 610 200 500 200 c 0
 390 200 300 290 300 400 c 0
 300 510 390 600 500 600 c 0
500 500 m 0
 445 500 400 455 400 400 c 0
 400 345 445 300 500 300 c 0
 555 300 600 345 600 400 c 0
 600 455 555 500 500 500 c 0
EndSplineSet
Validated: 1
MultipleSubs2: "CCMP cartouches" t.sike cart.body
Ligature2: "LIGA basics" s i k e
EndChar

StartChar: t.sin
Encoding: 161 989533 95
GlifName: t.sin
Width: 1000
GlyphClass: 1
Flags: W
HStem: 250 100<150 400 600 850>
VStem: 450 100<400 650>
LayerCount: 2
Fore
SplineSet
450 400 m 1
 450 650 l 1
 550 650 l 1
 550 400 l 1
 450 400 l 1
150 250 m 1
 150 350 l 1
 400 350 l 1
 400 250 l 1
 150 250 l 1
600 250 m 1
 600 350 l 1
 850 350 l 1
 850 250 l 1
 600 250 l 1
EndSplineSet
Validated: 1
MultipleSubs2: "CCMP cartouches" t.sin cart.body
Ligature2: "LIGA basics" s i n
EndChar

StartChar: t.sina
Encoding: 162 989534 96
GlifName: t.sina
Width: 1000
GlyphClass: 1
Flags: W
HStem: 0 100<431.658 568.342> 350 100<430.143 568.342>
VStem: 275 100<156.658 291.155> 625 100<156.658 293.342>
LayerCount: 2
Fore
SplineSet
725 225 m 0
 725 101 624 0 500 0 c 0
 376 0 275 101 275 225 c 0
 275 448 368 662 532 813 c 1
 600 739 l 1
 508 654 441 547 405 429 c 1
 434 442 466 450 500 450 c 0
 624 450 725 349 725 225 c 0
625 225 m 0
 625 294 569 350 500 350 c 0
 431 350 375 294 375 225 c 0
 375 156 431 100 500 100 c 0
 569 100 625 156 625 225 c 0
EndSplineSet
Validated: 1
MultipleSubs2: "CCMP cartouches" t.sina cart.body
Ligature2: "LIGA basics" s i n a
EndChar

StartChar: t.sinpin
Encoding: 163 989535 97
GlifName: t.sinpin
Width: 1000
GlyphClass: 1
Flags: W
HStem: 0 100<250 450> 325 150<648.417 751.583> 700 100<250 450>
VStem: 250 300<0 100 700 800> 450 100<100 700> 625 150<348.417 451.583>
CounterMasks: 1 e0
LayerCount: 2
Fore
SplineSet
250 800 m 1xf4
 550 800 l 1
 550 0 l 1
 250 0 l 1
 250 100 l 1xf4
 450 100 l 1
 450 700 l 1xec
 250 700 l 1
 250 800 l 1xf4
775 400 m 0
 775 359 741 325 700 325 c 0
 659 325 625 359 625 400 c 0
 625 441 659 475 700 475 c 0
 741 475 775 441 775 400 c 0
EndSplineSet
Validated: 1
MultipleSubs2: "CCMP cartouches" t.sinpin cart.body
Ligature2: "LIGA basics" s i n p i n
EndChar

StartChar: t.sitelen
Encoding: 164 989536 98
GlifName: t.sitelen
Width: 1000
GlyphClass: 1
Flags: W
HStem: -0 100<250 750> 338 125<302.863 397.137 453.841 546.159 602.863 697.137> 700 100<250 750>
VStem: 150 100<100 700> 288 124<352.863 447.707> 438 124<352.863 447.137> 588 124<352.863 447.707> 750 100<100 700>
LayerCount: 2
Fore
SplineSet
150 800 m 1
 850 800 l 1
 850 0 l 1
 150 -0 l 1
 150 800 l 1
250 700 m 1
 250 100 l 1
 750 100 l 1
 750 700 l 1
 250 700 l 1
288 400 m 0
 288 435 315 463 350 463 c 0
 385 463 412 435 412 400 c 0
 412 365 385 338 350 338 c 0
 315 338 288 365 288 400 c 0
438 400 m 0
 438 435 465 462 500 462 c 0
 535 462 562 435 562 400 c 0
 562 365 535 338 500 338 c 0
 465 338 438 365 438 400 c 0
588 400 m 0
 588 435 615 463 650 463 c 0
 685 463 712 435 712 400 c 0
 712 365 685 338 650 338 c 0
 615 338 588 365 588 400 c 0
EndSplineSet
Validated: 1
MultipleSubs2: "CCMP cartouches" t.sitelen cart.body
Ligature2: "LIGA basics" s i t e l e n
EndChar

StartChar: t.sona
Encoding: 165 989537 99
GlifName: t.sona
Width: 1000
GlyphClass: 1
Flags: W
HStem: -0 100<350 650> 400 100<350 650>
VStem: 250 100<100 400> 450 100<625 850> 650 100<100 400>
CounterMasks: 1 38
LayerCount: 2
Fore
SplineSet
450 625 m 1
 450 850 l 1
 550 850 l 1
 550 625 l 1
 450 625 l 1
607 611 m 1
 712 810 l 1
 800 764 l 1
 695 564 l 1
 607 611 l 1
393 610 m 1
 305 563 l 1
 200 762 l 1
 289 809 l 1
 393 610 l 1
250 500 m 1
 750 500 l 1
 750 -0 l 1
 250 -0 l 1
 250 500 l 1
350 400 m 1
 350 100 l 1
 650 100 l 1
 650 400 l 1
 350 400 l 1
EndSplineSet
Validated: 1
MultipleSubs2: "CCMP cartouches" t.sona cart.body
Ligature2: "LIGA basics" s o n a
EndChar

StartChar: t.soweli
Encoding: 166 989538 100
GlifName: t.soweli
Width: 1000
GlyphClass: 1
Flags: W
HStem: 0 300<75 175 250 350 425 525 600 698.147> 413 125<452.863 547.707> 462 125<627.293 722.137> 700 100<75 714.328>
VStem: 75 100<0 300> 250 100<0 300> 425 100<0 300> 438 125<427.863 522.707> 600 100<0 215.188> 612 125<477.293 572.137> 825 100<410.608 590.088>
LayerCount: 2
Fore
SplineSet
75 800 m 1x9ca0
 625 800 l 2
 791 800 925 666 925 500 c 0
 925 360 829 243 700 210 c 1
 700 0 l 1
 600 0 l 1
 600 300 l 1
 625 300 l 2
 735 300 825 390 825 500 c 0
 825 610 735 700 625 700 c 2
 75 700 l 1
 75 800 l 1x9ca0
75 300 m 1
 175 300 l 1
 175 0 l 1
 75 0 l 1
 75 300 l 1
250 300 m 1
 350 300 l 1
 350 0 l 1
 250 0 l 1
 250 300 l 1
425 300 m 1x9e20
 525 300 l 1
 525 0 l 1
 425 0 l 1
 425 300 l 1x9e20
612 525 m 0xbc60
 612 560 640 587 675 587 c 0
 710 587 737 560 737 525 c 0
 737 490 710 462 675 462 c 0
 640 462 612 490 612 525 c 0xbc60
438 475 m 0xdd20
 438 510 465 538 500 538 c 0
 535 538 563 510 563 475 c 0
 563 440 535 413 500 413 c 0
 465 413 438 440 438 475 c 0xdd20
EndSplineSet
Validated: 1
MultipleSubs2: "CCMP cartouches" t.soweli cart.body
Ligature2: "LIGA basics" s o w e l i
EndChar

StartChar: t.suli
Encoding: 167 989539 101
GlifName: t.suli
Width: 1000
GlyphClass: 1
Flags: W
HStem: -0 21G<441.25 558.75> 780 20G<100 217.752 782.248 900> 780 20G<100 217.752 782.248 900>
LayerCount: 2
Fore
SplineSet
100 800 m 1xc0
 209 800 l 1
 500 135 l 1
 791 800 l 1
 900 800 l 1
 550 -0 l 1
 450 -0 l 1
 100 800 l 1xc0
EndSplineSet
Validated: 1
MultipleSubs2: "CCMP cartouches" t.suli cart.body
Ligature2: "LIGA basics" s u l i
EndChar

StartChar: t.suno
Encoding: 168 989540 102
GlifName: t.suno
Width: 1000
GlyphClass: 1
Flags: W
HStem: -0 250<451.83 548.17> 350 100<100 260.409 740.591 900> 550 250<451.83 548.17>
VStem: 100 250<351.83 448.17> 450 100<0 160.409 640.591 800> 650 250<351.83 448.17>
CounterMasks: 1 fc
LayerCount: 2
Fore
SplineSet
450 800 m 1
 550 800 l 1
 550 645 l 1
 648 625 725 548 745 450 c 1
 900 450 l 1
 900 350 l 1
 744 350 l 1
 724 253 647 176 550 156 c 1
 550 -0 l 1
 450 -0 l 1
 450 156 l 1
 353 176 276 253 256 350 c 1
 100 350 l 1
 100 450 l 1
 256 450 l 1
 276 547 353 624 450 644 c 1
 450 800 l 1
500 550 m 0
 417 550 350 483 350 400 c 0
 350 317 417 250 500 250 c 0
 583 250 650 317 650 400 c 0
 650 483 583 550 500 550 c 0
EndSplineSet
Validated: 1
MultipleSubs2: "CCMP cartouches" t.suno cart.body
Ligature2: "LIGA basics" s u n o
EndChar

StartChar: t.supa
Encoding: 169 989541 103
GlifName: t.supa
Width: 1000
GlyphClass: 1
Flags: W
HStem: 450 100<100 250 350 650 750 900>
VStem: 250 100<200 450> 650 100<200 450>
LayerCount: 2
Fore
SplineSet
100 550 m 1
 900 550 l 1
 900 450 l 1
 750 450 l 1
 750 200 l 1
 650 200 l 1
 650 450 l 1
 350 450 l 1
 350 200 l 1
 250 200 l 1
 250 450 l 1
 100 450 l 1
 100 550 l 1
EndSplineSet
Validated: 1
MultipleSubs2: "CCMP cartouches" t.supa cart.body
Ligature2: "LIGA basics" s u p a
EndChar

StartChar: t.suwi
Encoding: 170 989542 104
GlifName: t.suwi
Width: 1000
GlyphClass: 1
Flags: W
HStem: 87 150<448.417 551.583>
VStem: 425 150<110.417 213.583>
LayerCount: 2
Fore
SplineSet
425 162 m 0
 425 203 459 237 500 237 c 0
 541 237 575 203 575 162 c 0
 575 121 541 87 500 87 c 0
 459 87 425 121 425 162 c 0
225 650 m 1
 325 650 l 1
 450 350 l 1
 342 350 l 1
 275 510 l 1
 208 350 l 1
 100 350 l 1
 225 650 l 1
675 650 m 1
 775 650 l 1
 900 350 l 1
 792 350 l 1
 725 510 l 1
 658 350 l 1
 550 350 l 1
 675 650 l 1
EndSplineSet
Validated: 1
MultipleSubs2: "CCMP cartouches" t.suwi cart.body
Ligature2: "LIGA basics" s u w i
EndChar

StartChar: t.tan
Encoding: 171 989543 105
GlifName: t.tan
Width: 1000
GlyphClass: 1
Flags: W
HStem: 250 100<213 400> 500 100<378.774 616.254>
VStem: 50 100<433 600> 850 100<150 262.286>
LayerCount: 2
Fore
SplineSet
50 600 m 1
 150 600 l 1
 150 433 l 1
 233 535 359 600 500 600 c 0
 748 600 950 398 950 150 c 1
 950 150 906 150 876 150 c 0
 861 150 850 150 850 150 c 1
 850 343 693 500 500 500 c 0
 381 500 276 441 213 350 c 1
 400 350 l 1
 400 250 l 1
 50 250 l 1
 50 600 l 1
EndSplineSet
Validated: 1
MultipleSubs2: "CCMP cartouches" t.tan cart.body
Ligature2: "LIGA basics" t a n
EndChar

StartChar: t.taso
Encoding: 172 989544 106
GlifName: t.taso
Width: 1000
GlyphClass: 1
Flags: W
HStem: 0 21G<550 650> 350 100<300 550> 780 20G<550 650> 780 20G<550 650>
VStem: 550 100<0 350 450 800>
LayerCount: 2
Fore
SplineSet
550 800 m 1xe8
 650 800 l 1
 650 0 l 1
 550 0 l 1
 550 350 l 1
 300 350 l 1
 300 450 l 1
 550 450 l 1
 550 800 l 1xe8
EndSplineSet
Validated: 1
MultipleSubs2: "CCMP cartouches" t.taso cart.body
Ligature2: "LIGA basics" t a s o
EndChar

StartChar: t.tawa
Encoding: 173 989545 107
GlifName: t.tawa
Width: 1000
GlyphClass: 1
Flags: W
HStem: -0 100<675 875>
VStem: 575 100<100 633>
LayerCount: 2
Fore
SplineSet
575 802 m 1
 675 800 l 1
 675 100 l 1
 875 100 l 1
 875 -0 l 1
 575 -0 l 1
 575 633 l 1
 266 221 l 1
 459 81 l 1
 400 -0 l 1
 126 201 l 1
 575 802 l 1
EndSplineSet
Validated: 1
MultipleSubs2: "CCMP cartouches" t.tawa cart.body
Ligature2: "LIGA basics" t a w a
EndChar

StartChar: t.telo
Encoding: 174 989546 108
GlifName: t.telo
Width: 1000
GlyphClass: 1
Flags: W
HStem: 81 100<264.746 411.03> 269 100<588.97 735.254> 431 100<264.746 411.03> 619 100<588.97 735.254>
VStem: 100 100<248.391 319 598.391 669> 800 100<131 201.609 481 551.609>
LayerCount: 2
Fore
SplineSet
100 669 m 1
 200 669 l 1
 200 593 261 531 337 531 c 0
 386 531 432 557 457 600 c 0
 499 674 578 719 663 719 c 0
 794 719 900 612 900 481 c 1
 800 481 l 1
 800 557 739 619 663 619 c 0
 614 619 568 593 543 550 c 0
 501 476 422 431 337 431 c 0
 206 431 100 538 100 669 c 1
100 319 m 1
 200 319 l 1
 200 243 261 181 337 181 c 0
 386 181 432 207 457 250 c 0
 499 324 578 369 663 369 c 0
 794 369 900 262 900 131 c 1
 800 131 l 1
 800 207 739 269 663 269 c 0
 614 269 568 243 543 200 c 0
 501 126 422 81 337 81 c 0
 206 81 100 188 100 319 c 1
EndSplineSet
Validated: 1
MultipleSubs2: "CCMP cartouches" t.telo cart.body
Ligature2: "LIGA basics" t e l o
EndChar

StartChar: t.tenpo
Encoding: 175 989547 109
GlifName: t.tenpo
Width: 1000
GlyphClass: 1
Flags: W
HStem: -12 100<386.387 613.613> 350 100<550 675> 712 101<386.387 613.613>
VStem: 88 100<286.387 513.652> 450 100<450 638> 812 100<286.387 513.652>
CounterMasks: 1 1c
LayerCount: 2
Fore
SplineSet
550 450 m 1
 675 450 l 1
 675 350 l 1
 450 350 l 1
 450 450 l 1
 450 638 l 1
 550 638 l 1
 550 450 l 1
500 813 m 0
 728 813 912 628 912 400 c 0
 912 172 728 -12 500 -12 c 0
 272 -12 88 172 88 400 c 0
 88 628 272 813 500 813 c 0
500 712 m 0
 328 712 188 572 188 400 c 0
 188 228 328 88 500 88 c 0
 672 88 812 228 812 400 c 0
 812 572 672 712 500 712 c 0
EndSplineSet
Validated: 1
MultipleSubs2: "CCMP cartouches" t.tenpo cart.body
Ligature2: "LIGA basics" t e n p o
EndChar

StartChar: t.toki
Encoding: 176 989548 110
GlifName: t.toki
Width: 1000
GlyphClass: 1
Flags: W
HStem: -13 101<417.304 582.696> 438 99<417.304 582.696>
VStem: 225 100<180.178 343.822> 450 100<625 850> 675 100<180.178 343.822>
CounterMasks: 1 38
LayerCount: 2
Fore
SplineSet
450 625 m 1
 450 850 l 1
 550 850 l 1
 550 625 l 1
 450 625 l 1
607 611 m 1
 712 810 l 1
 800 764 l 1
 695 564 l 1
 607 611 l 1
393 610 m 1
 305 563 l 1
 200 762 l 1
 289 809 l 1
 393 610 l 1
500 537 m 0
 652 537 775 414 775 262 c 0
 775 110 652 -13 500 -13 c 0
 348 -13 225 110 225 262 c 0
 225 414 348 537 500 537 c 0
500 438 m 0
 403 438 325 360 325 263 c 2
 325 262 l 2
 325 165 403 88 500 88 c 2
 597 88 675 165 675 262 c 2
 675 263 l 2
 675 360 597 438 500 438 c 0
EndSplineSet
Validated: 5
MultipleSubs2: "CCMP cartouches" t.toki cart.body
Ligature2: "LIGA basics" t o k i
EndChar

StartChar: t.tomo
Encoding: 177 989549 111
GlifName: t.tomo
Width: 1000
GlyphClass: 1
Flags: W
HStem: 0 100<250 750> 780 20G<482.5 517.5> 780 20G<482.5 517.5>
VStem: 150 100<100 362> 750 100<100 362>
LayerCount: 2
Fore
SplineSet
500 800 m 1xd8
 850 400 l 1
 850 0 l 1
 150 0 l 1
 150 400 l 1
 500 800 l 1xd8
500 648 m 1
 250 362 l 1
 250 100 l 1
 750 100 l 1
 750 362 l 1
 500 648 l 1
EndSplineSet
Validated: 1
MultipleSubs2: "CCMP cartouches" t.tomo cart.body
Ligature2: "LIGA basics" t o m o
EndChar

StartChar: t.tu
Encoding: 178 989550 112
GlifName: t.tu
Width: 1000
GlyphClass: 1
Flags: W
HStem: 0 21G<325 425 575 675> 780 20G<325 425 575 675> 780 20G<325 425 575 675>
VStem: 325 100<0 800> 575 100<0 800>
LayerCount: 2
Fore
SplineSet
325 0 m 1xd8
 325 800 l 1
 425 800 l 1
 425 0 l 1
 325 0 l 1xd8
575 0 m 1
 575 800 l 1
 675 800 l 1
 675 0 l 1
 575 0 l 1
EndSplineSet
Validated: 1
MultipleSubs2: "CCMP cartouches" t.tu cart.body
Ligature2: "LIGA basics" t u
EndChar

StartChar: t.unpa
Encoding: 179 989551 113
GlifName: t.unpa
Width: 1000
GlyphClass: 1
Flags: W
HStem: 25 100<431.658 568.342> 325 100<379 621> 675 100<256.658 399.27 600.73 743.342>
VStem: 100 100<481.821 618.342> 275 100<183.19 325 434 483.597> 625 100<183.19 325 434 483.597> 800 100<481.821 618.342>
LayerCount: 2
Fore
SplineSet
325 775 m 0
 388 775 447 760 500 734 c 1
 553 760 612 775 675 775 c 0
 799 775 900 674 900 550 c 0
 900 443 825 354 725 331 c 1
 725 250 l 1
 725 126 624 25 500 25 c 0
 376 25 275 126 275 250 c 2
 275 250 275 286 275 310 c 0
 275 322 275 331 275 331 c 1
 175 354 100 443 100 550 c 0
 100 674 201 775 325 775 c 0
325 675 m 1
 256 675 200 619 200 550 c 0
 200 497 233 452 279 434 c 1
 293 524 337 605 400 665 c 1
 376 671 351 675 325 675 c 1
675 675 m 1
 649 675 624 671 600 665 c 1
 663 605 707 524 721 434 c 1
 767 452 800 497 800 550 c 0
 800 619 744 675 675 675 c 1
500 618 m 1
 437 573 393 504 379 425 c 1
 621 425 l 1
 607 504 563 573 500 618 c 1
375 325 m 1
 375 250 l 2
 375 181 431 125 500 125 c 0
 569 125 625 181 625 250 c 2
 625 325 l 1
 375 325 l 1
EndSplineSet
Validated: 5
MultipleSubs2: "CCMP cartouches" t.unpa cart.body
Ligature2: "LIGA basics" u n p a
EndChar

StartChar: t.uta
Encoding: 180 989552 114
GlifName: t.uta
Width: 1000
GlyphClass: 1
Flags: W
HStem: -13 150<448.417 551.583> 200 100<409.912 590.088> 500 100<300 700>
VStem: 200 100<410.672 500> 425 150<10.4173 113.583> 700 100<410.672 500>
CounterMasks: 1 1c
LayerCount: 2
Fore
SplineSet
200 600 m 1
 800 600 l 1
 800 500 l 2
 800 334 666 200 500 200 c 0
 334 200 200 334 200 500 c 2
 200 600 l 1
300 500 m 1
 300 390 390 300 500 300 c 0
 610 300 700 390 700 500 c 1
 300 500 l 1
425 62 m 0
 425 103 459 137 500 137 c 0
 541 137 575 103 575 62 c 0
 575 21 541 -13 500 -13 c 0
 459 -13 425 21 425 62 c 0
EndSplineSet
Validated: 1
MultipleSubs2: "CCMP cartouches" t.uta cart.body
Ligature2: "LIGA basics" u t a
EndChar

StartChar: t.utala
Encoding: 181 989553 115
GlifName: t.utala
Width: 1000
GlyphClass: 1
Flags: W
HStem: 0 21G<286.667 314.652 685.348 713.333>
LayerCount: 2
Fore
SplineSet
769 809 m 1
 850 750 l 1
 562 357 l 1
 696 174 l 1
 817 355 l 1
 900 300 l 1
 700 0 l 1
 500 273 l 1
 300 0 l 1
 100 300 l 1
 183 355 l 1
 304 174 l 1
 438 357 l 1
 150 750 l 1
 231 809 l 1
 500 442 l 1
 769 809 l 1
EndSplineSet
Validated: 1
MultipleSubs2: "CCMP cartouches" t.utala cart.body
Ligature2: "LIGA basics" u t a l a
EndChar

StartChar: t.walo
Encoding: 182 989554 116
GlifName: t.walo
Width: 1000
GlyphClass: 1
Flags: W
HStem: -0 100<262 738> 780 20G<489.971 509.971> 780 20G<489.971 509.971>
LayerCount: 2
Fore
SplineSet
283 367 m 1xc0
 100 550 l 1
 171 621 l 1
 330 461 l 1
 500 800 l 1
 669 461 l 1
 829 621 l 1
 900 550 l 1
 717 367 l 1
 900 -0 l 1
 100 -0 l 1
 283 367 l 1xc0
500 576 m 1
 262 100 l 1
 738 100 l 1
 500 576 l 1
EndSplineSet
Validated: 1
MultipleSubs2: "CCMP cartouches" t.walo cart.body
Ligature2: "LIGA basics" w a l o
EndChar

StartChar: t.wan
Encoding: 183 989555 117
GlifName: t.wan
Width: 1000
GlyphClass: 1
Flags: W
HStem: 0 21G<500 600> 780 20G<480 600> 780 20G<480 600>
VStem: 500 100<0 659>
LayerCount: 2
Fore
SplineSet
500 800 m 1xd0
 600 800 l 1
 600 0 l 1
 500 0 l 1
 500 659 l 1
 321 479 l 1
 250 550 l 1
 500 800 l 1xd0
EndSplineSet
Validated: 1
MultipleSubs2: "CCMP cartouches" t.wan cart.body
Ligature2: "LIGA basics" w a n
EndChar

StartChar: t.waso
Encoding: 184 989556 118
GlifName: t.waso
Width: 1000
GlyphClass: 1
Flags: W
HStem: 175 100<425 705> 325 125<239.863 334.707> 375 125<402.293 497.137>
VStem: 225 125<339.863 434.707> 325 100<-50 175> 387 125<389.863 484.707>
LayerCount: 2
Fore
SplineSet
559 673 m 1x88
 825 275 l 1
 825 175 l 1
 425 175 l 1
 425 -50 l 1
 325 -50 l 1
 325 275 l 1
 400 275 l 1
 425 275 l 1
 705 275 l 1
 383 757 l 1
 467 812 l 1
 559 673 l 1x88
387 437 m 0xa4
 387 472 415 500 450 500 c 0
 485 500 512 472 512 437 c 0
 512 402 485 375 450 375 c 0
 415 375 387 402 387 437 c 0xa4
225 387 m 0xd0
 225 422 252 450 287 450 c 0
 322 450 350 422 350 387 c 0
 350 352 322 325 287 325 c 0
 252 325 225 352 225 387 c 0xd0
EndSplineSet
Validated: 1
LCarets2: 3 0 0 0
MultipleSubs2: "CCMP cartouches" t.waso cart.body
Ligature2: "LIGA basics" w a s o
EndChar

StartChar: t.wawa
Encoding: 185 989557 119
GlifName: t.wawa
Width: 1000
GlyphClass: 1
Flags: W
HStem: 100 100<439.527 560.473> 400 100<439.527 560.473>
VStem: 300 100<239.527 360.473> 600 100<239.527 360.473>
LayerCount: 2
Fore
SplineSet
500 500 m 0
 610 500 700 410 700 300 c 0
 700 190 610 100 500 100 c 0
 390 100 300 190 300 300 c 0
 300 410 390 500 500 500 c 0
500 400 m 0
 445 400 400 355 400 300 c 0
 400 245 445 200 500 200 c 0
 555 200 600 245 600 300 c 0
 600 355 555 400 500 400 c 0
193 192 m 1
 50 671 l 1
 146 700 l 1
 289 221 l 1
 193 192 l 1
711 221 m 1
 854 700 l 1
 950 671 l 1
 807 192 l 1
 711 221 l 1
EndSplineSet
Validated: 1
MultipleSubs2: "CCMP cartouches" t.wawa cart.body
Ligature2: "LIGA basics" w a w a
EndChar

StartChar: t.weka
Encoding: 186 989558 120
GlifName: t.weka
Width: 1000
GlyphClass: 1
Flags: W
LayerCount: 2
Fore
SplineSet
221 750 m 1
 450 521 l 1
 379 450 l 1
 150 679 l 1
 221 750 l 1
779 750 m 1
 850 679 l 1
 621 450 l 1
 550 521 l 1
 779 750 l 1
379 350 m 1
 450 279 l 1
 221 50 l 1
 150 121 l 1
 379 350 l 1
621 350 m 1
 850 121 l 1
 779 50 l 1
 550 279 l 1
 621 350 l 1
EndSplineSet
Validated: 1
LCarets2: 3 0 0 0
MultipleSubs2: "CCMP cartouches" t.weka cart.body
Ligature2: "LIGA basics" w e k a
EndChar

StartChar: t.wile
Encoding: 187 989559 121
GlifName: t.wile
Width: 1000
GlyphClass: 1
Flags: W
HStem: 75 100<256.658 393.945 606.055 743.342>
VStem: 100 100<233.19 454.717> 450 100<230.127 350> 800 100<233.19 454.717>
CounterMasks: 1 70
LayerCount: 2
Fore
SplineSet
270 730 m 1
 340 660 l 1
 250 567 200 442 200 312 c 0
 200 310 200 306 200 300 c 1
 200 231 256 175 325 175 c 0
 394 175 450 231 450 300 c 2
 450 350 l 1
 550 350 l 1
 550 300 l 2
 550 231 606 175 675 175 c 0
 744 175 800 231 800 300 c 1
 800 302 800 307 800 312 c 0
 800 442 750 567 660 660 c 1
 730 730 l 1
 839 618 900 468 900 312 c 0
 900 308 900 304 900 300 c 1
 900 176 799 75 675 75 c 0
 607 75 543 106 500 159 c 1
 457 106 393 75 325 75 c 0
 201 75 100 176 100 300 c 1
 100 304 100 308 100 312 c 0
 100 468 161 618 270 730 c 1
EndSplineSet
Validated: 5
MultipleSubs2: "CCMP cartouches" t.wile cart.body
Ligature2: "LIGA basics" w i l e
EndChar

StartChar: i
Encoding: 49 105 122
GlifName: glyph122
Width: 500
VWidth: -100
Flags: W
HStem: 0 100<112 200 300 400> 700 100<112 200 300 400>
VStem: 112 288<0 100 700 800>
LayerCount: 2
Fore
SplineSet
112 800 m 1
 400 800 l 1
 400 700 l 1
 300 700 l 1
 300 100 l 1
 400 100 l 1
 400 0 l 1
 300 0 l 1
 200 0 l 1
 112 0 l 1
 112 100 l 1
 200 100 l 1
 200 700 l 1
 112 700 l 1
 112 800 l 1
EndSplineSet
Validated: 1
EndChar

StartChar: j
Encoding: 50 106 123
GlifName: glyph123
Width: 500
VWidth: -100
Flags: W
HStem: -13 100<195.527 316.473> 700 100<156 356>
VStem: 56 100<127.696 187> 356 100<127.696 700>
LayerCount: 2
Fore
SplineSet
456 800 m 1
 456 187 l 1
 456 77 366 -13 256 -13 c 0
 146 -13 56 77 56 187 c 1
 156 187 l 1
 156 132 201 87 256 87 c 0
 311 87 356 132 356 187 c 1
 356 700 l 1
 156 700 l 1
 156 800 l 1
 456 800 l 1
EndSplineSet
Validated: 5
EndChar

StartChar: o
Encoding: 55 111 124
GlifName: glyph124
Width: 500
VWidth: -100
Flags: W
HStem: -25 100<195.527 316.473> 700 100<195.527 316.473>
VStem: 56 100<115.696 659.304> 356 100<115.696 659.304>
LayerCount: 2
Fore
SplineSet
256 800 m 0
 366 800 456 710 456 600 c 1
 456 175 l 1
 456 65 366 -25 256 -25 c 0
 146 -25 56 65 56 175 c 2
 56 600 l 2
 56 710 146 800 256 800 c 0
256 700 m 0
 201 700 156 655 156 600 c 2
 156 175 l 2
 156 120 201 75 256 75 c 0
 311 75 356 120 356 175 c 1
 356 600 l 1
 356 655 311 700 256 700 c 0
EndSplineSet
Validated: 5
EndChar

StartChar: a
Encoding: 41 97 125
GlifName: glyph125
Width: 500
VWidth: -100
Flags: W
HStem: 0 21G<44 150 362.867 469> 150 100<197 316> 780 20G<201.95 310.075> 780 20G<201.95 310.075>
LayerCount: 2
Fore
SplineSet
206 800 m 1xe0
 306 800 l 1
 469 0 l 1
 367 0 l 1
 336 150 l 1
 176 150 l 1
 146 0 l 1
 44 0 l 1
 206 800 l 1xe0
256 544 m 1
 197 250 l 1
 316 250 l 1
 256 544 l 1
EndSplineSet
Validated: 1
EndChar

StartChar: A
Encoding: 13 65 126
Width: 500
VWidth: 900
Flags: W
HStem: 0 21G<44 150 362.867 469> 150 100<197 316> 780 20G<201.95 310.075> 780 20G<201.95 310.075>
LayerCount: 2
Fore
SplineSet
206 800 m 1xe0
 306 800 l 1
 469 0 l 1
 367 0 l 1
 336 150 l 1
 176 150 l 1
 146 0 l 1
 44 0 l 1
 206 800 l 1xe0
256 544 m 1
 197 250 l 1
 316 250 l 1
 256 544 l 1
EndSplineSet
Validated: 1
EndChar

StartChar: B
Encoding: 14 66 127
Width: 500
VWidth: 900
Flags: W
HStem: 0 100<156 310.81> 350 100<156 312.326> 700 100<156 310.81>
VStem: 56 100<100 350 450 700> 369 100<156.658 293.945 506.407 643.342>
CounterMasks: 1 e0
LayerCount: 2
Fore
SplineSet
369 575 m 0
 369 644 313 700 244 700 c 2
 156 700 l 1
 156 450 l 1
 246 450 l 2
 314 451 369 507 369 575 c 0
156 100 m 1
 244 100 l 2
 313 100 369 156 369 225 c 0
 369 294 313 350 244 350 c 2
 156 350 l 1
 156 100 l 1
469 225 m 0
 469 101 368 0 244 0 c 2
 156 0 l 1
 56 0 l 1
 56 800 l 1
 156 800 l 1
 244 800 l 2
 368 800 469 699 469 575 c 0
 469 507 437 443 384 400 c 1
 437 357 469 293 469 225 c 0
EndSplineSet
Validated: 1
EndChar

StartChar: C
Encoding: 15 67 128
Width: 500
VWidth: 912
Flags: W
HStem: -12 100<195.527 316.473> 712 100<195.527 316.473>
VStem: 56 100<127.788 672.212> 356 100<127.788 187 612 671.304>
LayerCount: 2
Fore
SplineSet
156 612 m 1
 156 187 l 2
 156 132 201 88 256 88 c 0
 311 88 356 132 356 187 c 1
 456 187 l 1
 456 77 366 -12 256 -12 c 0
 146 -12 56 77 56 187 c 2
 56 613 l 2
 56 723 146 812 256 812 c 0
 366 812 456 722 456 612 c 1
 356 612 l 1
 356 667 311 712 256 712 c 0
 201 712 156 667 156 612 c 1
EndSplineSet
Validated: 5
EndChar

StartChar: D
Encoding: 16 68 129
Width: 500
VWidth: 900
Flags: W
HStem: -0 100<156 310.81> 700 100<156 310.81>
VStem: 56 100<100 700> 369 100<158.19 641.81>
LayerCount: 2
Fore
SplineSet
56 800 m 1
 156 800 l 1
 244 800 l 1
 368 800 469 699 469 575 c 1
 469 225 l 1
 469 101 368 0 244 -0 c 2
 56 -0 l 1
 56 800 l 1
156 700 m 1
 156 100 l 1
 244 100 l 2
 313 100 369 156 369 225 c 1
 369 575 l 1
 369 644 313 700 244 700 c 2
 156 700 l 1
EndSplineSet
Validated: 5
EndChar

StartChar: E
Encoding: 17 69 130
Width: 500
VWidth: 900
Flags: W
HStem: 0 100<156 456> 350 100<156 369> 700 100<156 456>
VStem: 56 100<100 350 450 700>
CounterMasks: 1 e0
LayerCount: 2
Fore
SplineSet
56 0 m 1
 56 800 l 1
 456 800 l 1
 456 700 l 1
 156 700 l 1
 156 450 l 1
 369 450 l 1
 369 350 l 1
 156 350 l 1
 156 100 l 1
 456 100 l 1
 456 0 l 1
 156 0 l 1
 56 0 l 1
EndSplineSet
Validated: 1
EndChar

StartChar: F
Encoding: 18 70 131
Width: 500
VWidth: 900
Flags: W
HStem: 0 21G<56 156> 350 100<156 369> 700 100<156 456>
VStem: 56 100<0 350 450 700>
LayerCount: 2
Fore
SplineSet
56 800 m 1
 156 800 l 1
 456 800 l 1
 456 700 l 1
 156 700 l 1
 156 450 l 1
 369 450 l 1
 369 350 l 1
 156 350 l 1
 156 0 l 1
 56 0 l 1
 56 800 l 1
EndSplineSet
Validated: 1
EndChar

StartChar: G
Encoding: 19 71 132
Width: 500
VWidth: 912
Flags: W
HStem: -12 100<195.527 316.473> 350 100<244 356> 712 100<195.527 316.473>
VStem: 56 100<128.696 672.212> 356 100<128.696 350 613 672.212>
CounterMasks: 1 e0
LayerCount: 2
Fore
SplineSet
256 812 m 0
 366 812 456 723 456 613 c 1
 356 613 l 1
 356 668 311 712 256 712 c 0
 201 712 156 668 156 613 c 2
 156 188 l 2
 156 133 201 88 256 88 c 0
 311 88 356 133 356 188 c 1
 356 350 l 1
 244 350 l 1
 244 450 l 1
 356 450 l 1
 456 450 l 1
 456 188 l 1
 456 78 366 -12 256 -12 c 0
 146 -12 56 78 56 188 c 2
 56 613 l 2
 56 723 146 812 256 812 c 0
EndSplineSet
Validated: 5
EndChar

StartChar: H
Encoding: 20 72 133
Width: 500
VWidth: 900
Flags: W
HStem: 0 21G<56 156 356 456> 350 100<156 356> 780 20G<56 156 356 456> 780 20G<56 156 356 456>
VStem: 56 100<0 350 450 800> 356 100<0 350 450 800>
LayerCount: 2
Fore
SplineSet
56 800 m 1xec
 156 800 l 1
 156 450 l 1
 356 450 l 1
 356 800 l 1
 456 800 l 1
 456 0 l 1
 356 0 l 1
 356 350 l 1
 156 350 l 1
 156 0 l 1
 56 0 l 1
 56 800 l 1xec
EndSplineSet
Validated: 1
EndChar

StartChar: I
Encoding: 21 73 134
Width: 500
VWidth: 900
Flags: W
HStem: 0 100<112 200 300 400> 700 100<112 200 300 400>
VStem: 112 288<0 100 700 800>
LayerCount: 2
Fore
SplineSet
112 800 m 1
 400 800 l 1
 400 700 l 1
 300 700 l 1
 300 100 l 1
 400 100 l 1
 400 0 l 1
 300 0 l 1
 200 0 l 1
 112 0 l 1
 112 100 l 1
 200 100 l 1
 200 700 l 1
 112 700 l 1
 112 800 l 1
EndSplineSet
Validated: 1
EndChar

StartChar: J
Encoding: 22 74 135
Width: 500
VWidth: 900
Flags: W
HStem: -13 100<195.527 316.473> 700 100<156 356>
VStem: 56 100<127.696 187> 356 100<127.696 700>
LayerCount: 2
Fore
SplineSet
456 800 m 1
 456 187 l 1
 456 77 366 -13 256 -13 c 0
 146 -13 56 77 56 187 c 1
 156 187 l 1
 156 132 201 87 256 87 c 0
 311 87 356 132 356 187 c 1
 356 700 l 1
 156 700 l 1
 156 800 l 1
 456 800 l 1
EndSplineSet
Validated: 5
EndChar

StartChar: K
Encoding: 23 75 136
Width: 500
VWidth: 900
Flags: W
HStem: -0 21G<56 156 349.971 469> 350 100<156 201> 780 20G<56 156 349.971 469> 780 20G<56 156 349.971 469>
VStem: 56 100<0 350 450 800>
LayerCount: 2
Fore
SplineSet
56 800 m 1xe8
 156 800 l 1
 156 450 l 1
 201 450 l 1
 359 800 l 1
 469 800 l 1
 288 400 l 1
 469 -0 l 1
 359 -0 l 1
 201 350 l 1
 156 350 l 1
 156 0 l 1
 56 0 l 1
 56 800 l 1xe8
EndSplineSet
Validated: 1
EndChar

StartChar: L
Encoding: 24 76 137
Width: 500
VWidth: 900
Flags: W
HStem: 0 100<156 456> 780 20G<56 156> 780 20G<56 156>
VStem: 56 100<100 800>
LayerCount: 2
Fore
SplineSet
456 -0 m 1xd0
 56 0 l 1
 56 800 l 1
 156 800 l 1
 156 100 l 1
 456 100 l 1
 456 -0 l 1xd0
EndSplineSet
Validated: 1
EndChar

StartChar: M
Encoding: 25 77 138
Width: 500
VWidth: 900
Flags: W
HStem: 0 21G<44 144 369 469> 780 20G<44 150.687 362.254 469> 780 20G<44 150.687 362.254 469>
VStem: 44 100<0 486> 369 100<0 486>
LayerCount: 2
Fore
SplineSet
44 800 m 1xd8
 144 800 l 1
 256 465 l 1
 369 800 l 1
 469 800 l 1
 469 0 l 1
 369 0 l 1
 369 486 l 1
 306 300 l 1
 206 300 l 1
 144 486 l 1
 144 0 l 1
 44 0 l 1
 44 800 l 1xd8
EndSplineSet
Validated: 1
EndChar

StartChar: N
Encoding: 26 78 139
Width: 500
VWidth: 900
Flags: W
HStem: 0 21G<56 156 348.322 456> 780 20G<56 163.678 356 456> 780 20G<56 163.678 356 456>
VStem: 56 100<0 521> 356 100<279 800>
LayerCount: 2
Fore
SplineSet
56 800 m 1xd8
 156 800 l 1
 356 279 l 1
 356 800 l 1
 456 800 l 1
 456 0 l 1
 356 0 l 1
 156 521 l 1
 156 0 l 1
 56 0 l 1
 56 800 l 1xd8
EndSplineSet
Validated: 5
EndChar

StartChar: O
Encoding: 27 79 140
Width: 500
VWidth: 900
Flags: W
HStem: -25 100<195.527 316.473> 700 100<195.527 316.473>
VStem: 56 100<115.696 659.304> 356 100<115.696 659.304>
LayerCount: 2
Fore
SplineSet
256 800 m 4
 366 800 456 710 456 600 c 5
 456 175 l 5
 456 65 366 -25 256 -25 c 4
 146 -25 56 65 56 175 c 6
 56 600 l 6
 56 710 146 800 256 800 c 4
256 700 m 4
 201 700 156 655 156 600 c 6
 156 175 l 6
 156 120 201 75 256 75 c 4
 311 75 356 120 356 175 c 5
 356 600 l 5
 356 655 311 700 256 700 c 4
EndSplineSet
Validated: 5
EndChar

StartChar: P
Encoding: 28 80 141
Width: 500
VWidth: 900
Flags: W
HStem: 0 21G<56 156> 350 100<156 310.81> 700 100<156 310.81>
VStem: 56 100<0 350 450 700> 369 100<506.658 643.342>
LayerCount: 2
Fore
SplineSet
156 450 m 1
 244 450 l 2
 313 450 369 506 369 575 c 0
 369 644 313 700 244 700 c 1
 156 700 l 1
 156 450 l 1
469 575 m 0
 469 451 368 350 244 350 c 2
 156 350 l 1
 156 0 l 1
 56 0 l 1
 56 800 l 1
 156 800 l 1
 244 800 l 1
 368 800 469 699 469 575 c 0
EndSplineSet
Validated: 5
EndChar

StartChar: Q
Encoding: 29 81 142
Width: 500
VWidth: 912
Flags: W
HStem: 63 100<189.527 267.504> 712 100<189.527 310.473>
VStem: 50 100<203.696 671.304> 350 100<236.072 671.304>
LayerCount: 2
Fore
SplineSet
250 812 m 0
 360 812 450 722 450 612 c 2
 450 263 l 2
 450 210 429 161 395 125 c 1
 462 -25 l 1
 353 -25 l 1
 309 72 l 1
 290 66 271 63 250 63 c 0
 140 63 50 153 50 263 c 2
 50 612 l 2
 50 722 140 812 250 812 c 0
250 712 m 0
 195 712 150 667 150 612 c 2
 150 263 l 2
 150 208 195 163 250 163 c 0
 256 163 262 163 268 164 c 1
 173 375 l 1
 282 375 l 1
 346 234 l 1
 349 243 350 253 350 263 c 1
 350 613 l 1
 350 668 305 712 250 712 c 0
EndSplineSet
Validated: 5
EndChar

StartChar: R
Encoding: 30 82 143
Width: 500
VWidth: 900
Flags: W
HStem: -0 21G<56 156 349.971 469> 350 100<156 201> 700 100<156 310.81>
VStem: 56 100<0 350 450 700> 369 100<505.73 643.342>
LayerCount: 2
Fore
SplineSet
56 800 m 1
 156 800 l 1
 244 800 l 2
 368 800 469 699 469 575 c 0
 469 473 400 386 307 359 c 1
 469 -0 l 1
 359 -0 l 1
 201 350 l 1
 156 350 l 1
 156 0 l 1
 56 0 l 1
 56 800 l 1
156 700 m 1
 156 450 l 1
 244 450 l 1
 313 450 369 506 369 575 c 0
 369 644 313 700 244 700 c 2
 156 700 l 1
EndSplineSet
Validated: 5
EndChar

StartChar: S
Encoding: 31 83 144
Width: 500
VWidth: 900
Flags: W
HStem: -25 100<195.527 316.473> 338 100<196.696 315.304> 700 100<195.527 316.473>
VStem: 56 100<115.696 175 478.696 659.304> 356 100<115.696 297.304 600 659.304>
LayerCount: 2
Fore
SplineSet
256 338 m 0
 146 338 56 428 56 538 c 2
 56 600 l 2
 56 710 146 800 256 800 c 0
 366 800 456 710 456 600 c 1
 356 600 l 1
 356 655 311 700 256 700 c 0
 201 700 156 655 156 600 c 2
 156 538 l 2
 156 483 201 438 256 438 c 0
 366 438 456 348 456 238 c 2
 456 175 l 2
 456 65 366 -25 256 -25 c 0
 146 -25 56 65 56 175 c 1
 156 175 l 1
 156 120 201 75 256 75 c 0
 311 75 356 120 356 175 c 2
 356 237 l 2
 356 292 311 338 256 338 c 0
EndSplineSet
Validated: 1
EndChar

StartChar: T
Encoding: 32 84 145
Width: 500
VWidth: 900
Flags: W
HStem: 0 21G<206 306> 700 100<56 206 306 456>
VStem: 206 100<0 700>
LayerCount: 2
Fore
SplineSet
56 800 m 1
 206 800 l 1
 306 800 l 1
 456 800 l 1
 456 700 l 1
 306 700 l 1
 306 0 l 1
 206 0 l 1
 206 700 l 1
 56 700 l 1
 56 800 l 1
EndSplineSet
Validated: 1
EndChar

StartChar: U
Encoding: 33 85 146
Width: 500
VWidth: 900
Flags: W
HStem: -0 100<195.527 316.473> 780 20G<56 156 356 456> 780 20G<56 156 356 456>
VStem: 56 100<140.696 800> 356 100<140.696 800>
LayerCount: 2
Fore
SplineSet
256 100 m 0xd8
 311 100 356 145 356 200 c 2
 356 800 l 1
 456 800 l 1
 456 200 l 2
 456 90 366 0 256 -0 c 0
 146 0 56 90 56 200 c 2
 56 800 l 1
 156 800 l 1
 156 200 l 2
 156 145 201 100 256 100 c 0xd8
EndSplineSet
Validated: 1
EndChar

StartChar: V
Encoding: 34 86 147
Width: 500
VWidth: 900
Flags: W
HStem: 0 21G<201.95 310.075> 780 20G<44 150.044 362.919 469> 780 20G<44 150.044 362.919 469>
LayerCount: 2
Fore
SplineSet
206 0 m 1xc0
 44 800 l 1
 146 800 l 1
 256 256 l 1
 367 800 l 1
 469 800 l 1
 306 0 l 1
 206 0 l 1xc0
EndSplineSet
Validated: 1
EndChar

StartChar: W
Encoding: 35 87 148
Width: 500
VWidth: 900
Flags: W
HStem: 0 21G<44 150.687 362.254 469> 780 20G<44 144 369 469> 780 20G<44 144 369 469>
VStem: 44 100<314 800> 369 100<314 800>
LayerCount: 2
Fore
SplineSet
44 0 m 1xd8
 44 800 l 1
 144 800 l 1
 144 314 l 1
 206 500 l 1
 306 500 l 1
 369 314 l 1
 369 800 l 1
 469 800 l 1
 469 0 l 1
 369 0 l 1
 256 335 l 1
 144 0 l 1
 44 0 l 1xd8
EndSplineSet
Validated: 1
EndChar

StartChar: X
Encoding: 36 88 149
Width: 500
VWidth: 900
Flags: W
HStem: 0 21G<44 158.955 353.045 469> 780 20G<44 158.955 353.045 469> 780 20G<44 158.955 353.045 469>
LayerCount: 2
Fore
SplineSet
44 800 m 1xc0
 151 800 l 1
 256 536 l 1
 361 800 l 1
 469 800 l 1
 310 400 l 1
 469 0 l 1
 361 0 l 1
 256 264 l 1
 151 0 l 1
 44 0 l 1
 202 400 l 1
 44 800 l 1xc0
EndSplineSet
Validated: 1
EndChar

StartChar: Y
Encoding: 37 89 150
Width: 500
VWidth: 900
Flags: W
HStem: 0 21G<206 306> 780 20G<44 158.955 353.045 469> 780 20G<44 158.955 353.045 469>
VStem: 206 100<0 390>
LayerCount: 2
Fore
SplineSet
44 800 m 1xd0
 151 800 l 1
 256 536 l 1
 361 800 l 1
 469 800 l 1
 306 390 l 1
 306 0 l 1
 206 0 l 1
 206 390 l 1
 44 800 l 1xd0
EndSplineSet
Validated: 1
EndChar

StartChar: Z
Encoding: 38 90 151
Width: 500
VWidth: 900
Flags: W
HStem: -0 100<167 456> 700 100<56 345>
LayerCount: 2
Fore
SplineSet
56 800 m 1
 456 800 l 1
 456 700 l 1
 167 100 l 1
 456 100 l 1
 456 -0 l 1
 56 -0 l 1
 56 100 l 1
 345 700 l 1
 56 700 l 1
 56 800 l 1
EndSplineSet
Validated: 1
EndChar

StartChar: b
Encoding: 42 98 152
Width: 500
VWidth: 900
Flags: W
HStem: 0 100<156 310.81> 350 100<156 312.326> 700 100<156 310.81>
VStem: 56 100<100 350 450 700> 369 100<156.658 293.945 506.407 643.342>
CounterMasks: 1 e0
LayerCount: 2
Fore
SplineSet
369 575 m 0
 369 644 313 700 244 700 c 2
 156 700 l 1
 156 450 l 1
 246 450 l 2
 314 451 369 507 369 575 c 0
156 100 m 1
 244 100 l 2
 313 100 369 156 369 225 c 0
 369 294 313 350 244 350 c 2
 156 350 l 1
 156 100 l 1
469 225 m 0
 469 101 368 0 244 0 c 2
 156 0 l 1
 56 0 l 1
 56 800 l 1
 156 800 l 1
 244 800 l 2
 368 800 469 699 469 575 c 0
 469 507 437 443 384 400 c 1
 437 357 469 293 469 225 c 0
EndSplineSet
Validated: 1
EndChar

StartChar: c
Encoding: 43 99 153
Width: 500
VWidth: 912
Flags: W
HStem: -12 100<195.527 316.473> 712 100<195.527 316.473>
VStem: 56 100<127.788 672.212> 356 100<127.788 187 612 671.304>
LayerCount: 2
Fore
SplineSet
156 612 m 1
 156 187 l 2
 156 132 201 88 256 88 c 0
 311 88 356 132 356 187 c 1
 456 187 l 1
 456 77 366 -12 256 -12 c 0
 146 -12 56 77 56 187 c 2
 56 613 l 2
 56 723 146 812 256 812 c 0
 366 812 456 722 456 612 c 1
 356 612 l 1
 356 667 311 712 256 712 c 0
 201 712 156 667 156 612 c 1
EndSplineSet
Validated: 5
EndChar

StartChar: d
Encoding: 44 100 154
Width: 500
VWidth: 900
Flags: W
HStem: -0 100<156 310.81> 700 100<156 310.81>
VStem: 56 100<100 700> 369 100<158.19 641.81>
LayerCount: 2
Fore
SplineSet
56 800 m 1
 156 800 l 1
 244 800 l 1
 368 800 469 699 469 575 c 1
 469 225 l 1
 469 101 368 0 244 -0 c 2
 56 -0 l 1
 56 800 l 1
156 700 m 1
 156 100 l 1
 244 100 l 2
 313 100 369 156 369 225 c 1
 369 575 l 1
 369 644 313 700 244 700 c 2
 156 700 l 1
EndSplineSet
Validated: 5
EndChar

StartChar: e
Encoding: 45 101 155
Width: 500
VWidth: 900
Flags: W
HStem: 0 100<156 456> 350 100<156 369> 700 100<156 456>
VStem: 56 100<100 350 450 700>
CounterMasks: 1 e0
LayerCount: 2
Fore
SplineSet
56 0 m 1
 56 800 l 1
 456 800 l 1
 456 700 l 1
 156 700 l 1
 156 450 l 1
 369 450 l 1
 369 350 l 1
 156 350 l 1
 156 100 l 1
 456 100 l 1
 456 0 l 1
 156 0 l 1
 56 0 l 1
EndSplineSet
Validated: 1
EndChar

StartChar: f
Encoding: 46 102 156
Width: 500
VWidth: 900
Flags: W
HStem: 0 21G<56 156> 350 100<156 369> 700 100<156 456>
VStem: 56 100<0 350 450 700>
LayerCount: 2
Fore
SplineSet
56 800 m 1
 156 800 l 1
 456 800 l 1
 456 700 l 1
 156 700 l 1
 156 450 l 1
 369 450 l 1
 369 350 l 1
 156 350 l 1
 156 0 l 1
 56 0 l 1
 56 800 l 1
EndSplineSet
Validated: 1
EndChar

StartChar: g
Encoding: 47 103 157
Width: 500
VWidth: 912
Flags: W
HStem: -12 100<195.527 316.473> 350 100<244 356> 712 100<195.527 316.473>
VStem: 56 100<128.696 672.212> 356 100<128.696 350 613 672.212>
CounterMasks: 1 e0
LayerCount: 2
Fore
SplineSet
256 812 m 0
 366 812 456 723 456 613 c 1
 356 613 l 1
 356 668 311 712 256 712 c 0
 201 712 156 668 156 613 c 2
 156 188 l 2
 156 133 201 88 256 88 c 0
 311 88 356 133 356 188 c 1
 356 350 l 1
 244 350 l 1
 244 450 l 1
 356 450 l 1
 456 450 l 1
 456 188 l 1
 456 78 366 -12 256 -12 c 0
 146 -12 56 78 56 188 c 2
 56 613 l 2
 56 723 146 812 256 812 c 0
EndSplineSet
Validated: 5
EndChar

StartChar: h
Encoding: 48 104 158
Width: 500
VWidth: 900
Flags: W
HStem: 0 21G<56 156 356 456> 350 100<156 356> 780 20G<56 156 356 456> 780 20G<56 156 356 456>
VStem: 56 100<0 350 450 800> 356 100<0 350 450 800>
LayerCount: 2
Fore
SplineSet
56 800 m 1xec
 156 800 l 1
 156 450 l 1
 356 450 l 1
 356 800 l 1
 456 800 l 1
 456 0 l 1
 356 0 l 1
 356 350 l 1
 156 350 l 1
 156 0 l 1
 56 0 l 1
 56 800 l 1xec
EndSplineSet
Validated: 1
EndChar

StartChar: k
Encoding: 51 107 159
Width: 500
VWidth: 900
Flags: W
HStem: -0 21G<56 156 349.971 469> 350 100<156 201> 780 20G<56 156 349.971 469> 780 20G<56 156 349.971 469>
VStem: 56 100<0 350 450 800>
LayerCount: 2
Fore
SplineSet
56 800 m 1xe8
 156 800 l 1
 156 450 l 1
 201 450 l 1
 359 800 l 1
 469 800 l 1
 288 400 l 1
 469 -0 l 1
 359 -0 l 1
 201 350 l 1
 156 350 l 1
 156 0 l 1
 56 0 l 1
 56 800 l 1xe8
EndSplineSet
Validated: 1
EndChar

StartChar: l
Encoding: 52 108 160
Width: 500
VWidth: 900
Flags: W
HStem: 0 100<156 456> 780 20G<56 156> 780 20G<56 156>
VStem: 56 100<100 800>
LayerCount: 2
Fore
SplineSet
456 -0 m 1xd0
 56 0 l 1
 56 800 l 1
 156 800 l 1
 156 100 l 1
 456 100 l 1
 456 -0 l 1xd0
EndSplineSet
Validated: 1
EndChar

StartChar: m
Encoding: 53 109 161
Width: 500
VWidth: 900
Flags: W
HStem: 0 21G<44 144 369 469> 780 20G<44 150.687 362.254 469> 780 20G<44 150.687 362.254 469>
VStem: 44 100<0 486> 369 100<0 486>
LayerCount: 2
Fore
SplineSet
44 800 m 1xd8
 144 800 l 1
 256 465 l 1
 369 800 l 1
 469 800 l 1
 469 0 l 1
 369 0 l 1
 369 486 l 1
 306 300 l 1
 206 300 l 1
 144 486 l 1
 144 0 l 1
 44 0 l 1
 44 800 l 1xd8
EndSplineSet
Validated: 1
EndChar

StartChar: n
Encoding: 54 110 162
Width: 500
VWidth: 900
Flags: W
HStem: 0 21G<56 156 348.322 456> 780 20G<56 163.678 356 456> 780 20G<56 163.678 356 456>
VStem: 56 100<0 521> 356 100<279 800>
LayerCount: 2
Fore
SplineSet
56 800 m 1xd8
 156 800 l 1
 356 279 l 1
 356 800 l 1
 456 800 l 1
 456 0 l 1
 356 0 l 1
 156 521 l 1
 156 0 l 1
 56 0 l 1
 56 800 l 1xd8
EndSplineSet
Validated: 5
EndChar

StartChar: p
Encoding: 56 112 163
Width: 500
VWidth: 900
Flags: W
HStem: 0 21G<56 156> 350 100<156 310.81> 700 100<156 310.81>
VStem: 56 100<0 350 450 700> 369 100<506.658 643.342>
LayerCount: 2
Fore
SplineSet
156 450 m 1
 244 450 l 2
 313 450 369 506 369 575 c 0
 369 644 313 700 244 700 c 1
 156 700 l 1
 156 450 l 1
469 575 m 0
 469 451 368 350 244 350 c 2
 156 350 l 1
 156 0 l 1
 56 0 l 1
 56 800 l 1
 156 800 l 1
 244 800 l 1
 368 800 469 699 469 575 c 0
EndSplineSet
Validated: 5
EndChar

StartChar: q
Encoding: 57 113 164
Width: 500
VWidth: 912
Flags: W
HStem: 63 100<189.527 267.504> 712 100<189.527 310.473>
VStem: 50 100<203.696 671.304> 350 100<236.072 671.304>
LayerCount: 2
Fore
SplineSet
250 812 m 0
 360 812 450 722 450 612 c 2
 450 263 l 2
 450 210 429 161 395 125 c 1
 462 -25 l 1
 353 -25 l 1
 309 72 l 1
 290 66 271 63 250 63 c 0
 140 63 50 153 50 263 c 2
 50 612 l 2
 50 722 140 812 250 812 c 0
250 712 m 0
 195 712 150 667 150 612 c 2
 150 263 l 2
 150 208 195 163 250 163 c 0
 256 163 262 163 268 164 c 1
 173 375 l 1
 282 375 l 1
 346 234 l 1
 349 243 350 253 350 263 c 1
 350 613 l 1
 350 668 305 712 250 712 c 0
EndSplineSet
Validated: 5
EndChar

StartChar: r
Encoding: 58 114 165
Width: 500
VWidth: 900
Flags: W
HStem: -0 21G<56 156 349.971 469> 350 100<156 201> 700 100<156 310.81>
VStem: 56 100<0 350 450 700> 369 100<505.73 643.342>
LayerCount: 2
Fore
SplineSet
56 800 m 1
 156 800 l 1
 244 800 l 2
 368 800 469 699 469 575 c 0
 469 473 400 386 307 359 c 1
 469 -0 l 1
 359 -0 l 1
 201 350 l 1
 156 350 l 1
 156 0 l 1
 56 0 l 1
 56 800 l 1
156 700 m 1
 156 450 l 1
 244 450 l 1
 313 450 369 506 369 575 c 0
 369 644 313 700 244 700 c 2
 156 700 l 1
EndSplineSet
Validated: 5
EndChar

StartChar: s
Encoding: 59 115 166
Width: 500
VWidth: 900
Flags: W
HStem: -25 100<195.527 316.473> 338 100<196.696 315.304> 700 100<195.527 316.473>
VStem: 56 100<115.696 175 478.696 659.304> 356 100<115.696 297.304 600 659.304>
LayerCount: 2
Fore
SplineSet
256 338 m 0
 146 338 56 428 56 538 c 2
 56 600 l 2
 56 710 146 800 256 800 c 0
 366 800 456 710 456 600 c 1
 356 600 l 1
 356 655 311 700 256 700 c 0
 201 700 156 655 156 600 c 2
 156 538 l 2
 156 483 201 438 256 438 c 0
 366 438 456 348 456 238 c 2
 456 175 l 2
 456 65 366 -25 256 -25 c 0
 146 -25 56 65 56 175 c 1
 156 175 l 1
 156 120 201 75 256 75 c 0
 311 75 356 120 356 175 c 2
 356 237 l 2
 356 292 311 338 256 338 c 0
EndSplineSet
Validated: 1
EndChar

StartChar: t
Encoding: 60 116 167
Width: 500
VWidth: 900
Flags: W
HStem: 0 21G<206 306> 700 100<56 206 306 456>
VStem: 206 100<0 700>
LayerCount: 2
Fore
SplineSet
56 800 m 1
 206 800 l 1
 306 800 l 1
 456 800 l 1
 456 700 l 1
 306 700 l 1
 306 0 l 1
 206 0 l 1
 206 700 l 1
 56 700 l 1
 56 800 l 1
EndSplineSet
Validated: 1
EndChar

StartChar: u
Encoding: 61 117 168
Width: 500
VWidth: 900
Flags: W
HStem: -0 100<195.527 316.473> 780 20G<56 156 356 456> 780 20G<56 156 356 456>
VStem: 56 100<140.696 800> 356 100<140.696 800>
LayerCount: 2
Fore
SplineSet
256 100 m 0xd8
 311 100 356 145 356 200 c 2
 356 800 l 1
 456 800 l 1
 456 200 l 2
 456 90 366 0 256 -0 c 0
 146 0 56 90 56 200 c 2
 56 800 l 1
 156 800 l 1
 156 200 l 2
 156 145 201 100 256 100 c 0xd8
EndSplineSet
Validated: 1
EndChar

StartChar: v
Encoding: 62 118 169
Width: 500
VWidth: 900
Flags: W
HStem: 0 21G<201.95 310.075> 780 20G<44 150.044 362.919 469> 780 20G<44 150.044 362.919 469>
LayerCount: 2
Fore
SplineSet
206 0 m 1xc0
 44 800 l 1
 146 800 l 1
 256 256 l 1
 367 800 l 1
 469 800 l 1
 306 0 l 1
 206 0 l 1xc0
EndSplineSet
Validated: 1
EndChar

StartChar: w
Encoding: 63 119 170
Width: 500
VWidth: 900
Flags: W
HStem: 0 21G<44 150.687 362.254 469> 780 20G<44 144 369 469> 780 20G<44 144 369 469>
VStem: 44 100<314 800> 369 100<314 800>
LayerCount: 2
Fore
SplineSet
44 0 m 1xd8
 44 800 l 1
 144 800 l 1
 144 314 l 1
 206 500 l 1
 306 500 l 1
 369 314 l 1
 369 800 l 1
 469 800 l 1
 469 0 l 1
 369 0 l 1
 256 335 l 1
 144 0 l 1
 44 0 l 1xd8
EndSplineSet
Validated: 1
EndChar

StartChar: x
Encoding: 64 120 171
Width: 500
VWidth: 900
Flags: W
HStem: 0 21G<44 158.955 353.045 469> 780 20G<44 158.955 353.045 469> 780 20G<44 158.955 353.045 469>
LayerCount: 2
Fore
SplineSet
44 800 m 1xc0
 151 800 l 1
 256 536 l 1
 361 800 l 1
 469 800 l 1
 310 400 l 1
 469 0 l 1
 361 0 l 1
 256 264 l 1
 151 0 l 1
 44 0 l 1
 202 400 l 1
 44 800 l 1xc0
EndSplineSet
Validated: 1
EndChar

StartChar: y
Encoding: 65 121 172
Width: 500
VWidth: 900
Flags: W
HStem: 0 21G<206 306> 780 20G<44 158.955 353.045 469> 780 20G<44 158.955 353.045 469>
VStem: 206 100<0 390>
LayerCount: 2
Fore
SplineSet
44 800 m 1xd0
 151 800 l 1
 256 536 l 1
 361 800 l 1
 469 800 l 1
 306 390 l 1
 306 0 l 1
 206 0 l 1
 206 390 l 1
 44 800 l 1xd0
EndSplineSet
Validated: 1
EndChar

StartChar: z
Encoding: 66 122 173
Width: 500
VWidth: 900
Flags: W
HStem: -0 100<167 456> 700 100<56 345>
LayerCount: 2
Fore
SplineSet
56 800 m 1
 456 800 l 1
 456 700 l 1
 167 100 l 1
 456 100 l 1
 456 -0 l 1
 56 -0 l 1
 56 100 l 1
 345 700 l 1
 56 700 l 1
 56 800 l 1
EndSplineSet
Validated: 1
EndChar

StartChar: zero
Encoding: 2 48 174
Width: 500
VWidth: 912
Flags: W
HStem: -12 100<195.527 316.473> 338 125<210.191 302.356> 712 100<195.527 316.473>
VStem: 56 100<128.696 672.212> 194 125<354.191 446.356> 356 100<128.696 671.304>
LayerCount: 2
Fore
SplineSet
256 812 m 0
 366 812 456 722 456 612 c 1
 456 188 l 2
 456 78 366 -12 256 -12 c 0
 146 -12 56 78 56 188 c 2
 56 613 l 2
 56 723 146 812 256 812 c 0
256 712 m 2
 201 712 156 667 156 612 c 2
 156 188 l 2
 156 133 201 88 256 88 c 0
 311 88 356 133 356 188 c 2
 356 613 l 1
 356 668 311 712 256 712 c 2
256 463 m 0
 290 463 319 434 319 400 c 0
 319 366 290 338 256 338 c 0
 222 338 194 366 194 400 c 0
 194 434 222 463 256 463 c 0
EndSplineSet
Validated: 5
EndChar

StartChar: one
Encoding: 3 49 175
Width: 500
VWidth: 900
Flags: W
HStem: -0 100<56 206 306 456> 780 20G<186 306> 780 20G<186 306>
VStem: 206 100<100 659>
LayerCount: 2
Fore
SplineSet
206 800 m 1xd0
 306 800 l 1
 306 100 l 1
 456 100 l 1
 456 -0 l 1
 306 -0 l 1
 206 -0 l 1
 56 -0 l 1
 56 100 l 1
 206 100 l 1
 206 659 l 1
 56 509 l 1
 56 650 l 1
 206 800 l 1xd0
EndSplineSet
Validated: 1
EndChar

StartChar: two
Encoding: 4 50 176
Width: 500
VWidth: 912
Flags: W
HStem: -0 100<178 456> 712 100<195.527 316.473>
VStem: 56 100<562 671.304> 356 100<505.005 671.304>
LayerCount: 2
Fore
SplineSet
356 562 m 2
 356 612 l 2
 356 667 311 712 256 712 c 0
 201 712 156 667 156 612 c 2
 156 562 l 1
 56 562 l 1
 56 612 l 2
 56 722 146 812 256 812 c 0
 366 812 456 722 456 612 c 2
 456 562 l 2
 456 521 443 482 420 448 c 2
 178 100 l 1
 456 100 l 1
 456 -0 l 1
 56 -0 l 1
 56 100 l 1
 338 505 l 2
 350 522 356 542 356 562 c 2
EndSplineSet
Validated: 1
EndChar

StartChar: three
Encoding: 5 51 177
Width: 500
VWidth: 912
Flags: W
HStem: -12 100<195.527 316.473> 350 100<219 317.642> 712 100<195.527 316.473>
VStem: 56 100<128.696 237 562 671.304> 356 100<128.696 309.982 490.018 671.304>
CounterMasks: 1 e0
LayerCount: 2
Fore
SplineSet
56 562 m 1
 56 612 l 2
 56 722 146 812 256 812 c 0
 366 812 456 722 456 612 c 2
 456 550 l 2
 456 493 432 438 389 400 c 1
 432 362 456 307 456 250 c 2
 456 188 l 2
 456 78 366 -12 256 -12 c 0
 146 -12 56 78 56 188 c 2
 56 237 l 1
 156 237 l 1
 156 188 l 2
 156 133 201 88 256 88 c 0
 311 88 356 133 356 188 c 1
 356 250 l 1
 356 305 311 350 256 350 c 2
 219 350 l 1
 219 450 l 1
 256 450 l 2
 311 450 356 495 356 550 c 2
 356 612 l 2
 356 667 311 712 256 712 c 0
 201 712 156 667 156 612 c 2
 156 562 l 1
 56 562 l 1
EndSplineSet
Validated: 5
EndChar

StartChar: four
Encoding: 6 52 178
Width: 500
VWidth: 900
Flags: W
HStem: -0 21G<356 456> 200 100<158 356> 780 20G<150.08 256 356 456> 780 20G<150.08 256 356 456>
VStem: 356 100<0 200 300 800>
LayerCount: 2
Fore
SplineSet
154 800 m 1xe8
 256 800 l 1
 158 300 l 1
 356 300 l 1
 356 800 l 1
 456 800 l 1
 456 300 l 1
 456 200 l 1
 456 -0 l 1
 356 -0 l 1
 356 200 l 1
 56 200 l 1
 56 300 l 1
 154 800 l 1xe8
EndSplineSet
Validated: 5
EndChar

StartChar: five
Encoding: 7 53 179
Width: 500
VWidth: 900
Flags: W
HStem: -12 100<195.527 316.473> 400 100<156 315.304> 700 100<156 456>
VStem: 56 100<128.696 188 500 700> 356 100<128.696 359.304>
LayerCount: 2
Fore
SplineSet
56 800 m 1
 456 800 l 1
 456 700 l 1
 156 700 l 1
 156 500 l 1
 256 500 l 2
 366 500 456 410 456 300 c 2
 456 188 l 2
 456 78 366 -12 256 -12 c 0
 146 -12 56 78 56 188 c 1
 56 188 100 188 130 188 c 0
 145 188 156 188 156 188 c 1
 156 133 201 88 256 88 c 0
 311 88 356 133 356 188 c 2
 356 188 356 238 356 271 c 0
 356 288 356 300 356 300 c 2
 356 355 311 400 256 400 c 2
 156 400 l 1
 56 400 l 1
 56 700 l 1
 56 800 l 1
EndSplineSet
Validated: 1
EndChar

StartChar: six
Encoding: 8 54 180
Width: 500
VWidth: 900
Flags: W
HStem: -12 100<195.527 316.473> 400 100<265 317.642> 780 20G<325.277 456> 780 20G<325.277 456>
VStem: 56 100<127.788 361.836> 356 100<127.788 361.642>
LayerCount: 2
Fore
SplineSet
56 187 m 2xec
 56 300 l 2
 56 338 68 375 88 407 c 2
 338 800 l 1
 456 800 l 1
 265 500 l 1
 372 495 456 407 456 300 c 2
 456 188 l 1
 456 187 l 2
 456 77 366 -12 256 -12 c 0
 146 -12 56 77 56 187 c 2xec
172 354 m 0
 162 338 156 319 156 300 c 2
 156 187 l 2
 156 132 201 88 256 88 c 0
 311 88 356 132 356 187 c 1
 356 188 l 1
 356 300 l 2
 356 355 311 400 256 400 c 0
 222 400 190 383 172 354 c 0
EndSplineSet
Validated: 1
EndChar

StartChar: seven
Encoding: 9 55 181
Width: 500
VWidth: 900
Flags: W
HStem: -0 21G<56 173.314> 700 100<56 348>
LayerCount: 2
Fore
SplineSet
56 800 m 1
 456 800 l 1
 456 700 l 1
 165 -0 l 1
 56 -0 l 1
 348 700 l 1
 56 700 l 1
 56 800 l 1
EndSplineSet
Validated: 1
EndChar

StartChar: eight
Encoding: 10 56 182
Width: 500
VWidth: 912
Flags: W
HStem: -13 101<195.527 316.473> 412 101<194.358 317.221> 712 100<195.527 316.473>
VStem: 56 100<128.604 372.028 550.547 672.473> 356 100<128.604 372.028 551.26 672.473>
LayerCount: 2
Fore
SplineSet
256 812 m 0
 366 812 456 722 456 612 c 0
 456 552 430 500 388 463 c 1
 430 426 456 373 456 313 c 2
 456 188 l 2
 456 78 366 -13 256 -13 c 0
 146 -13 56 78 56 188 c 2
 56 313 l 2
 56 373 83 426 125 463 c 1
 83 500 56 552 56 612 c 0
 56 722 146 812 256 812 c 0
256 712 m 0
 201 712 156 667 156 612 c 0
 156 557 201 512 256 512 c 0
 256 513 l 0
 257 513 258 513 259 513 c 0
 313 515 356 558 356 612 c 0
 356 667 311 712 256 712 c 0
256 412 m 0
 201 412 156 367 156 312 c 2
 156 188 l 2
 156 133 201 88 256 88 c 0
 311 88 356 133 356 188 c 2
 356 312 l 2
 356 367 311 412 256 412 c 0
EndSplineSet
Validated: 1
EndChar

StartChar: nine
Encoding: 11 57 183
Width: 500
VWidth: 912
Flags: W
HStem: -0 21G<56 187.723> 300 100<194.358 247> 712 100<195.527 316.473>
VStem: 56 100<438.358 671.304> 356 100<437.44 671.304>
LayerCount: 2
Fore
SplineSet
256 712 m 0
 201 712 156 667 156 612 c 2
 156 500 l 2
 156 445 201 400 256 400 c 0
 290 400 323 417 341 446 c 0
 351 462 356 480 356 490 c 2
 356 612 l 2
 356 667 311 712 256 712 c 0
56 500 m 2
 56 612 l 2
 56 722 146 812 256 812 c 0
 366 812 456 722 456 612 c 2
 456 481 l 2
 456 462 445 425 425 393 c 2
 175 -0 l 1
 56 -0 l 1
 247 300 l 1
 140 305 56 393 56 500 c 2
EndSplineSet
Validated: 1
EndChar

StartChar: cart.start
Encoding: 205 989584 184
Width: 1000
Flags: W
HStem: -250 100<660.672 1000> 950 100<660.672 1000>
VStem: 450 100<-39.3276 839.328>
LayerCount: 2
Fore
SplineSet
1000 950 m 1
 750 950 l 2
 640 950 550 860 550 750 c 2
 550 50 l 2
 550 -60 640 -150 750 -150 c 2
 1000 -150 l 1
 1000 -250 l 1
 750 -250 l 2
 584 -250 450 -116 450 50 c 2
 450 750 l 2
 450 916 584 1050 750 1050 c 2
 1000 1050 l 1
 1000 950 l 1
EndSplineSet
Validated: 1
Ligature2: "LIGA basics" bracketleft
EndChar

StartChar: cart.end
Encoding: 206 989585 185
Width: 1000
Flags: W
HStem: -250 100<0 339.328> 950 100<0 339.328>
VStem: 450 100<-39.3276 839.328>
LayerCount: 2
Fore
SplineSet
250 1050 m 2
 416 1050 550 916 550 750 c 2
 550 50 l 2
 550 -116 416 -250 250 -250 c 2
 0 -250 l 1
 -100 -200 l 1
 0 -150 l 1
 250 -150 l 2
 360 -150 450 -60 450 50 c 2
 450 750 l 2
 450 860 360 950 250 950 c 2
 0 950 l 1
 -100 1000 l 1
 0 1050 l 1
 250 1050 l 2
EndSplineSet
Validated: 1
Ligature2: "LIGA basics" bracketright
EndChar

StartChar: cart.body
Encoding: 207 989586 186
Width: 0
Flags: W
HStem: -250 100<-1000 0> 950 100<-1000 0>
LayerCount: 2
Fore
SplineSet
0 -150 m 1
 0 -250 l 1
 -1000 -250 l 1
 -1100 -200 l 1
 -1000 -150 l 1
 0 -150 l 1
0 1050 m 1
 0 950 l 1
 -1000 950 l 1
 -1100 1000 l 1
 -1000 1050 l 1
 0 1050 l 1
EndSplineSet
Validated: 1
EndChar

StartChar: morae.dot
Encoding: 208 989596 187
Width: 1000
Flags: W
HStem: 300 200<438.358 561.642>
VStem: 400 200<338.358 461.642>
LayerCount: 2
Fore
SplineSet
400 400 m 0
 400 455 445 500 500 500 c 0
 555 500 600 455 600 400 c 0
 600 345 555 300 500 300 c 0
 445 300 400 345 400 400 c 0
EndSplineSet
Validated: 1
MultipleSubs2: "CCMP cartouches" morae.dot cart.body
Ligature2: "LIGA basics" glyph192
EndChar

StartChar: morae.colon
Encoding: 209 989597 188
Width: 1000
Flags: W
HStem: 125 200<438.358 561.642> 475 200<438.358 561.642>
VStem: 400 200<163.358 286.642 513.358 636.642>
LayerCount: 2
Fore
SplineSet
400 225 m 0
 400 280 445 325 500 325 c 0
 555 325 600 280 600 225 c 0
 600 170 555 125 500 125 c 0
 445 125 400 170 400 225 c 0
400 575 m 0
 400 630 445 675 500 675 c 0
 555 675 600 630 600 575 c 0
 600 520 555 475 500 475 c 0
 445 475 400 520 400 575 c 0
EndSplineSet
Validated: 1
MultipleSubs2: "CCMP cartouches" morae.colon cart.body
Ligature2: "LIGA basics" colon
EndChar

StartChar: bracketleft
Encoding: 39 91 189
Width: 500
VWidth: 900
Flags: W
HStem: 0 100<150 450> 700 100<150 450>
VStem: 50 100<100 700>
LayerCount: 2
Fore
SplineSet
450 700 m 1
 150 700 l 1
 150 100 l 1
 450 100 l 1
 450 0 l 1
 50 0 l 1
 50 100 l 1
 50 800 l 1
 450 800 l 1
 450 700 l 1
EndSplineSet
Validated: 1
EndChar

StartChar: bracketright
Encoding: 40 93 190
Width: 500
VWidth: 900
Flags: W
HStem: 0 100<50 350> 700 100<50 350>
VStem: 350 100<100 700>
LayerCount: 2
Fore
SplineSet
50 700 m 1
 50 800 l 1
 450 800 l 1
 450 100 l 1
 450 0 l 1
 50 0 l 1
 50 100 l 1
 350 100 l 1
 350 700 l 1
 50 700 l 1
EndSplineSet
Validated: 1
EndChar

StartChar: glyph192
Encoding: 1 46 192
Width: 500
VWidth: 0
Flags: W
HStem: -12 150<198.417 301.583>
VStem: 175 150<10.8938 114.059>
LayerCount: 2
Fore
SplineSet
175 62 m 0
 175 103 209 138 250 138 c 0
 291 138 325 103 325 62 c 0
 325 21 291 -12 250 -12 c 0
 209 -12 175 21 175 62 c 0
EndSplineSet
Validated: 1
EndChar

StartChar: colon
Encoding: 12 58 193
Width: 500
Flags: W
HStem: -12 150<198.417 301.583> 325 150<198.417 301.583>
VStem: 175 150<10.8938 114.059 348.417 451.583>
LayerCount: 2
Fore
SplineSet
175 62 m 0
 175 103 209 138 250 138 c 0
 291 138 325 103 325 62 c 0
 325 21 291 -12 250 -12 c 0
 209 -12 175 21 175 62 c 0
175 400 m 0
 175 441 209 475 250 475 c 0
 291 475 325 441 325 400 c 0
 325 359 291 325 250 325 c 0
 209 325 175 359 175 400 c 0
EndSplineSet
Validated: 1
EndChar

StartChar: t.namako
Encoding: 188 989560 194
Width: 1000
Flags: W
HStem: 0 100<277 412.619> 780 20G<450 550> 780 20G<450 550>
VStem: 250 100<271.406 450> 450 100<575 800> 650 100<337.381 450>
CounterMasks: 1 1c
LayerCount: 2
Fore
SplineSet
450 575 m 1xdc
 450 800 l 1
 550 800 l 1
 550 575 l 1
 450 575 l 1xdc
607 561 m 1
 711 760 l 1
 800 714 l 1
 695 514 l 1
 607 561 l 1
393 560 m 1
 305 513 l 1
 200 713 l 1
 289 759 l 1
 393 560 l 1
250 450 m 1
 350 450 l 1
 350 330 325 210 277 100 c 1
 300 100 l 2
 493 100 650 257 650 450 c 1
 750 450 l 1
 750 201 549 0 300 0 c 2
 225 0 l 1
 200 0 l 1
 106 0 l 1
 200 131 250 289 250 450 c 1
EndSplineSet
Validated: 1
MultipleSubs2: "CCMP cartouches" t.namako cart.body
Ligature2: "LIGA basics" n a m a k o
EndChar

StartChar: t.kin
Encoding: 189 989561 195
Width: 1000
Flags: W
HStem: 0 21G<450 550> 780 20G<450 550> 780 20G<450 550>
VStem: 450 100<0 113 287 400 475 800>
LayerCount: 2
Fore
SplineSet
450 475 m 1xd0
 450 800 l 1
 550 800 l 1
 550 475 l 1
 450 475 l 1xd0
300 258 m 1
 350 344 l 1
 450 287 l 1
 450 400 l 1
 550 400 l 1
 550 287 l 1
 650 344 l 1
 700 258 l 1
 600 200 l 1
 700 142 l 1
 650 56 l 1
 550 113 l 1
 550 0 l 1
 450 0 l 1
 450 113 l 1
 350 56 l 1
 300 142 l 1
 400 200 l 1
 300 258 l 1
EndSplineSet
Validated: 1
MultipleSubs2: "CCMP cartouches" t.kin cart.body
Ligature2: "LIGA basics" k i n
EndChar

StartChar: t.oko
Encoding: 190 989562 196
Width: 1000
Flags: W
HStem: 0 21G<786.25 835.337> 780 20G<786.25 835.337> 780 20G<786.25 835.337>
VStem: 600 100<336.257 460.039> 800 100<300.603 495.138>
LayerCount: 2
Fore
SplineSet
738 590 m 1x98
 729 603 719 616 708 627 c 1
 268 400 l 1
 708 173 l 1
 719 184 729 197 738 210 c 1
 658 236 600 311 600 400 c 0
 600 489 658 564 738 590 c 1x98
785 497 m 1
 737 490 700 448 700 398 c 0
 700 348 736 307 784 299 c 1
 794 331 800 365 800 400 c 0
 800 434 795 466 785 497 c 1
871 89 m 1
 825 0 l 1
 50 400 l 1
 825 800 l 1xd8
 871 711 l 1
 800 674 l 1
 863 600 900 504 900 400 c 0
 900 296 863 200 800 126 c 1
 871 89 l 1
EndSplineSet
Validated: 1
MultipleSubs2: "CCMP cartouches" t.oko cart.body
Ligature2: "LIGA basics" o k o
EndChar

StartChar: t.kipisi
Encoding: 191 989563 197
Width: 1000
Flags: W
HStem: 75 150<648.417 751.583> 562 150<248.417 351.583>
VStem: 225 150<585.417 688.583> 625 150<98.4173 201.583>
LayerCount: 2
Fore
SplineSet
225 637 m 0
 225 678 259 712 300 712 c 0
 341 712 375 678 375 637 c 0
 375 596 341 562 300 562 c 0
 259 562 225 596 225 637 c 0
625 150 m 0
 625 191 659 225 700 225 c 0
 741 225 775 191 775 150 c 0
 775 109 741 75 700 75 c 0
 659 75 625 109 625 150 c 0
200 171 m 1
 729 700 l 1
 800 629 l 1
 271 100 l 1
 200 171 l 1
EndSplineSet
Validated: 1
MultipleSubs2: "CCMP cartouches" t.kipisi cart.body
Ligature2: "LIGA basics" k i p i s i
EndChar

StartChar: t.leko
Encoding: 192 989564 198
Width: 1000
Flags: W
HStem: 0 100<200 800> 200 100<400 600> 500 100<400 600> 700 100<200 800>
VStem: 100 100<100 700> 300 100<300 500> 600 100<300 500> 800 100<100 700>
LayerCount: 2
Fore
SplineSet
100 800 m 1
 900 800 l 1
 900 0 l 1
 100 0 l 1
 100 800 l 1
200 700 m 1
 200 100 l 1
 800 100 l 1
 800 700 l 1
 200 700 l 1
300 600 m 1
 700 600 l 1
 700 200 l 1
 300 200 l 1
 300 600 l 1
400 500 m 1
 400 300 l 1
 600 300 l 1
 600 500 l 1
 400 500 l 1
EndSplineSet
Validated: 1
MultipleSubs2: "CCMP cartouches" t.leko cart.body
Ligature2: "LIGA basics" l e k o
EndChar

StartChar: t.monsuta
Encoding: 193 989565 199
Width: 1000
Flags: W
LayerCount: 2
Fore
SplineSet
500 650 m 1
 555 533 l 1
 636 361 l 1
 750 550 l 1
 900 275 l 1
 812 227 l 1
 746 349 l 1
 625 150 l 1
 500 415 l 1
 375 150 l 1
 254 349 l 1
 188 227 l 1
 100 275 l 1
 250 550 l 1
 364 361 l 1
 445 533 l 1
 500 650 l 1
EndSplineSet
Validated: 1
MultipleSubs2: "CCMP cartouches" t.monsuta cart.body
Ligature2: "LIGA basics" m o n s u t a
EndChar

StartChar: t.tonsi
Encoding: 194 989566 200
Width: 1000
Flags: W
HStem: 180 95<420.201 450 550 579.799> 625 100<415.849 584.151>
VStem: 225 100<366.371 533.446> 450 100<-25 183.955> 675 100<366.371 533.446>
CounterMasks: 1 38
LayerCount: 2
Fore
SplineSet
181 827 m 1
 343 676 l 1
 389 708 444 725 500 725 c 0
 556 725 611 708 657 676 c 1
 819 827 l 1
 887 754 l 1
 727 605 l 1
 758 559 775 505 775 450 c 0
 775 317 680 204 550 180 c 1
 550 -25 l 1
 450 -25 l 1
 450 180 l 1
 320 204 225 317 225 450 c 0
 225 505 242 559 273 605 c 1
 113 754 l 1
 181 827 l 1
500 625 m 0
 403 625 325 547 325 450 c 0
 325 353 403 275 500 275 c 0
 597 275 675 353 675 450 c 0
 675 547 597 625 500 625 c 0
EndSplineSet
Validated: 1
MultipleSubs2: "CCMP cartouches" t.tonsi cart.body
Ligature2: "LIGA basics" t o n s i
EndChar

StartChar: t.jasima
Encoding: 195 989567 201
Width: 1000
Flags: W
HStem: 0 21G<450 550> 125 100<588.573 735.254> 288 100<265.553 410.039> 412 100<590.311 735.254> 575 100<265.553 411.755> 780 20G<450 550> 780 20G<450 550>
VStem: 100 100<150 220.609 438 508.517> 450 100<0 153 360 440 647 800> 800 100<292.391 363 579.391 650>
CounterMasks: 1 01c0
LayerCount: 2
Fore
SplineSet
450 800 m 1xfdc0
 550 800 l 1
 550 571 l 1
 576 535 618 512 663 512 c 0
 739 512 800 574 800 650 c 1
 900 650 l 1
 900 519 794 412 663 412 c 0
 623 412 584 422 550 440 c 1
 550 283 l 1
 576 247 618 225 663 225 c 0
 739 225 800 287 800 363 c 1
 900 363 l 1
 900 232 794 125 663 125 c 0
 623 125 584 135 550 153 c 1
 550 0 l 1
 450 0 l 1
 450 229 l 1
 424 265 383 288 338 288 c 0
 262 288 200 226 200 150 c 1
 100 150 l 1
 100 281 207 388 338 388 c 0
 378 388 416 378 450 360 c 1
 450 517 l 1
 424 554 383 575 338 575 c 0
 262 575 200 514 200 438 c 1
 100 438 l 1
 100 569 207 675 338 675 c 0
 378 675 416 665 450 647 c 1
 450 800 l 1xfdc0
EndSplineSet
Validated: 1
MultipleSubs2: "CCMP cartouches" t.jasima cart.body
Ligature2: "LIGA basics" j a s i m a
EndChar

StartChar: t.soko
Encoding: 197 989569 202
Width: 1000
Flags: W
HStem: 0 21G<450 550> 150 100<300 450 550 700> 412 101<255 450 550 745> 712 100<401.665 598.335>
VStem: 450 100<0 150 250 412>
LayerCount: 2
Fore
SplineSet
500 712 m 0
 379 712 278 627 255 513 c 1
 255 513 473 513 618 513 c 0
 691 513 745 513 745 513 c 1
 722 627 621 712 500 712 c 0
300 150 m 1
 300 250 l 1
 450 250 l 1
 450 412 l 1
 150 412 l 1
 150 463 l 2
 150 656 307 812 500 812 c 0
 693 812 850 656 850 463 c 2
 850 412 l 1
 550 412 l 1
 550 250 l 1
 700 250 l 1
 700 150 l 1
 550 150 l 1
 550 0 l 1
 450 0 l 1
 450 150 l 1
 300 150 l 1
EndSplineSet
Validated: 1
MultipleSubs2: "CCMP cartouches" t.soko cart.body
Ligature2: "LIGA basics" s o k o
EndChar

StartChar: t.kijetesantakalu
Encoding: 196 989568 203
Width: 1000
Flags: W
HStem: -50 100<190.696 250 350 441> 250 100<190.696 250> 419 112<512.376 563.624> 469 112<649.376 700.624> 750 100<540.465 700>
VStem: 50 100<89.5269 210.473> 250 100<50 250 350 559.535> 482 112<449.376 500.624> 600 100<-50 250> 619 113<499.376 568.841> 700 100<700 750> 750 100<-50 400>
LayerCount: 2
Fore
SplineSet
650 850 m 2xdf20
 700 850 l 1
 800 850 l 1
 800 750 l 1
 800 700 l 1xdf20
 889 581 l 1
 950 500 l 1
 850 400 l 1
 850 -50 l 1
 750 -50 l 1
 750 323 l 1
 750 441 l 1xdf10
 818 509 l 1
 700 667 l 1
 700 750 l 1
 650 750 l 2
 484 750 350 616 350 450 c 2
 350 50 l 1
 441 50 l 1
 425 250 l 1
 525 250 l 1
 550 -50 l 1
 525 -50 l 1
 350 -50 l 1
 250 -50 l 2
 140 -50 50 40 50 150 c 0
 50 260 140 350 250 350 c 1
 250 450 l 2
 250 671 429 850 650 850 c 2xdf20
678 581 m 2
 699 580 716 568 725 551 c 0
 729 543 732 534 732 525 c 0
 732 503 719 484 701 475 c 0
 693 471 684 469 675 469 c 0
 653 469 634 481 625 499 c 0
 621 507 619 516 619 525 c 0xdf40
 619 547 631 566 649 575 c 0
 657 579 666 581 675 581 c 0
 676 581 677 581 678 581 c 2
540 531 m 2xef
 561 530 579 518 588 501 c 0
 592 493 594 484 594 475 c 0
 594 453 582 434 564 425 c 0
 556 421 547 419 538 419 c 0
 516 419 497 431 488 449 c 0
 484 457 482 466 482 475 c 0
 482 497 494 516 512 525 c 0
 520 529 529 531 538 531 c 0
 539 531 539 531 540 531 c 2xef
250 250 m 1
 195 250 150 205 150 150 c 0
 150 95 195 50 250 50 c 1
 250 250 l 1
600 250 m 1xcf80
 700 250 l 1
 700 -50 l 1
 600 -50 l 1
 600 250 l 1xcf80
EndSplineSet
Validated: 5
LCarets2: 14 0 0 0 0 0 0 0 0 0 0 0 0 0 0
MultipleSubs2: "CCMP cartouches" t.kijetesantakalu
Ligature2: "LIGA basics" k i j e t e s a n t a k a l u
EndChar

StartChar: t.meso
Encoding: 198 989570 204
Width: 1000
Flags: W
HStem: 325 150<448.417 551.583>
VStem: 250 100<50 750> 425 150<348.417 451.583> 650 100<50 750>
CounterMasks: 1 70
LayerCount: 2
Fore
SplineSet
425 400 m 0
 425 441 459 475 500 475 c 0
 541 475 575 441 575 400 c 0
 575 359 541 325 500 325 c 0
 459 325 425 359 425 400 c 0
250 50 m 1
 250 750 l 1
 350 750 l 1
 350 50 l 1
 250 50 l 1
650 50 m 1
 650 750 l 1
 750 750 l 1
 750 50 l 1
 650 50 l 1
EndSplineSet
Validated: 1
MultipleSubs2: "CCMP cartouches" t.meso cart.body
Ligature2: "LIGA basics" m e s o
EndChar

StartChar: t.epiku
Encoding: 199 989571 205
Width: 1000
Flags: W
HStem: 25 100<403.504 596.496>
VStem: 150 100<279.289 375> 450 100<550 775> 750 100<279.289 375>
CounterMasks: 1 70
LayerCount: 2
Fore
SplineSet
450 550 m 1
 450 775 l 1
 550 775 l 1
 550 550 l 1
 450 550 l 1
610 530 m 1
 745 710 l 1
 825 650 l 1
 690 470 l 1
 610 530 l 1
390 530 m 1
 310 470 l 1
 175 650 l 1
 255 710 l 1
 390 530 l 1
500 25 m 0
 307 25 150 182 150 375 c 1
 150 375 161 375 176 375 c 0
 206 375 250 375 250 375 c 1
 250 237 362 125 500 125 c 0
 638 125 750 237 750 375 c 1
 750 375 761 375 776 375 c 0
 806 375 850 375 850 375 c 1
 850 182 693 25 500 25 c 0
EndSplineSet
Validated: 1
LCarets2: 4 0 0 0 0
MultipleSubs2: "CCMP cartouches" t.epiku cart.body
Ligature2: "LIGA basics" e p i k u
EndChar

StartChar: t.kokosila
Encoding: 200 989572 206
Width: 1000
Flags: W
HStem: -38 100<416.42 582.696> 412 100<417.304 586.238>
VStem: 225 100<197.551 319.696> 450 100<600 825> 675 100<154.304 277.14>
CounterMasks: 1 38
LayerCount: 2
Fore
SplineSet
380 110 m 1
 411 80 453 62 500 62 c 2
 597 62 675 140 675 237 c 0
 675 251 673 265 670 278 c 1
 380 110 l 1
450 600 m 1
 450 825 l 1
 550 825 l 1
 550 600 l 1
 450 600 l 1
211 13 m 1
 161 100 l 1
 241 146 l 1
 231 175 225 205 225 237 c 0
 225 389 348 512 500 512 c 0
 584 512 659 475 709 416 c 1
 789 462 l 1
 839 375 l 1
 759 329 l 1
 769 300 775 269 775 237 c 0
 775 85 652 -38 500 -38 c 0
 416 -38 341 0 291 59 c 1
 211 13 l 1
607 586 m 1
 712 785 l 1
 800 739 l 1
 695 539 l 1
 607 586 l 1
393 585 m 1
 305 538 l 1
 200 738 l 1
 289 784 l 1
 393 585 l 1
500 412 m 2
 403 412 325 334 325 237 c 0
 325 223 327 210 330 197 c 1
 620 365 l 1
 589 395 547 412 500 412 c 2
EndSplineSet
Validated: 5
MultipleSubs2: "CCMP cartouches" t.kokosila cart.body
Ligature2: "LIGA basics" k o k o s i l a
EndChar

StartChar: t.lanpan
Encoding: 201 989573 207
Width: 1000
Flags: W
HStem: -50 100<239.527 360.473> 75 150<596.417 699.583> 300 100<573.917 726.083> 450 100<436.368 559.473> 750 100<438.696 559.304>
VStem: 100 100<89.5269 299.595> 298 100<608.812 710.473> 400 100<90.6958 224.316> 573 150<98.0309 201.583> 598 102<589.527 710.473> 800 100<74.0074 226.083>
LayerCount: 2
Fore
SplineSet
498 850 m 2xff60
 500 850 l 2
 610 850 700 760 700 650 c 0
 700 540 610 450 500 450 c 0
 438 450 383 479 346 523 c 1
 252 421 200 288 200 150 c 0
 200 95 245 50 300 50 c 0
 355 50 400 95 400 150 c 0
 400 288 512 400 650 400 c 0
 788 400 900 288 900 150 c 0
 900 71 863 -3 800 -50 c 1
 740 30 l 1
 778 58 800 103 800 150 c 0
 800 233 733 300 650 300 c 0
 567 300 500 233 500 150 c 0
 500 40 410 -50 300 -50 c 0
 190 -50 100 40 100 150 c 0
 100 328 173 498 302 621 c 1
 298 630 298 640 298 650 c 0
 298 760 388 850 498 850 c 2xff60
498 750 m 0
 443 750 398 705 398 650 c 0
 398 595 443 550 498 550 c 0
 553 550 598 595 598 650 c 0
 598 705 553 750 498 750 c 0
648 225 m 0
 689 225 723 191 723 150 c 0
 723 109 690 75 648 75 c 0
 607 75 573 108 573 150 c 0xffa0
 573 191 607 225 648 225 c 0
EndSplineSet
Validated: 1
LCarets2: 5 0 0 0 0 0
MultipleSubs2: "CCMP cartouches" t.lanpan cart.body
Ligature2: "LIGA basics" l a n p a n
EndChar

StartChar: t.n
Encoding: 202 989574 208
Width: 1000
Flags: W
HStem: 0 21G<300 400 600 700> 287 100<439.527 560.473> 780 20G<450 550> 780 20G<450 550>
VStem: 300 100<0 246.304> 450 100<475 800> 600 100<0 246.304>
CounterMasks: 1 0e
LayerCount: 2
Fore
SplineSet
450 475 m 1xee
 450 800 l 1
 550 800 l 1
 550 475 l 1
 450 475 l 1xee
500 387 m 0
 610 387 700 297 700 187 c 2
 700 0 l 1
 600 0 l 1
 600 187 l 2
 600 242 555 287 500 287 c 0
 445 287 400 242 400 187 c 2
 400 0 l 1
 300 0 l 1
 300 187 l 2
 300 297 390 387 500 387 c 0
EndSplineSet
Validated: 1
MultipleSubs2: "CCMP cartouches" t.n cart.body
Ligature2: "LIGA basics" n
EndChar

StartChar: t.misikeke
Encoding: 203 989575 209
Width: 1000
Flags: W
HStem: -13 101<439.527 560.473> 350 100<400 600> 712 100<439.527 560.473>
VStem: 300 100<127.696 350 450 671.304> 600 100<128.604 350 450 671.304>
LayerCount: 2
Fore
SplineSet
500 712 m 0
 445 712 400 667 400 612 c 1
 400 450 l 1
 600 450 l 1
 600 612 l 2
 600 667 555 712 500 712 c 0
500 812 m 0
 610 812 700 722 700 612 c 1
 700 188 l 1
 700 78 610 -13 500 -13 c 0
 390 -13 300 77 300 187 c 2
 300 612 l 2
 300 722 390 812 500 812 c 0
400 350 m 1
 400 188 l 1
 400 133 445 88 500 88 c 0
 555 88 600 132 600 187 c 2
 600 350 l 1
 400 350 l 1
EndSplineSet
Validated: 5
MultipleSubs2: "CCMP cartouches" t.misikeke cart.body
Ligature2: "LIGA basics" m i s i k e k e
EndChar

StartChar: t.ku
Encoding: 204 989576 210
Width: 1000
Flags: W
HStem: 0 100<300 500 609 700> 250 125<566.191 658.356> 438 100<547 700> 700 100<300 600>
VStem: 200 100<100 700> 550 125<266.191 358.356> 700 100<100 438 538 649>
LayerCount: 2
Fore
SplineSet
200 800 m 1
 800 800 l 1
 800 0 l 1
 200 0 l 1
 200 800 l 1
300 700 m 1
 300 100 l 1
 500 100 l 1
 325 500 l 1
 600 700 l 1
 300 700 l 1
700 649 m 1
 547 538 l 1
 700 538 l 1
 700 649 l 1
461 438 m 1
 609 100 l 1
 700 100 l 1
 700 438 l 1
 461 438 l 1
612 375 m 0
 646 375 675 346 675 312 c 0
 675 278 646 250 612 250 c 0
 578 250 550 278 550 312 c 0
 550 346 578 375 612 375 c 0
EndSplineSet
Validated: 1
LCarets2: 1 0
MultipleSubs2: "CCMP cartouches" t.ku cart.body
Ligature2: "LIGA basics" k u
EndChar

StartChar: t.pake
Encoding: 210 989600 211
Width: 1000
Flags: W
HStem: 0 21G<450 550> 700 100<150 450 550 850>
VStem: 450 100<0 700>
LayerCount: 2
Fore
SplineSet
150 700 m 1
 150 800 l 1
 850 800 l 1
 850 700 l 1
 550 700 l 1
 550 0 l 1
 450 0 l 1
 450 700 l 1
 150 700 l 1
EndSplineSet
Validated: 1
MultipleSubs2: "CCMP cartouches" t.pake cart.body
Ligature2: "LIGA basics" p a k e
EndChar

StartChar: t.apeja
Encoding: 211 989601 212
Width: 1000
Flags: W
HStem: -50 100<448.124 551.876> 200 100<448.124 551.876> 500 100<173.124 276.876 723.124 826.876> 750 100<173.124 276.876 723.124 826.876>
VStem: 50 100<623.124 726.876> 300 100<623.124 726.876> 325 100<73.1238 176.876> 575 100<73.1238 176.876> 600 100<623.124 726.876> 850 100<623.124 726.876>
LayerCount: 2
Fore
SplineSet
500 550 m 1xf840
 894 283 l 1
 838 200 l 1
 500 429 l 1
 162 200 l 1
 106 283 l 1
 500 550 l 1xf840
225 850 m 0
 322 850 400 772 400 675 c 0xfc40
 400 578 322 500 225 500 c 0
 128 500 50 578 50 675 c 0
 50 772 128 850 225 850 c 0
225 750 m 0
 184 750 150 716 150 675 c 0
 150 634 184 600 225 600 c 0
 266 600 300 634 300 675 c 0
 300 716 266 750 225 750 c 0
500 300 m 0
 597 300 675 222 675 125 c 0
 675 28 597 -50 500 -50 c 0
 403 -50 325 28 325 125 c 0xfb40
 325 222 403 300 500 300 c 0
500 200 m 0
 459 200 425 166 425 125 c 0
 425 84 459 50 500 50 c 0
 541 50 575 84 575 125 c 0
 575 166 541 200 500 200 c 0
775 850 m 0
 872 850 950 772 950 675 c 0
 950 578 872 500 775 500 c 0
 678 500 600 578 600 675 c 0xf8c0
 600 772 678 850 775 850 c 0
775 750 m 0
 734 750 700 716 700 675 c 0
 700 634 734 600 775 600 c 0
 816 600 850 634 850 675 c 0
 850 716 816 750 775 750 c 0
EndSplineSet
Validated: 1
MultipleSubs2: "CCMP cartouches" t.apeja cart.body
Ligature2: "LIGA basics" a p e j a
EndChar

StartChar: t.majuna
Encoding: 212 989602 213
Width: 1000
Flags: W
HStem: 450 100<150 400 600 850>
VStem: 450 100<150 400>
LayerCount: 2
Fore
SplineSet
450 400 m 1
 550 400 l 1
 550 150 l 1
 450 150 l 1
 450 400 l 1
150 550 m 1
 400 550 l 1
 400 450 l 1
 150 450 l 1
 150 550 l 1
600 550 m 1
 850 550 l 1
 850 450 l 1
 600 450 l 1
 600 550 l 1
EndSplineSet
Validated: 1
MultipleSubs2: "CCMP cartouches" t.majuna cart.body
Ligature2: "LIGA basics" m a j u n a
EndChar

StartChar: t.powe
Encoding: 213 989603 214
Width: 1000
Flags: W
HStem: 150 100<100 900>
LayerCount: 2
Fore
SplineSet
100 150 m 1
 100 250 l 1
 900 250 l 1
 900 150 l 1
 100 150 l 1
394 677 m 1
 500 571 l 1
 606 677 l 1
 677 606 l 1
 571 500 l 1
 677 394 l 1
 606 323 l 1
 500 429 l 1
 394 323 l 1
 323 394 l 1
 429 500 l 1
 323 606 l 1
 394 677 l 1
EndSplineSet
Validated: 1
MultipleSubs2: "CCMP cartouches" t.powe cart.body
Ligature2: "LIGA basics" p o w e
EndChar

StartChar: morae.dotdot
Encoding: 215 -1 215
Width: 1000
Flags: W
HStem: 300 200<263.358 386.642 613.358 736.642>
VStem: 225 200<338.358 461.642> 575 200<338.358 461.642>
LayerCount: 2
Fore
SplineSet
325 500 m 0
 380 500 425 455 425 400 c 0
 425 345 380 300 325 300 c 0
 270 300 225 345 225 400 c 0
 225 455 270 500 325 500 c 0
675 500 m 0
 730 500 775 455 775 400 c 0
 775 345 730 300 675 300 c 0
 620 300 575 345 575 400 c 0
 575 455 620 500 675 500 c 0
EndSplineSet
Validated: 1
MultipleSubs2: "CCMP cartouches" morae.dotdot cart.body
Ligature2: "LIGA basics" glyph192 glyph192
EndChar

StartChar: morae.dotdotdot
Encoding: 216 -1 216
Width: 1000
Flags: W
HStem: 300 200<138.358 261.642 438.358 561.642 738.358 861.642>
VStem: 100 200<338.358 461.642> 400 200<338.358 461.642> 700 200<338.358 461.642>
CounterMasks: 1 70
LayerCount: 2
Fore
SplineSet
500 500 m 0
 555 500 600 455 600 400 c 0
 600 345 555 300 500 300 c 0
 445 300 400 345 400 400 c 0
 400 455 445 500 500 500 c 0
800 500 m 0
 855 500 900 455 900 400 c 0
 900 345 855 300 800 300 c 0
 745 300 700 345 700 400 c 0
 700 455 745 500 800 500 c 0
200 500 m 0
 255 500 300 455 300 400 c 0
 300 345 255 300 200 300 c 0
 145 300 100 345 100 400 c 0
 100 455 145 500 200 500 c 0
EndSplineSet
Validated: 1
MultipleSubs2: "CCMP cartouches" morae.dotdotdot cart.body
Ligature2: "LIGA basics" glyph192 glyph192 glyph192
EndChar
